<svg preserveAspectRatio="none" width="100%" height="100%" overflow="visible" style="display: block;" viewBox="0 0 51 51" fill="none" xmlns="http://www.w3.org/2000/svg">
<g id="function 1" clip-path="url(#clip0_0_11)">
<path id="Vector" d="M25.5 4.25V0C19.5457 0 14.4543 4.25104 13.3897 10.1088L10.9767 23.375H5.3125V27.625H10.2043L7.92932 40.1317C7.23257 43.9672 3.89825 46.75 0 46.75V51C5.95425 51 11.0457 46.749 12.1103 40.8912L14.5233 27.625H19.125V23.375H15.2957L17.5707 10.8683C18.2674 7.03284 21.6017 4.25 25.5 4.25V4.25Z" fill="var(--fill-0, white)"/>
<path id="Vector_2" d="M27.625 12.7501L25.9249 11.4749C25.7776 11.6716 22.3125 16.3968 22.3125 25.5001C22.3125 34.6035 25.7776 39.3287 25.9249 39.5254L29.3241 36.9749C29.2976 36.9391 26.5625 33.0798 26.5625 25.5001C26.5625 17.9226 29.3069 14.0508 29.3344 14.0113L27.625 12.7501Z" fill="var(--fill-0, white)"/>
<path id="Vector_3" d="M43.9879 14.0255C44.0154 14.0613 46.7505 17.9207 46.7505 25.5003C46.7505 33.0779 44.006 36.9497 43.9785 36.9891L45.688 38.2503L47.3881 39.5255C47.537 39.3279 51.0005 34.6037 51.0005 25.5003C51.0005 16.3969 47.5354 11.6717 47.3881 11.4751L43.9879 14.0255Z" fill="var(--fill-0, white)"/>
<path id="Vector_4" d="M38.6563 18.9375L36.1245 22.4192L33.5928 18.9375L30.1562 21.4381L33.4968 26.0316L30.1562 30.625L33.5928 33.1256L36.1245 29.644L38.6563 33.1256L42.0928 30.625L38.7522 26.0316L42.0928 21.4381L38.6563 18.9375Z" fill="var(--fill-0, white)"/>
</g>
<defs>
<clipPath id="clip0_0_11">
<rect width="51" height="51" fill="white"/>
</clipPath>
</defs>
</svg>
