<svg preserveAspectRatio="none" width="100%" height="100%" overflow="visible" style="display: block;" viewBox="0 0 20.4 20.4" fill="none" xmlns="http://www.w3.org/2000/svg">
<g id="function 1" clip-path="url(#clip0_0_35)">
<path id="Vector" d="M10.2 1.7V0C7.8183 0 5.7817 1.70041 5.35587 4.04352L4.3907 9.35H2.125V11.05H4.0817L3.17173 16.0527C2.89303 17.5869 1.5593 18.7 0 18.7V20.4C2.3817 20.4 4.4183 18.6996 4.84413 16.3565L5.8093 11.05H7.65V9.35H6.1183L7.02827 4.34733C7.30697 2.81313 8.6407 1.7 10.2 1.7V1.7Z" fill="var(--fill-0, white)"/>
<path id="Vector_2" d="M11.05 5.10012L10.37 4.59004C10.311 4.66869 8.925 6.55878 8.925 10.2001C8.925 13.8415 10.311 15.7316 10.37 15.8102L11.7296 14.79C11.719 14.7757 10.625 13.232 10.625 10.2001C10.625 7.16909 11.7228 5.62037 11.7338 5.6046L11.05 5.10012Z" fill="var(--fill-0, white)"/>
<path id="Vector_3" d="M17.5951 5.61021C17.6061 5.62452 18.7002 7.16826 18.7002 10.2001C18.7002 13.2312 17.6024 14.7799 17.5914 14.7956L18.2752 15.3001L18.9552 15.8102C19.0148 15.7311 20.4002 13.8415 20.4002 10.2001C20.4002 6.55878 19.0142 4.66869 18.9552 4.59004L17.5951 5.61021Z" fill="var(--fill-0, white)"/>
<path id="Vector_4" d="M15.4625 7.575L14.4498 8.96766L13.4371 7.575L12.0625 8.57524L13.3987 10.4126L12.0625 12.25L13.4371 13.2502L14.4498 11.8576L15.4625 13.2502L16.8371 12.25L15.5009 10.4126L16.8371 8.57524L15.4625 7.575Z" fill="var(--fill-0, white)"/>
</g>
<defs>
<clipPath id="clip0_0_35">
<rect width="20.4" height="20.4" fill="white"/>
</clipPath>
</defs>
</svg>
