<svg preserveAspectRatio="none" width="100%" height="100%" overflow="visible" style="display: block;" viewBox="0 0 24 23.5789" fill="none" xmlns="http://www.w3.org/2000/svg">
<g id="Group">
<g id="Vector">
</g>
<path id="Vector_2" d="M12.8123 0.0241481C18.9016 0.0241481 23.8838 4.91891 23.8838 10.9014V12.6009C23.8838 18.5834 18.9016 23.4781 12.8123 23.4781H11.0825C4.99318 23.4781 0.011008 18.5834 0.011008 12.6009V10.9014C0.011008 4.91891 4.99318 0.0241481 11.0825 0.0241481H12.8123ZM12.165 5.91908L12.011 5.91888C10.7283 5.91888 9.44565 5.96054 9.44565 5.96054C7.57217 5.96054 6.0534 7.45266 6.0534 9.29326C6.0534 9.29326 6.01447 10.3753 6.01122 11.5368L6.01101 11.6887C6.01101 12.9891 6.0534 14.334 6.0534 14.334C6.0534 16.1746 7.57217 17.6667 9.44565 17.6667C9.44565 17.6667 10.6449 17.7084 11.8838 17.7084C13.2075 17.7084 14.6188 17.6667 14.6188 17.6667C16.4923 17.6667 17.9686 16.2163 17.9686 14.3757C17.9686 14.3757 18.011 13.0459 18.011 11.772L18.0102 11.473C18.0045 10.3301 17.9686 9.25159 17.9686 9.25159C17.9686 7.41098 16.4922 5.96054 14.6188 5.96054C14.6188 5.96054 13.3976 5.92215 12.165 5.91908ZM12.011 6.97991C13.0628 6.97991 14.4114 7.01408 14.4114 7.01408C15.9477 7.01408 16.8962 7.94597 16.8962 9.45528C16.8962 9.45528 16.931 10.7576 16.931 11.7794C16.931 12.824 16.8962 14.1719 16.8962 14.1719C16.8962 15.6812 15.9477 16.6131 14.4114 16.6131C14.4114 16.6131 13.2188 16.6418 12.184 16.6466L11.9067 16.6473C10.8908 16.6473 9.65298 16.6131 9.65298 16.6131C8.11674 16.6131 7.12579 15.6395 7.12579 14.1302C7.12579 14.1302 7.09101 12.7775 7.09101 11.7111C7.09101 10.713 7.12579 9.45528 7.12579 9.45528C7.12579 7.94597 8.11677 7.01408 9.65298 7.01408C9.65298 7.01408 10.9592 6.97991 12.011 6.97991ZM12.011 8.79398C10.3135 8.79398 8.93745 10.1459 8.93745 11.8136C8.93745 13.4813 10.3135 14.8332 12.011 14.8332C13.7085 14.8332 15.0845 13.4813 15.0845 11.8136C15.0845 10.1459 13.7085 8.79398 12.011 8.79398ZM12.011 9.84867C13.1156 9.84867 14.011 10.7284 14.011 11.8136C14.011 12.8988 13.1156 13.7785 12.011 13.7785C10.9064 13.7785 10.011 12.8988 10.011 11.8136C10.011 10.7284 10.9064 9.84867 12.011 9.84867ZM15.2316 7.95602C14.8214 7.95602 14.4889 8.28431 14.4889 8.68925C14.4889 9.09419 14.8214 9.42245 15.2316 9.42245C15.6417 9.42245 15.9742 9.09419 15.9742 8.68925C15.9742 8.28428 15.6417 7.95602 15.2316 7.95602Z" fill="var(--fill-0, #82868B)"/>
</g>
</svg>
