<svg preserveAspectRatio="none" width="100%" height="100%" overflow="visible" style="display: block;" viewBox="0 0 20.0909 20.0909" fill="none" xmlns="http://www.w3.org/2000/svg">
<g id="Group">
<path id="Vector" d="M18.2074 9.41761H15.2741C15.3438 9.2211 15.3821 9.00987 15.3821 8.78977V1.88352C15.3821 0.844956 14.5372 0 13.4986 0H6.59233C5.55376 0 4.70881 0.844956 4.70881 1.88352V8.78977C4.70881 9.00987 4.74711 9.2211 4.8168 9.41761H1.88352C0.844956 9.41761 0 10.2626 0 11.3011V18.2074C0 19.246 0.844956 20.0909 1.88352 20.0909H8.78977C9.2718 20.0909 9.71195 19.9087 10.0455 19.6098C10.379 19.9087 10.8191 20.0909 11.3011 20.0909H18.2074C19.246 20.0909 20.0909 19.246 20.0909 18.2074V11.3011C20.0909 10.2626 19.246 9.41761 18.2074 9.41761ZM5.96449 8.78977V1.88352C5.96449 1.53735 6.24615 1.25568 6.59233 1.25568H13.4986C13.8448 1.25568 14.1264 1.53735 14.1264 1.88352V8.78977C14.1264 9.13595 13.8448 9.41761 13.4986 9.41761C12.8664 9.41761 7.43701 9.41761 6.59233 9.41761C6.24615 9.41761 5.96449 9.13595 5.96449 8.78977ZM8.78977 18.8352H1.88352C1.53735 18.8352 1.25568 18.5536 1.25568 18.2074V11.3011C1.25568 10.955 1.53735 10.6733 1.88352 10.6733H8.78977C9.13595 10.6733 9.41761 10.955 9.41761 11.3011V18.2074C9.41761 18.5536 9.13595 18.8352 8.78977 18.8352ZM18.8352 18.2074C18.8352 18.5536 18.5536 18.8352 18.2074 18.8352H11.3011C10.955 18.8352 10.6733 18.5536 10.6733 18.2074V11.3011C10.6733 10.955 10.955 10.6733 11.3011 10.6733H18.2074C18.5536 10.6733 18.8352 10.955 18.8352 11.3011V18.2074Z" fill="var(--fill-0, white)"/>
<path id="Vector_2" d="M14.9114 12.2431H13.6557C13.3089 12.2431 13.0279 12.5242 13.0279 12.8709C13.0279 13.2177 13.3089 13.4988 13.6557 13.4988H14.9114C15.0845 13.4988 15.2253 13.6396 15.2253 13.8127C15.2253 13.9858 15.0845 14.1266 14.9114 14.1266H14.2835C13.9368 14.1266 13.6557 14.4077 13.6557 14.7545C13.6557 15.1012 13.9368 15.3823 14.2835 15.3823H14.9114C15.0845 15.3823 15.2253 15.5231 15.2253 15.6962C15.2253 15.8693 15.0845 16.0102 14.9114 16.0102H13.6557C13.3089 16.0102 13.0279 16.2913 13.0279 16.638C13.0279 16.9847 13.3089 17.2658 13.6557 17.2658H14.9114C16.209 17.2658 16.9363 15.778 16.1662 14.7545C16.9373 13.7297 16.2078 12.2431 14.9114 12.2431Z" fill="var(--fill-0, white)"/>
<path id="Vector_3" d="M7.06335 13.9696C7.06335 13.0176 6.28883 12.243 5.33679 12.243C4.38475 12.243 3.61023 13.0176 3.61023 13.9696C3.61023 14.3163 3.89134 14.5974 4.23807 14.5974C4.5848 14.5974 4.86591 14.3163 4.86591 13.9696C4.86591 13.71 5.07714 13.4987 5.33679 13.4987C5.59644 13.4987 5.80767 13.71 5.80767 13.9696C5.80767 14.2587 5.66723 14.5316 5.43199 14.6997L3.87314 15.8131C3.70813 15.9309 3.61023 16.1213 3.61023 16.324V16.6379C3.61023 16.9847 3.89134 17.2658 4.23807 17.2658H6.43551C6.78224 17.2658 7.06335 16.9847 7.06335 16.6379C7.06335 16.2912 6.78224 16.0101 6.43551 16.0101H5.75776L6.16185 15.7214C6.72632 15.3182 7.06335 14.6633 7.06335 13.9696Z" fill="var(--fill-0, white)"/>
<path id="Vector_4" d="M9.73157 4.08079V7.21999C9.73157 7.56671 10.0127 7.84783 10.3594 7.84783C10.7062 7.84783 10.9873 7.56671 10.9873 7.21999V3.45294C10.9873 3.10622 10.7062 2.8251 10.3594 2.8251H9.73157C9.38485 2.8251 9.10373 3.10622 9.10373 3.45294C9.10373 3.79967 9.38485 4.08079 9.73157 4.08079Z" fill="var(--fill-0, white)"/>
</g>
</svg>
