<svg preserveAspectRatio="none" width="100%" height="100%" overflow="visible" style="display: block;" viewBox="0 0 20.6061 19.3939" fill="none" xmlns="http://www.w3.org/2000/svg">
<g id="math 1" clip-path="url(#clip0_0_50)">
<path id="Vector" d="M0.402619 1.53666C0.58247 1.53666 0.734808 1.42533 0.786373 1.27174C0.937926 1.34586 1.12925 1.32303 1.25644 1.20309C1.41365 1.05499 1.41365 0.81467 1.25644 0.666416L0.687173 0.129738C0.572094 0.0212167 0.398846 -0.0112508 0.248552 0.0474576C0.0981002 0.106166 0 0.244487 0 0.398077V1.15714C0 1.36677 0.180165 1.53666 0.402619 1.53666Z" fill="var(--fill-0, white)"/>
<path id="Vector_2" d="M0.402619 3.09661C0.62476 3.09661 0.805082 2.92656 0.805082 2.71708C0.805082 2.5076 0.62476 2.33755 0.402619 2.33755C0.180322 2.33755 0 2.5076 0 2.71708C0 2.92656 0.180322 3.09661 0.402619 3.09661Z" fill="var(--fill-0, white)"/>
<path id="Vector_3" d="M0.402619 7.77497C0.624288 7.77497 0.805082 7.60492 0.805082 7.39544C0.805082 7.18626 0.624288 7.01591 0.402619 7.01591C0.180794 7.01591 0 7.18626 0 7.39544C0 7.60492 0.180636 7.77497 0.402619 7.77497Z" fill="var(--fill-0, white)"/>
<path id="Vector_4" d="M0.402619 6.21559C0.624288 6.21559 0.805082 6.04554 0.805082 5.83606V4.27658C0.805082 4.06739 0.624288 3.89705 0.402619 3.89705C0.180636 3.89705 0 4.06739 0 4.27658V5.83606C0 6.04554 0.180636 6.21559 0.402619 6.21559Z" fill="var(--fill-0, white)"/>
<path id="Vector_5" d="M0.402619 12.4539C0.624288 12.4539 0.805082 12.2834 0.805082 12.0744C0.805082 11.8649 0.624288 11.6948 0.402619 11.6948C0.180636 11.6948 0 11.8649 0 12.0744C0 12.2834 0.180636 12.4539 0.402619 12.4539Z" fill="var(--fill-0, white)"/>
<path id="Vector_6" d="M0.402619 17.1324C0.624288 17.1324 0.805082 16.9619 0.805082 16.7528C0.805082 16.5432 0.624288 16.3733 0.402619 16.3733C0.180636 16.3733 0 16.5434 0 16.7528C0 16.9619 0.180636 17.1324 0.402619 17.1324Z" fill="var(--fill-0, white)"/>
<path id="Vector_7" d="M0.402619 10.8939C0.624288 10.8939 0.805082 10.7239 0.805082 10.5144V8.95494C0.805082 8.74575 0.624288 8.57541 0.402619 8.57541C0.180636 8.57541 0 8.74575 0 8.95494V10.5144C0 10.7239 0.180636 10.8939 0.402619 10.8939Z" fill="var(--fill-0, white)"/>
<path id="Vector_8" d="M0.402619 15.5728C0.624288 15.5728 0.805082 15.4023 0.805082 15.1933V13.6338C0.805082 13.4242 0.624288 13.2543 0.402619 13.2543C0.180794 13.2543 0 13.4242 0 13.6338V15.1933C0 15.4023 0.180636 15.5728 0.402619 15.5728V15.5728Z" fill="var(--fill-0, white)"/>
<path id="Vector_9" d="M8.63975 8.54478C8.74272 8.54478 8.84585 8.50786 8.9243 8.43359C9.08167 8.28548 9.08167 8.04531 8.9243 7.89691C8.76741 7.7488 8.51256 7.7488 8.3552 7.89691C8.19814 8.04531 8.19814 8.28548 8.3552 8.43359C8.43364 8.50786 8.53678 8.54478 8.63975 8.54478Z" fill="var(--fill-0, white)"/>
<path id="Vector_10" d="M5.35379 5.44443C5.45739 5.44443 5.561 5.40781 5.63819 5.33502C5.79524 5.18691 5.79524 4.94644 5.63835 4.79834C5.48223 4.65112 5.22488 4.65142 5.06908 4.79834C4.91203 4.9463 4.91203 5.18691 5.06893 5.33487C5.14643 5.40811 5.25019 5.44443 5.35379 5.44443Z" fill="var(--fill-0, white)"/>
<path id="Vector_11" d="M7.10096 7.33761C7.17705 7.40937 7.27814 7.4488 7.38552 7.4488C7.49305 7.4488 7.59414 7.40937 7.67007 7.33761C7.82713 7.18951 7.82713 6.94889 7.67007 6.80094L6.57493 5.76776C6.49884 5.69615 6.39728 5.65657 6.28991 5.65657C6.18237 5.65657 6.08144 5.69615 6.00535 5.76776C5.92926 5.83951 5.88745 5.93484 5.88745 6.0361C5.88745 6.1375 5.92926 6.23312 6.00535 6.30443L7.10096 7.33761Z" fill="var(--fill-0, white)"/>
<path id="Vector_12" d="M3.97331 4.3023C4.04924 4.37405 4.15033 4.41349 4.25818 4.41349C4.36571 4.41349 4.46664 4.37405 4.54289 4.3023C4.69978 4.15434 4.69978 3.91328 4.54289 3.76533L3.44712 2.73259C3.37103 2.66084 3.2701 2.6214 3.16257 2.6214C3.05503 2.6214 2.95411 2.66084 2.87801 2.73259C2.80192 2.80435 2.75995 2.89952 2.75995 3.00093C2.75995 3.10219 2.80192 3.19751 2.87801 3.26912L3.97331 4.3023Z" fill="var(--fill-0, white)"/>
<path id="Vector_13" d="M2.06766 2.3433C2.28901 2.34315 2.46981 2.17859 2.46996 1.96837C2.46996 1.76274 2.28461 1.58869 2.06734 1.58869C1.85731 1.58869 1.66488 1.75399 1.66488 1.96822C1.66488 2.17859 1.84552 2.34345 2.06766 2.3433Z" fill="var(--fill-0, white)"/>
<path id="Vector_14" d="M20.4913 18.803L10.0201 8.92973C9.86284 8.78163 9.60784 8.78163 9.45079 8.92973C9.29358 9.07799 9.29358 9.31831 9.45079 9.46656L9.73534 9.7349L0.779299 18.1793C0.722231 18.0353 0.575238 17.9327 0.402619 17.9327C0.180165 17.9327 0 18.1026 0 18.3123V19.0713C0 19.272 0.186453 19.4505 0.402619 19.4508H20.2066C20.5578 19.4508 20.7395 19.0371 20.4913 18.803ZM2.80261 17.345C3.12034 17.736 3.3255 18.2037 3.3942 18.6918H1.37435L2.80261 17.345ZM4.20573 18.6918C4.2051 18.6862 4.20416 18.6807 4.20353 18.675C4.12508 17.9935 3.83455 17.3365 3.37644 16.8041L10.3046 10.2716L19.2349 18.6918H4.20573Z" fill="var(--fill-0, white)"/>
<path id="Vector_15" d="M4.60552 12.2399C4.72626 12.2399 4.93063 12.1856 4.93063 12.0406C4.93063 12.0282 4.93063 10.8504 4.93063 10.8504C4.93063 10.5784 4.83945 10.3526 4.65708 10.1728C4.47472 9.99308 4.19598 9.90324 3.82103 9.90324C3.62483 9.90324 3.43822 9.93808 3.26104 10.0076C3.03953 10.0948 2.91769 10.2478 3.05714 10.4667C3.14942 10.6114 3.28604 10.545 3.41307 10.4814C3.6187 10.3785 3.99349 10.3375 4.15401 10.5363C4.22789 10.6279 4.26484 10.7352 4.26484 10.8584V10.9234H4.05323C3.66445 10.9234 3.36685 10.9754 3.16043 11.0792C2.95385 11.1831 2.85072 11.3626 2.85072 11.6176C2.85072 11.9901 3.1098 12.2837 3.5217 12.2837C3.8072 12.2837 4.0688 12.1479 4.30619 11.8765V12.027C4.30619 12.1729 4.48101 12.2399 4.60552 12.2399V12.2399ZM4.10999 11.6498C4.00685 11.742 3.90011 11.788 3.79006 11.788C3.63065 11.788 3.51651 11.6857 3.51651 11.5392C3.51651 11.4224 3.57578 11.3449 3.69448 11.3065C3.75091 11.2882 4.26484 11.2205 4.26484 11.2488C4.26484 11.4042 4.23151 11.5414 4.10999 11.6498Z" fill="var(--fill-0, white)"/>
<path id="Vector_16" d="M15.1615 12.04C15.1642 12.0566 15.1684 12.0727 15.1749 12.0885C15.2115 12.1765 15.3143 12.2259 15.414 12.2375C15.5165 12.2493 15.6267 12.2271 15.7039 12.1624C15.7812 12.0978 15.8179 11.9874 15.7773 11.8978C15.979 12.2281 16.4662 12.3704 16.8308 12.2054C17.2134 12.0323 17.3927 11.6043 17.4211 11.2049C17.4411 10.9239 17.4012 10.6326 17.2578 10.3856C17.1142 10.1386 16.8566 9.94175 16.5602 9.90572C16.264 9.8697 15.9402 10.0193 15.8283 10.2805C15.8261 9.81588 15.8239 9.3514 15.8215 8.88678C15.8212 8.82866 15.8204 8.76803 15.7919 8.71643C15.6989 8.54772 15.2717 8.53838 15.186 8.7154C15.1559 8.77766 15.1554 8.84838 15.1554 8.91672C15.1559 9.92841 15.1563 10.9399 15.1568 11.9516C15.1568 11.981 15.1568 12.0109 15.1615 12.04ZM15.8224 10.8909C15.8224 10.7623 15.8696 10.6578 15.9644 10.5775C16.0589 10.4971 16.1647 10.4569 16.2818 10.4569C16.4057 10.4569 16.5123 10.5013 16.6017 10.5895C16.6912 10.6778 16.736 10.7783 16.736 10.8907V11.2861C16.736 11.3986 16.6912 11.5008 16.6017 11.5923C16.5123 11.6839 16.4074 11.7297 16.287 11.7297C16.1664 11.7297 16.059 11.6855 15.9644 11.5971C15.8698 11.5088 15.8224 11.4339 15.8224 11.373V10.8909Z" fill="var(--fill-0, white)"/>
<path id="Vector_17" d="M9.79588 16.4402V16.8287C9.79588 17.4612 10.2752 17.8247 10.9159 17.8247C11.1498 17.8247 11.3502 17.7833 11.517 17.7008C11.7244 17.5982 11.8491 17.4232 11.6874 17.2271C11.573 17.0883 11.4343 17.1338 11.2927 17.2004C11.1927 17.2474 11.0844 17.2708 10.9674 17.2708C10.6302 17.2708 10.4617 17.123 10.4617 16.8272V16.4416C10.4617 16.1459 10.6285 15.9981 10.9622 15.9981C11.1488 15.9981 11.3024 16.1291 11.4732 16.1293C11.6268 16.1291 11.7365 15.9536 11.7365 15.8231C11.7363 15.5145 11.1374 15.4442 10.9107 15.4442C10.2785 15.4442 9.79588 15.82 9.79588 16.4402V16.4402Z" fill="var(--fill-0, white)"/>
</g>
<defs>
<clipPath id="clip0_0_50">
<rect width="20.6061" height="19.3939" fill="white"/>
</clipPath>
</defs>
</svg>
