<svg preserveAspectRatio="none" width="100%" height="100%" overflow="visible" style="display: block;" viewBox="0 0 23.12 20.4" fill="none" xmlns="http://www.w3.org/2000/svg">
<g id="ruler 1" clip-path="url(#clip0_0_41)">
<path id="Vector" d="M16.0594 9.3788C16.236 9.22302 16.236 8.96992 16.0594 8.81429C15.8832 8.65819 15.5975 8.65819 15.4209 8.81429C15.2447 8.96992 15.2447 9.22302 15.4209 9.3788C15.5975 9.5349 15.8832 9.5349 16.0594 9.3788Z" fill="var(--fill-0, white)"/>
<path id="Vector_2" d="M0.4514 20.4597H22.6683C22.8509 20.4597 23.0156 20.3625 23.0855 20.2133C23.1553 20.0641 23.1167 19.8924 22.9876 19.7782L0.770669 0.13687C0.641551 0.0225632 0.447343 -0.0114327 0.278536 0.0503213C0.109906 0.112075 -0.00016276 0.257571 -0.00016276 0.419129V20.0605C-0.00016276 20.281 0.201982 20.4597 0.4514 20.4597V20.4597ZM0.902963 1.38286L4.53522 4.59407L3.57706 5.44069C3.40067 5.59663 3.40067 5.84942 3.57706 6.00536C3.7531 6.16115 4.03921 6.16147 4.2156 6.00536L5.17376 5.15859L7.08955 6.85245L6.13157 7.69908C5.95518 7.85502 5.95518 8.10781 6.13139 8.26375C6.30761 8.41954 6.59372 8.41985 6.77011 8.26375L7.72827 7.41697L9.64388 9.11068L8.68608 9.95762C8.50968 10.1134 8.50968 10.3662 8.68608 10.5221C8.86247 10.6781 9.14822 10.6781 9.32461 10.5221L10.2826 9.6752L12.1984 11.3691L11.2406 12.216C11.0642 12.3718 11.0642 12.6246 11.2406 12.7805C11.417 12.9365 11.7027 12.9365 11.8791 12.7805L12.8371 11.9337L14.7529 13.6273L13.7951 14.4744C13.6187 14.6303 13.6187 14.8831 13.7951 15.0391C13.9715 15.1948 14.2574 15.1948 14.4338 15.0389L15.3914 14.192L17.3072 15.8857L16.3494 16.7328C16.1732 16.8887 16.1732 17.1415 16.3496 17.2973C16.5258 17.4532 16.8119 17.4532 16.9883 17.2973L17.9459 16.4502L21.578 19.6612H0.902963V1.38286Z" fill="var(--fill-0, white)"/>
<path id="Vector_3" d="M4.65413 8.32043C4.52501 8.20628 4.33081 8.17213 4.162 8.23388C3.99337 8.29563 3.8833 8.44129 3.8833 8.60269V16.6273C3.8833 16.8478 4.08545 17.0265 4.33486 17.0265H13.4116C13.5944 17.0265 13.7589 16.9293 13.829 16.7801C13.8988 16.631 13.86 16.4592 13.7311 16.345L4.65413 8.32043ZM4.78643 16.2282V9.56658L12.3215 16.2282H4.78643Z" fill="var(--fill-0, white)"/>
<path id="Vector_4" d="M14.1434 8.24974C14.3198 8.40569 14.6055 8.40569 14.7821 8.24974C14.9583 8.09396 14.9583 7.84117 14.7821 7.68523L12.8659 5.99136C12.6897 5.83542 12.4038 5.83542 12.2274 5.99136C12.051 6.14715 12.051 6.39993 12.2274 6.55588L14.1434 8.24974Z" fill="var(--fill-0, white)"/>
<path id="Vector_5" d="M6.85447 4.08867L19.53 15.2947C20.0592 15.7628 20.9164 15.7628 21.446 15.2947L22.723 14.1658C23.251 13.699 23.251 12.9391 22.723 12.4718L10.0477 1.26577C9.99813 1.22195 9.93762 1.18889 9.87112 1.16939L6.03954 0.0403571C5.87744 -0.00736181 5.6984 0.0299089 5.57757 0.136887C5.45657 0.243708 5.41441 0.401836 5.46839 0.545304L6.74546 3.93272C6.76769 3.99152 6.80491 4.04485 6.85447 4.08867V4.08867ZM22.0841 13.0363C22.2604 13.1921 22.2604 13.4456 22.0843 13.6011L20.8074 14.7301C20.631 14.8861 20.3451 14.8862 20.1685 14.7301L19.1901 13.8651L21.1059 12.1713L22.0841 13.0363ZM20.4673 11.6067L18.5514 13.3006L17.9128 12.7359L19.8288 11.0424L20.4673 11.6067ZM10.0272 2.37687L19.1901 10.4775L17.2743 12.1714L8.11126 4.07058L10.0272 2.37687ZM9.34054 1.85461L7.52053 3.46349L6.6107 1.05025L9.34054 1.85461Z" fill="var(--fill-0, white)"/>
</g>
<defs>
<clipPath id="clip0_0_41">
<rect width="23.12" height="20.4" fill="white"/>
</clipPath>
</defs>
</svg>
