<svg preserveAspectRatio="none" width="100%" height="100%" overflow="visible" style="display: block;" viewBox="0 0 24 24" fill="none" xmlns="http://www.w3.org/2000/svg">
<g id="1">
<rect id="Background" width="24" height="24" rx="5" fill="var(--fill-0, #00BDB8)"/>
<path id="Vector" d="M9.23333 16.2H10.0667V14.7333H11.5333V13.9H10.0667V12.4333H9.23333V13.9H7.76667V14.7333H9.23333V16.2ZM12.8167 15.6167H16.1667V14.8H12.8167V15.6167ZM12.8167 13.8333H16.1667V13H12.8167V13.8333ZM13.4333 11.1167L14.45 10.1L15.4667 11.1167L16.0667 10.5167L15.05 9.5L16.0667 8.48333L15.4667 7.88333L14.45 8.9L13.4333 7.88333L12.8333 8.48333L13.85 9.5L12.8333 10.5167L13.4333 11.1167ZM8.01667 9.91667H11.2833V9.08333H8.01667V9.91667ZM7 18C6.73333 18 6.5 17.9 6.3 17.7C6.1 17.5 6 17.2667 6 17V7C6 6.73333 6.1 6.5 6.3 6.3C6.5 6.1 6.73333 6 7 6H17C17.2667 6 17.5 6.1 17.7 6.3C17.9 6.5 18 6.73333 18 7V17C18 17.2667 17.9 17.5 17.7 17.7C17.5 17.9 17.2667 18 17 18H7ZM7 17H17V7H7V17Z" fill="var(--fill-0, white)"/>
</g>
</svg>
