<svg preserveAspectRatio="none" width="100%" height="100%" overflow="visible" style="display: block;" viewBox="0 0 26 26" fill="none" xmlns="http://www.w3.org/2000/svg">
<g id="timeline_FILL0_wght400_GRAD0_opsz48 1">
<path id="Vector" d="M2.97678 19.5C2.45476 19.5 2.00868 19.3141 1.63854 18.9424C1.2684 18.5707 1.08333 18.1238 1.08333 17.6018C1.08333 17.0798 1.26835 16.6337 1.63838 16.2635C2.00841 15.8934 2.45324 15.7083 2.97286 15.7083C3.06734 15.7083 3.15972 15.7128 3.25 15.7219C3.34028 15.7309 3.45764 15.7535 3.60208 15.7896L9.01875 10.3729C8.98264 10.2285 8.96007 10.1111 8.95104 10.0208C8.94201 9.93056 8.9375 9.83818 8.9375 9.74369C8.9375 9.22407 9.12337 8.77924 9.49512 8.40921C9.86685 8.03918 10.3137 7.85417 10.8357 7.85417C11.3577 7.85417 11.8038 8.04045 12.174 8.413C12.5441 8.78556 12.7292 9.23343 12.7292 9.75661C12.7292 9.78831 12.7021 9.99375 12.6479 10.3729L15.6271 13.3521C15.7715 13.316 15.8889 13.2934 15.9792 13.2844C16.0694 13.2753 16.1597 13.2708 16.25 13.2708C16.3403 13.2708 16.4306 13.2753 16.5208 13.2844C16.6111 13.2934 16.7285 13.316 16.8729 13.3521L21.2063 9.01875C21.1701 8.87431 21.1476 8.75694 21.1385 8.66667C21.1295 8.57639 21.125 8.48401 21.125 8.38952C21.125 7.8699 21.3109 7.42508 21.6826 7.05505C22.0543 6.68502 22.5012 6.5 23.0232 6.5C23.5452 6.5 23.9913 6.68587 24.3615 7.05762C24.7316 7.42935 24.9167 7.87622 24.9167 8.39824C24.9167 8.92025 24.7317 9.36632 24.3616 9.73646C23.9916 10.1066 23.5468 10.2917 23.0271 10.2917C22.9327 10.2917 22.8403 10.2872 22.75 10.2781C22.6597 10.2691 22.5424 10.2465 22.3979 10.2104L18.0646 14.5438C18.1007 14.6882 18.1233 14.8056 18.1323 14.8958C18.1413 14.9861 18.1458 15.0785 18.1458 15.173C18.1458 15.6926 17.96 16.1374 17.5882 16.5075C17.2165 16.8775 16.7696 17.0625 16.2476 17.0625C15.7256 17.0625 15.2795 16.8775 14.9094 16.5075C14.5392 16.1374 14.3542 15.6926 14.3542 15.173C14.3542 15.0785 14.3587 14.9861 14.3677 14.8958C14.3767 14.8056 14.3993 14.6882 14.4354 14.5438L11.4563 11.5646C11.3118 11.6007 11.1944 11.6233 11.1042 11.6323C11.0139 11.6413 10.9214 11.6458 10.8266 11.6458C10.795 11.6458 10.5896 11.6188 10.2104 11.5646L4.79375 16.9813C4.82986 17.1257 4.85243 17.2431 4.86146 17.3333C4.87049 17.4236 4.875 17.516 4.875 17.6105C4.875 18.1301 4.68913 18.5749 4.31738 18.945C3.94565 19.315 3.49879 19.5 2.97678 19.5Z" fill="var(--fill-0, #7367F0)"/>
</g>
</svg>
