<svg preserveAspectRatio="none" width="100%" height="100%" overflow="visible" style="display: block;" viewBox="0 0 24 23.5789" fill="none" xmlns="http://www.w3.org/2000/svg">
<g id="Group">
<path id="Vector" d="M10.4016 14.0599L14.3297 11.7941L10.4016 9.52829V14.0599Z" fill="var(--fill-0, #82868B)"/>
<path id="Vector_2" d="M12 0C5.37188 0 0 5.27763 0 11.7895C0 18.3013 5.37188 23.5789 12 23.5789C18.6281 23.5789 24 18.3013 24 11.7895C24 5.27763 18.6281 0 12 0ZM18 13.8987C18 15.9296 15.9328 15.9296 15.9328 15.9296H8.06719C6 15.9296 6 13.8987 6 13.8987V9.68487C6 7.65395 8.06719 7.65395 8.06719 7.65395H15.9328C18 7.65395 18 9.68487 18 9.68487V13.8987Z" fill="var(--fill-0, #82868B)"/>
</g>
</svg>
