<svg width="48" height="48" viewBox="0 0 48 48" fill="none" xmlns="http://www.w3.org/2000/svg">
<path fill-rule="evenodd" clip-rule="evenodd" d="M16.7417 21.6539C18.8179 21.654 20.5009 23.3345 20.501 25.4075C20.501 27.4806 18.8179 29.1612 16.7417 29.1612C14.6654 29.1612 12.9823 27.4806 12.9823 25.4075C12.9823 23.3345 14.6655 21.6539 16.7417 21.6539ZM15.1749 22.6956C14.6846 22.6956 14.2873 23.0924 14.2873 23.5818C14.2873 24.0713 14.6846 24.4681 15.1749 24.4681C15.6651 24.4681 16.0625 24.0713 16.0625 23.5818C16.0625 23.0924 15.6651 22.6956 15.1749 22.6956Z" fill="#49454E"/>
<path fill-rule="evenodd" clip-rule="evenodd" d="M31.4132 21.6539C33.4894 21.654 35.1725 23.3345 35.1725 25.4075C35.1725 27.4806 33.4895 29.1612 31.4132 29.1612C29.337 29.1612 27.6539 27.4806 27.6539 25.4075C27.6539 23.3345 29.337 21.6539 31.4132 21.6539ZM29.8994 22.6956C29.4092 22.6956 29.0118 23.0924 29.0118 23.5818C29.0118 24.0713 29.4092 24.4681 29.8994 24.4681C30.3896 24.4681 30.787 24.0713 30.787 23.5818C30.787 23.0924 30.3896 22.6956 29.8994 22.6956Z" fill="#49454E"/>
<path d="M17.7343 35.4172C17.7343 35.4172 16.3246 35.9386 14.6537 35.0523C14.6537 35.0523 13.4006 34.531 12.6697 36.7206C12.6174 36.7206 11.782 35.9907 12.0953 34.2182C12.0953 34.2182 12.3042 33.749 11.3643 33.8532C11.3643 33.8532 9.11919 34.5831 8.80591 35.0002C8.80591 35.0002 9.64132 33.749 9.5891 32.9148C9.5891 32.9148 9.5891 32.602 8.7537 32.6542C8.7537 32.6542 6.97846 32.6542 6.24749 32.1328C6.35191 32.1328 7.29174 31.2987 7.39617 30.5688C7.39617 30.5688 7.60502 29.474 6.61297 29.5261C6.61297 29.5261 5.41208 29.5262 4.6811 30.256C4.6811 30.256 4.42004 28.7963 6.03863 27.5972C6.03863 27.5972 6.40412 27.3887 5.98642 27.1801C5.98642 27.1801 4.15897 26.6067 3.74127 24.4692C3.74127 24.4692 4.47225 25.4076 5.20323 25.0427C5.20323 25.0427 5.35987 24.9905 5.41208 24.782C5.41208 24.782 5.35987 23.5308 3.74127 23.0095C3.74127 23.0095 4.2634 22.436 5.46429 22.3317C5.46429 22.3317 6.2997 22.0711 5.882 21.4976C5.882 21.4976 5.30766 20.872 4.94217 20.6634C4.94217 20.6634 6.24749 20.7156 6.66519 20.4549C6.61297 20.4549 4.83774 20.2464 5.15102 17.2226C5.15102 17.2226 6.45634 19.0994 7.03068 17.7961C6.97846 17.6918 7.23953 16.9098 6.09085 16.2842C6.09085 16.2842 6.82183 15.1373 9.01476 15.0852C9.01476 15.0852 10.059 14.8245 9.1714 13.9382C9.1714 13.9382 10.6334 13.6775 11.2599 14.3032C11.2599 14.251 10.9988 12.9998 11.6776 11.2794C11.6776 11.2794 11.4688 14.4074 11.9387 15.6065C11.8865 15.5544 11.1555 14.5638 10.2157 14.1989C10.2157 14.1989 10.6856 15.815 9.01476 15.8672C9.01476 15.8672 7.65723 15.6065 7.03068 16.1278C7.03068 16.1278 8.02272 17.9525 7.23953 18.7345C7.23953 18.7345 6.50855 19.3601 5.62093 18.4738C5.62093 18.4738 5.51651 19.9336 7.44838 20.3506C7.44838 20.3506 7.1351 21.1326 6.14306 21.1326C6.14306 21.1326 6.97846 21.9146 6.35191 22.5403C6.35191 22.5403 5.72536 23.0616 4.94217 23.0616C4.94217 23.0616 6.2997 23.8436 6.14306 25.0948C6.14306 25.0948 5.72536 26.0853 4.57668 25.7204C4.57668 25.7204 5.30766 26.346 6.50855 26.7631C6.50855 26.7631 7.23953 27.2323 6.92625 27.7536C6.92625 27.7536 5.77757 28.1707 5.46429 29.3176C5.46429 29.3176 7.1351 28.4835 7.91829 29.1091C7.91829 29.1091 8.44042 30.621 7.18732 31.8722C7.18732 31.8722 9.64132 32.2892 10.6334 32.1328C10.6334 32.1328 10.3201 33.4883 10.059 33.8532C10.2157 33.8011 12.0431 33.0191 13.1918 33.2798C13.1918 33.2798 12.3564 34.8959 12.4608 35.4694C12.4608 35.4694 13.9228 33.9575 15.1237 34.166C15.1759 34.1139 14.7582 35.0523 17.7343 35.4172Z" fill="#49454E"/>
<path d="M30.1091 35.6779C30.1091 35.6779 31.1533 36.5642 33.3985 36.0428C33.3985 36.0428 33.7117 35.9386 33.9206 35.7822C33.9206 35.7822 34.3383 35.4172 34.3383 36.1471C34.3383 36.1471 35.8525 35.8343 36.0613 34.2182C36.0613 34.2182 36.1657 33.5926 36.8445 34.0618C36.8445 34.0618 37.21 34.3746 37.4189 35.2087C37.4189 35.2087 38.2543 33.8532 37.8366 32.5499C37.8366 32.5499 37.8366 32.2892 38.0976 32.3414C38.0976 32.3414 40.0295 32.9148 40.9171 32.1328C40.9171 32.1328 39.8729 31.5594 40.1339 30.2039C40.1339 30.2039 40.3428 29.7868 41.126 30.0475C41.126 30.0475 41.9614 30.3603 42.0658 30.7774C42.0658 30.7774 42.3791 29.2133 41.1782 28.0664C41.1782 28.0664 40.8649 27.7015 41.387 27.4408C41.387 27.4408 43.1623 26.7109 43.4233 25.3555C43.4233 25.3555 42.3269 25.8247 41.9091 24.6777C41.9091 24.6777 42.4835 23.218 44.2587 23.6872C44.2587 23.6872 43.7366 22.3839 41.2826 21.9146C41.2826 21.9146 40.8127 21.7582 41.2826 21.0805L42.0658 20.09C42.0658 20.09 40.9693 20.6634 40.4472 20.4028C40.4472 20.4028 40.2906 20.3506 40.5516 20.2464C40.5516 20.2464 42.3269 19.4644 42.118 17.1184C42.118 17.1184 40.5516 18.2653 39.8206 17.1705C39.8206 17.1705 39.5596 16.4928 41.0215 15.8672C41.0215 15.8672 40.3428 14.4074 36.6357 14.8245C36.6357 14.8245 37.2622 12.7913 36.0613 11.2794C36.0613 11.2794 37.0534 14.5117 35.8003 15.6586C35.8003 15.6586 38.1498 14.6681 40.4472 15.7629C40.4472 15.7629 39.0374 15.7629 39.5074 17.5354C39.5074 17.5354 40.0295 18.3696 41.7003 18.0046C41.7003 18.0046 40.8127 19.7772 39.7684 20.4028C39.7684 20.4028 40.5516 20.872 41.0737 20.8198C41.0215 20.9241 40.395 21.9146 40.1861 22.0189C40.1861 22.0189 41.8047 22.2275 42.9012 23.1137C42.9012 23.1137 41.8569 23.3744 41.387 24.782C41.387 24.782 41.9614 25.8247 42.5357 25.9811C42.5357 25.9289 41.3348 27.128 40.3428 27.4408C40.395 27.5451 41.4914 29.3176 41.7003 29.9953C41.7003 29.9953 40.8127 29.2133 39.7162 29.839C39.7162 29.839 39.2985 31.0902 39.8206 32.0286C39.8206 32.0286 38.4109 32.185 37.3666 31.7679C37.3666 31.7679 37.4711 33.6447 37.3144 34.1139C37.3144 34.1139 36.4268 33.3319 35.5914 33.4362C35.5914 33.4362 35.4348 35.1044 34.8082 35.313C34.8082 35.313 34.4427 34.8438 33.9728 34.6874C34.2339 34.6874 32.6153 36.3035 30.1091 35.6779Z" fill="#49454E"/>
<path fill-rule="evenodd" clip-rule="evenodd" d="M11.729 11.2794C11.7382 11.2886 15.0779 14.6164 20.3963 14.9288C20.3963 14.9288 20.3963 13.6775 21.7538 12.9477C21.7534 12.9498 21.5457 13.9907 22.2759 14.3553C22.2782 14.3566 22.5379 14.5099 22.7459 14.0946C22.7468 14.0915 23.1632 12.686 22.9025 11.8007C22.9069 11.8036 23.9471 12.4819 24.1556 14.0946C24.1562 14.0983 24.2609 14.719 24.5733 14.3031C24.5757 14.2965 25.0445 12.999 25.5653 12.687C25.5653 12.687 25.1998 14.0946 25.8264 14.7724C25.8287 14.7744 26.1924 15.0851 26.3485 15.0851C26.3642 15.0845 32.5664 14.8201 36.1645 11.3315C36.1685 11.3367 37.2075 12.6913 36.53 14.9288C36.5393 14.9274 39.7688 14.4617 40.8637 15.9714C40.8615 15.972 39.8715 16.2329 39.7672 16.9619C39.7672 16.9619 39.7672 17.5875 40.4982 17.6918C40.5034 17.6926 41.544 17.8469 42.169 17.3269C42.1696 17.3323 42.4277 19.4654 40.5504 20.2985C40.5504 20.2985 40.2371 20.3506 40.446 20.507C40.4518 20.5074 41.2317 20.558 41.9079 20.2464C41.9079 20.2464 41.4903 20.7156 41.2814 21.0284C41.2814 21.0284 40.7593 21.4976 41.2292 21.9146C41.2372 21.9164 43.8405 22.4899 44.2575 23.635C44.2575 23.635 42.5345 23.1137 41.8035 24.6256C41.8041 24.6281 42.0661 25.6679 43.3177 25.4076C43.3177 25.4076 43.3177 26.6067 41.177 27.3887C41.177 27.3887 40.8637 27.5972 41.0203 28.0664C41.0257 28.0717 42.1686 29.2166 42.0124 30.6209C42.0124 30.6209 41.5424 30.0475 40.707 29.8911C40.707 29.8911 39.8716 29.6826 39.8194 30.5688C39.8195 30.5705 39.9244 31.716 40.707 32.0807C40.707 32.0807 40.0805 32.6541 37.8353 32.1849C37.8343 32.1844 37.5222 32.0293 37.6265 32.4978C37.6274 32.5014 37.939 33.6987 37.4699 34.8959C37.4695 34.8946 37.2605 34.0094 36.6866 33.7489C36.6831 33.7461 36.1633 33.3343 35.799 34.0096C35.799 34.0096 35.5902 35.5736 34.3371 36.095C34.3372 36.0938 34.3889 35.6776 34.1282 35.4694C34.1264 35.4679 33.6573 35.106 33.1362 35.8864C33.1884 35.9386 33.1884 35.9907 33.2406 36.0429C33.1884 36.095 33.0317 36.095 32.7707 36.1471C31.0477 36.3557 30.2123 35.9907 28.2282 34.7916C26.6103 33.8413 25.4261 31.765 25.229 31.4046C25.6944 30.7411 26.1239 29.9133 26.1916 29.0562C26.1877 29.0487 25.0942 26.9721 23.9481 26.6064V26.6059C23.9478 26.606 23.9476 26.6061 23.9473 26.6061C23.947 26.6061 23.9468 26.606 23.9465 26.6059V26.6064C22.8001 26.9722 21.6543 29.0498 21.6508 29.0562C21.716 29.9026 22.1342 30.7038 22.5963 31.3508H22.5892C22.3281 31.8721 22.0148 32.2892 21.7538 32.6542C21.1794 33.4362 20.6051 33.9575 20.1352 34.2703C19.2476 34.948 18.2555 35.313 17.4201 35.5215C15.906 35.9385 14.914 35.313 14.7051 35.1566C14.7051 35.0523 14.8095 34.4267 14.0785 34.6874C13.9741 34.7395 13.0343 35.2087 12.6166 36.512C12.5643 36.3556 12.0944 35.2608 12.3033 34.0096C12.2512 34.0095 12.5642 33.4883 11.5723 33.5926C11.5649 33.5942 9.63932 34.0106 9.06607 34.5309C9.0698 34.5265 9.90137 33.5387 9.84929 32.7585C9.84945 32.7573 9.90007 32.3935 9.01389 32.3935C9.01389 32.3935 7.23866 32.3935 6.50767 31.9765C6.51138 31.9727 7.55194 30.9328 7.55194 30.4124C7.55365 30.4061 7.86156 29.2657 6.55986 29.3176C6.55299 29.3192 5.20143 29.6315 4.83686 30.0475C4.83686 30.0475 4.83688 28.9006 5.30678 28.4835C5.30988 28.4804 6.03821 27.7531 6.24662 27.493C6.2495 27.4913 6.61 27.2831 6.08999 26.9716C6.08999 26.9716 4.21032 26.7631 3.84483 24.6256C3.84777 24.6292 4.6819 25.6667 5.62007 24.782C5.62016 24.78 5.6709 23.5304 3.94926 23.0094C3.95342 23.0057 4.47429 22.5398 5.20235 22.436C5.2073 22.4363 6.14258 22.4866 6.2988 21.9146C6.29953 21.9106 6.39857 21.339 5.09791 20.7156C5.10405 20.7165 6.56054 20.9233 6.87316 20.5592C6.87032 20.5585 5.04583 20.1399 5.20235 17.3269C5.2055 17.3317 6.09148 18.6816 6.9254 18.2653C6.93037 18.263 7.4981 18.0005 7.13421 17.0662C7.13234 17.0633 6.76766 16.4924 6.35105 16.3364C6.35343 16.3316 6.93016 15.1896 9.22275 15.2937C9.23037 15.2923 10.4203 15.082 9.37937 14.0946C9.38494 14.0939 10.5823 13.9397 11.4679 14.5638C11.4664 14.5587 10.9991 12.945 11.729 11.2794ZM14.8633 17.4832C10.9416 17.4832 7.76239 20.6576 7.76239 24.5734C7.7624 28.4892 10.9416 31.6635 14.8633 31.6635C18.785 31.6635 21.9642 28.4892 21.9642 24.5734C21.9642 20.6576 18.785 17.4832 14.8633 17.4832ZM33.1376 17.4832C29.2159 17.4832 26.0367 20.6576 26.0367 24.5734C26.0367 28.4892 29.2159 31.6635 33.1376 31.6635C37.0594 31.6635 40.2386 28.4892 40.2386 24.5734C40.2386 20.6576 37.0594 17.4832 33.1376 17.4832Z" fill="#49454E"/>
</svg>
