<svg width="60" height="70" viewBox="0 0 60 70" fill="none" xmlns="http://www.w3.org/2000/svg">
<path fill-rule="evenodd" clip-rule="evenodd" d="M13.9031 0.000921634H13.8984C11.2539 -0.0267426 9.69784 0.718346 9.67244 0.731256C5.73816 2.1283 5.26589 5.91276 5.23203 6.22537C3.16234 8.33799 1.5875 10.8628 0.739872 13.478C-0.127513 16.1568 -0.237583 18.9186 0.437887 21.3669C0.658026 22.2973 1.12653 23.699 2.15478 25.5165L2.15008 25.5082C2.15008 25.5082 2.26485 25.736 2.41349 26.0615C2.19994 30.6722 4.36088 33.5576 4.60924 33.8739C4.76874 34.3765 4.98389 34.8604 5.25084 35.317V35.3226C6.1521 36.774 7.59147 37.8658 9.42408 38.5123C11.2567 39.1587 13.4816 39.3689 15.9361 39.143C20.8497 38.6948 26.6824 36.4485 31.85 33.0458C37.0177 29.6431 41.4524 25.1246 43.9172 20.7242C46.382 16.3237 46.8665 12.0496 45.0866 9.1338L45.0358 9.05173V9.04712C44.3799 8.04026 43.481 7.20731 42.4186 6.62189C39.0949 4.0399 34.0307 3.86653 31.6346 3.92739C30.4878 3.74297 28.1001 3.23856 25.9844 2.08311C25.96 2.06963 25.9341 2.0591 25.9072 2.05176C23.3672 0.519165 20.13 -0.0922144 16.8119 0.320904C15.8565 0.123307 14.884 0.0158485 13.9078 0L13.9031 0.000921634Z" fill="#C19C03"/>
<path fill-rule="evenodd" clip-rule="evenodd" d="M4.2072 32.3077C6.15066 20.7663 16.987 13.4975 16.987 13.4975C30.0028 4.56372 41.5385 6.48224 41.5385 6.48224C41.5385 6.48224 37.8771 4.48337 31.8998 4.22983C31.8998 4.22983 28.3815 3.88791 25.3616 2.30774C25.3616 2.30774 6.57991 5.1324 7.25148e-06 19.4137C7.25148e-06 19.4137 -0.0189449 21.2778 1.88092 24.5096C1.88092 24.5096 3.44157 27.2289 4.2072 32.306V32.3077Z" fill="#D4AA00"/>
<path d="M28.8588 3.48167C34.3334 8.7537 33.1657 18.1349 26.2419 24.5038C19.3181 30.8727 9.22625 31.8472 3.6287 26.6889C-1.96884 21.5307 -0.981568 12.1667 5.83818 5.70504C12.6579 -0.756612 22.7716 -1.89747 28.491 3.14601" fill="#D4AA00"/>
<path fill-rule="evenodd" clip-rule="evenodd" d="M4.49135 34.6154C4.62605 29.8673 7.64634 25.0696 7.64634 25.0696C12.1679 16.6603 21.7872 11.2779 21.7872 11.2779C31.2419 5.13982 41.5384 6.81785 41.5384 6.81785C37.2946 3.32498 29.6929 4.13912 29.6929 4.13912C25.4782 4.64521 23.8796 3.60433 23.8796 3.60433C23.3278 3.27715 21.2344 2.20661 21.2344 2.20661C13.9675 -1.65554 9.31691 0.726615 9.31691 0.726615C5.42204 2.15399 5.10776 6.22183 5.10776 6.22183C11.6853 0.756273 17.0486 5.72149 17.0486 5.72149C19.113 7.33542 15.7073 8.83933 15.7073 8.83933C11.5534 10.5901 8.40025 14.3355 8.40025 14.3355C3.79544 19.2969 2.75157 23.735 2.75157 23.735C1.12404 30.3361 4.4951 34.6154 4.4951 34.6154H4.49135Z" fill="#FFCC00"/>
<path d="M45.168 10.5824C48.5456 16.2286 42.9651 26.3869 32.6964 33.2895C22.4277 40.192 11.3463 41.2302 7.93203 35.6144C4.51777 29.9987 10.0482 19.8385 20.3062 12.9137C30.5642 5.98881 41.6643 4.91127 45.1215 10.4993" fill="#AA8800"/>
<path d="M43.1769 11.5792C45.798 15.6351 40.4865 23.5433 31.3138 29.2559C22.1411 34.9685 12.5676 36.3293 9.91665 32.2957C7.26569 28.262 12.5317 20.3598 21.6938 14.6309C30.856 8.90204 40.4488 7.51131 43.1392 11.5219" fill="black"/>
<path d="M27.6924 3.55787C27.6395 5.45649 26.0651 6.95814 24.166 6.92245C22.2668 6.88677 20.7504 5.33308 20.7695 3.42703C20.7885 1.52098 22.3343 -0.00296922 24.2335 4.34414e-06C26.1327 0.00297791 27.6768 1.53436 27.6915 3.43447" fill="#D4AA00"/>
<path d="M27.6878 3.55745C27.6355 5.45666 26.0618 6.95761 24.1626 6.92247C22.2634 6.88733 20.7475 5.32614 20.7695 3.42693C20.7915 1.52773 22.3349 -0.00167194 24.2342 1.37175e-06C26.1334 0.00167468 27.6768 1.53442 27.6924 3.43363" fill="#FFCC00"/>
<path fill-rule="evenodd" clip-rule="evenodd" d="M20.7713 6.34184C20.7257 6.34184 21.4568 5.46161 21.4568 5.46161C23.6941 5.98726 24.6223 6.15653 26.0468 5.28343C27.3466 4.32479 26.6933 2.79775 26.6933 2.79775L27.1346 2.30774C27.592 2.64094 27.6832 3.48198 27.6832 3.48198C27.6832 3.48198 28.2345 8.62974 20.7713 6.33293V6.34184Z" fill="#D4AA00"/>
<path d="M13.5277 43.868C13.3688 43.8311 13.2029 43.8412 13.0493 43.8972C12.1143 44.2546 11.9543 46.4429 12.652 49.3236C10.0155 47.7006 7.88651 47.2257 7.17372 48.1037C6.15772 49.3663 8.32248 52.9474 12.0079 56.1117C15.6934 59.2761 19.505 60.8204 20.521 59.5616C21.1895 58.7312 20.4852 56.8334 18.6811 54.6082C18.6058 53.2242 18.2291 51.5167 17.6246 49.8228C16.4777 46.6177 14.764 44.1235 13.5267 43.87L13.5277 43.868Z" fill="#194145"/>
<path d="M20.1949 36.9597C23.3931 30.8961 29.5986 32.4995 29.5986 32.4995C38.7354 34.6045 44.0983 39.6923 44.0983 39.6923C50.7341 44.5016 53.0271 54.4345 53.0271 54.4345C53.5723 58.5512 49.4689 59.6201 49.4689 59.6201C47.1322 61.4513 43.0031 59.9024 42.6859 59.861C36.3037 57.519 32.4111 63.5647 32.4111 63.5647C30.2264 66.6953 27.2144 66.8233 27.2144 66.8233C22.7947 67.6014 18.4443 63.5722 18.4443 63.5722C11.5264 56.8377 14.4672 49.1998 14.4672 49.1998C14.4672 49.1998 15.1026 46.8531 16.8238 44.2494C18.7995 41.1244 18.9059 39.6386 20.1949 36.9597Z" fill="#225054"/>
<path d="M37.0321 60.65C39.9318 60.4648 42.0895 57.269 41.8514 53.5119C41.6133 49.7549 39.0696 46.8593 36.1699 47.0445C33.2701 47.2297 31.1124 50.4255 31.3505 54.1825C31.5886 57.9396 34.1323 60.8351 37.0321 60.65Z" fill="#BCB9A8"/>
<path d="M26.5648 32.3309C25.5464 32.3937 24.548 32.6422 23.6187 33.0643C23.3237 34.3069 23.2607 35.6238 23.3556 36.9455C23.3256 36.9862 23.2979 37.0287 23.2729 37.0726C22.9045 37.7193 23.0652 38.7831 23.6723 39.4515C24.6769 44.5283 27.3927 48.9593 27.3927 48.9593C28.0787 50.4438 27.6248 51.6272 27.6248 51.6272C26.8655 53.8864 28.6153 54.9643 28.6153 54.9643C30.5709 56.3368 32.4682 53.9081 32.4682 53.9081C34.7602 56.1674 36.6923 53.2491 36.6923 53.2491C36.6923 53.2491 39.8009 55.0377 40.3309 51.6055C40.3309 51.6055 43.2074 52.8801 43.7807 50.6284C43.7807 50.6284 44.1227 49.141 43.2431 48.0424C42.8157 47.5563 42.3521 47.1034 41.8561 46.6878C41.8561 46.6878 40.4653 45.3699 40.1505 43.3647C40.1505 43.3647 39.8545 37.8003 36.1735 34.0631C34.1738 33.1104 31.7145 33.1358 28.9978 32.5032C28.2006 32.3283 27.3823 32.2703 26.5685 32.3309H26.5648Z" fill="#D6D4C8"/>
<path d="M41.9075 58.0219C41.9075 58.0219 42.6799 52.2169 39.2307 39.2307L40.6214 39.2387C40.6214 39.2387 42.9354 41.4536 43.0737 41.7007C43.2119 41.9478 44.2248 44.7062 44.7618 46.7346C45.2988 48.763 46.2271 52.4309 46.1492 53.4731C46.0713 54.5153 45.5627 56.4145 45.2653 56.8721C44.9679 57.3297 42.5366 59.9999 42.5366 59.9999L41.8714 59.2803L41.9075 58.0219Z" fill="#225054"/>
<path fill-rule="evenodd" clip-rule="evenodd" d="M34.4766 35.4778C34.4766 35.4778 33.2527 32.8365 32.3095 32.5078C32.3095 32.5078 28.9642 31.1988 27.7256 35.2763C27.7256 35.2763 27.3992 36.6508 28.792 39.3577C28.792 39.3577 30.7878 42.4882 32.028 43.5731C32.028 43.5731 32.5502 44.2726 32.9761 43.4322C32.9761 43.4322 34.6373 37.947 34.6079 36.8846C34.6346 36.41 34.5902 35.9336 34.4766 35.4778Z" fill="#BCB9A8"/>
<path d="M23.4317 41.5385C23.4317 41.5385 28.4696 39.2202 30.0001 35.9788L27.7415 34.6154L20.7693 38.9219L23.4317 41.5385Z" fill="#BCB9A8"/>
<path d="M35.3148 37.7349C35.3148 37.7349 36.7227 40.5462 39.2309 41.5385C39.2309 41.5385 38.638 39.7434 38.3404 38.9814C38.0428 38.2195 36.9022 34.7179 36.9022 34.7179L35.2798 34.6154L34.6155 36.5461L35.3148 37.7349Z" fill="#BCB9A8"/>
<path d="M13.8462 55.3846C14.2469 57.8691 15.4557 60.8066 18.4191 63.5897C18.4191 63.5897 22.9059 67.5973 27.4641 66.824C27.4641 66.824 27.5503 66.8184 27.6923 66.8006C27.5611 65.8121 27.4308 64.8759 27.4308 64.8759C18.2545 63.688 14.8376 57.7071 13.8462 55.3846Z" fill="#194145"/>
<path d="M48.9079 61.4791C48.9079 61.4791 53.9585 62.1046 56.1611 58.9174C56.1611 58.9174 57.3774 57.4674 57.4649 55.8565C57.4649 55.8565 57.8561 53.9746 54.9392 55.2844C54.9392 55.2844 56.895 54.14 57.1278 51.9355C57.1278 51.9355 57.2768 50.3087 56.1732 50.0367C56.1732 50.0367 55.4859 49.774 54.4968 50.5687C54.4968 50.5687 55.321 49.4028 55.0184 48.2641C55.0184 48.2641 54.4754 46.1484 52.1517 47.5788C52.1517 47.5788 48.7161 49.8684 47.2092 55.6237C47.2092 55.6237 45.3232 59.8449 48.9042 61.4791H48.9079Z" fill="#FAB84A"/>
<path d="M53.2911 50.4641C54.0834 49.7356 54.3492 48.7323 53.8847 48.2232C53.4201 47.7142 52.4013 47.8921 51.6089 48.6207C50.8166 49.3493 50.5509 50.3526 51.0154 50.8616C51.4799 51.3707 52.4988 51.1927 53.2911 50.4641Z" fill="#E9934C"/>
<path d="M54.8044 53.7979C55.5484 53.1649 55.8243 52.2642 55.4206 51.7859C55.0169 51.3077 54.0865 51.4332 53.3425 52.0661C52.5985 52.699 52.3226 53.5998 52.7263 54.078C53.13 54.5562 54.0604 54.4308 54.8044 53.7979Z" fill="#E9934C"/>
<path d="M55.1422 58.3304C55.7873 57.7936 56.0328 57.0224 55.6905 56.6078C55.3481 56.1931 54.5476 56.292 53.9025 56.8288C53.2574 57.3655 53.0119 58.1367 53.3542 58.5514C53.6965 58.966 54.497 58.8671 55.1422 58.3304Z" fill="#E9934C"/>
<path opacity="0.45" d="M35.805 53.9545C35.9903 53.9427 36.131 53.7823 36.1192 53.5963C36.1074 53.4102 35.9476 53.269 35.7623 53.2808C35.577 53.2927 35.4363 53.4531 35.4481 53.6391C35.4599 53.8251 35.6197 53.9663 35.805 53.9545Z" fill="#F4D7D7"/>
<path d="M30.0001 55.3846C31.2746 55.3846 32.3078 53.3182 32.3078 50.7692C32.3078 48.2202 31.2746 46.1538 30.0001 46.1538C28.7256 46.1538 27.6924 48.2202 27.6924 50.7692C27.6924 53.3182 28.7256 55.3846 30.0001 55.3846Z" fill="#194145"/>
<path fill-rule="evenodd" clip-rule="evenodd" d="M28.7571 35.5663C28.7571 35.5663 24.8221 42.2225 16.5998 43.7381C16.5998 43.7381 13.0714 44.7715 8.28324 40.4467C8.28324 40.4467 3.36514 37.0895 4.368 31.8669C4.368 31.8669 2.97927 33.3322 3.17766 35.0005C3.17766 35.0005 3.33935 35.9127 2.31764 35.306C2.31764 35.306 -2.02017 30.214 3.00109 25.5136C3.00109 25.5136 1.80182 25.4658 1.08563 26.1903C1.08563 26.1903 0.225611 27.129 0.00440566 25.9301C0.00440566 25.9301 -0.366585 21.9995 5.70019 20.3875C5.70019 20.3875 2.30375 17.9016 5.601 14.3405C5.601 14.3405 6.77844 18.4102 12.5814 16.4739C12.5814 16.4739 11.0845 11.3034 16.5879 8.90031C16.5879 8.90031 17.0898 13.5324 20.8979 13.3233C20.8979 13.3233 25.9747 13.046 31.8401 6.92307C31.8401 6.92307 32.7061 9.29627 31.9611 11.4391C31.9611 11.4391 34.2783 9.02746 34.5343 7.46068C34.5343 7.46068 36.9001 9.29542 36.9407 11.9886C36.9407 11.9886 43.6334 12.033 47.6955 8.79535C47.6955 8.79535 48.8858 11.2428 47.8006 13.8148C47.8006 13.8148 50.6465 13.5213 52.0908 10.7931C52.0908 10.7931 54.3415 12.4998 52.4618 15.7972C52.4618 15.7972 58.5236 15.9227 59.5285 20.8918C59.5285 20.8918 59.7487 21.8766 58.8619 21.5745C58.8619 21.5745 57.731 21.0061 56.6409 20.9848C56.6409 20.9848 60.0631 23.1054 59.9947 25.7585C59.9947 25.7585 60.2258 28.1667 57.6388 29.0867C57.6388 29.0867 59.5374 32.5001 56.5863 35.6763C56.5863 35.6763 56.008 36.4623 55.4853 35.5057C55.4853 35.5057 55.4059 35.1447 55.0637 35.1865C55.0637 35.1865 53.8575 38.134 50.9967 39.6607C50.9967 39.6607 47.7074 42.6108 43.2694 40.753C43.2694 40.753 39.8194 40.497 36.9893 35.2633C36.0623 33.9434 34.6783 32.9062 33.0314 32.297C33.0314 32.297 30.7877 31.8618 28.7661 35.5731L28.7571 35.5663Z" fill="#225054"/>
<path d="M15.3709 6.92307C10.4967 9.52478 11.86 14.8205 11.86 14.8205C6.3902 16.8782 5.28035 12.5574 5.28035 12.5574C2.1752 16.335 5.37385 18.9721 5.37385 18.9721C-0.344634 20.6812 0.00412189 24.8517 0.00412189 24.8517C0.212628 26.1191 1.02328 25.1278 1.02328 25.1278C1.69929 24.3593 2.82877 24.41 2.82877 24.41C-1.90422 29.3961 2.18455 34.7978 2.18455 34.7978C3.14761 35.4414 2.9952 34.4737 2.9952 34.4737C2.8082 32.7039 4.11721 31.1496 4.11721 31.1496C3.17192 36.6898 7.55054 40.5344 7.55054 40.5344C12.2798 44.7412 15.6458 43.7427 15.6458 43.7427C23.397 42.134 27.1062 35.0739 27.1062 35.0739C27.9149 33.4046 29.0089 32.7628 30 32.5754C29.7709 31.6357 29.4203 30.2425 29.3072 30.0552C29.1379 29.7727 28.4974 29.2268 27.6597 29.1318C26.8219 29.0367 26.5442 30.5205 26.5442 30.5205C26.5442 30.5205 25.2614 37.4738 17.9973 40.2855C9.83569 42.994 5.39816 35.6687 5.04099 29.3762C5.04099 29.3762 3.71983 29.6134 3.33461 30.2579C3.2944 29.6396 3.0298 24.5801 5.61602 23.1064C5.61602 23.1064 3.67962 22.9697 2.99801 23.4875C2.99801 23.4875 4.12001 20.4549 7.29435 19.8565C7.29435 19.8565 6.17235 18.9015 6.21162 17.1787C6.21162 17.1787 10.9708 17.7273 13.1204 15.3628C13.1204 15.3628 11.1699 10.6165 15.3728 6.92578L15.3709 6.92307Z" fill="#194145"/>
<path d="M47.9064 6.92307C47.8947 6.93381 47.8811 6.94367 47.8684 6.95442V6.96965C48.4338 10.3038 46.4704 13.3298 46.4704 13.3298C51.3106 13.4302 52.2299 9.02193 52.2309 9.02103C50.8125 11.8876 48.0156 12.1931 48.0156 12.1931C49.0811 9.49312 47.9123 6.92396 47.9123 6.92396L47.9064 6.92307ZM52.5955 14.2633L52.5692 14.2803C57.309 15.5962 58.3023 19.1176 58.354 19.2968C56.9278 18.6204 54.7568 19.5843 54.7568 19.5843C58.1688 22.201 57.7847 27.0884 57.7847 27.0884C57.309 26.6549 56.0504 26.9845 56.0504 26.9845C57.7077 30.0114 56.2015 34.4009 56.2015 34.4009C55.5903 33.617 53.9876 33.4038 53.9876 33.4038C50.4186 40.3911 42.8966 39.343 39.7468 33.901C39.7468 33.901 38.2904 30.9888 35.6641 29.0915C35.5686 28.8689 35.3977 28.6804 35.1766 28.554C34.8296 28.3694 34.2993 28.3569 34.0068 28.9374C33.7143 29.5179 32.8126 29.7767 32.4353 30.7711C32.3566 30.9901 32.3136 31.2186 32.3076 31.4492C33.5496 31.3435 33.496 31.5836 33.496 31.5836C36.1788 32.6317 36.5395 33.7272 36.5395 33.7272C42.0738 44.2296 51.1712 43.7539 55.1477 34.623C55.485 34.5791 55.563 34.9581 55.563 34.9581C56.0758 35.9596 56.6451 35.1372 56.6451 35.1372C59.5453 31.803 57.6794 28.2198 57.6794 28.2198C60.2218 27.256 59.9947 24.7262 59.9947 24.7262C60.062 21.9412 56.6977 19.7151 56.6977 19.7151C57.7701 19.7375 58.8814 20.3332 58.8814 20.3332C59.752 20.6557 59.5365 19.6219 59.5365 19.6219C58.549 14.4057 52.5906 14.2749 52.5906 14.2749C52.5906 14.2749 52.5906 14.2677 52.5906 14.2642L52.5955 14.2633Z" fill="#194145"/>
<path d="M27.1548 27.6894C30.1312 23.0441 29.4073 17.2528 25.5377 14.7543C21.6681 12.2557 16.1183 13.996 13.1418 18.6412C10.1654 23.2865 10.8893 29.0778 14.7589 31.5764C18.6285 34.075 24.1783 32.3347 27.1548 27.6894Z" fill="#1A4346"/>
<path d="M26.091 29.8258C29.0675 25.1805 28.3435 19.3893 24.474 16.8907C20.6044 14.3921 15.0546 16.1324 12.0781 20.7777C9.10164 25.423 9.82562 31.2142 13.6952 33.7128C17.5647 36.2114 23.1146 34.4711 26.091 29.8258Z" fill="#D6D4C8"/>
<path d="M22.4551 33.0276C25.5931 31.706 27.0741 28.0914 25.7629 24.9541C24.4518 21.8169 20.845 20.345 17.707 21.6666C14.569 22.9882 13.088 26.6028 14.3992 29.74C15.7103 32.8773 19.3171 34.3492 22.4551 33.0276Z" fill="#FAB84A"/>
<path d="M22.1714 32.3419C24.9314 31.1795 26.2341 28.0008 25.0812 25.2421C23.9282 22.4833 20.7562 21.1893 17.9962 22.3516C15.2362 23.514 13.9334 26.6927 15.0864 29.4514C16.2393 32.2102 19.4114 33.5042 22.1714 32.3419Z" fill="#CF7B14"/>
<path d="M21.782 31.546C24.1208 30.561 25.2246 27.8669 24.2473 25.5286C23.2701 23.1903 20.5819 22.0933 18.2431 23.0783C15.9043 24.0633 14.8005 26.7573 15.7778 29.0956C16.755 31.4339 19.4432 32.531 21.782 31.546Z" fill="#201E1E"/>
<path d="M23.211 25.3407C23.9618 25.0245 24.3161 24.1595 24.0023 23.4086C23.6885 22.6577 22.8254 22.3054 22.0746 22.6216C21.3238 22.9378 20.9695 23.8028 21.2833 24.5537C21.5971 25.3046 22.4602 25.6569 23.211 25.3407Z" fill="#FEFEFE"/>
<path d="M45.9253 28.9185C49.304 26.0685 49.2905 20.4698 45.8952 16.4136C42.4998 12.3573 37.0084 11.3795 33.6297 14.2296C30.251 17.0796 30.2644 22.6783 33.6598 26.7345C37.0551 30.7908 42.5466 31.7686 45.9253 28.9185Z" fill="#1A4346"/>
<path d="M47.4038 30.9559C50.7825 28.1058 50.769 22.5072 47.3737 18.4509C43.9784 14.3947 38.4869 13.4168 35.1082 16.2669C31.7295 19.1169 31.7429 24.7156 35.1383 28.7718C38.5336 32.8281 44.0251 33.8059 47.4038 30.9559Z" fill="#D6D4C8"/>
<path d="M42.3598 30.5231C45.3408 29.2676 46.7477 25.834 45.5023 22.8539C44.2568 19.8738 40.8305 18.4757 37.8495 19.7311C34.8685 20.9866 33.4616 24.4202 34.707 27.4004C35.9525 30.3805 39.3788 31.7786 42.3598 30.5231Z" fill="#FAB84A"/>
<path d="M42.0842 29.8831C44.7057 28.779 45.943 25.7596 44.8477 23.1389C43.7525 20.5183 40.7395 19.2889 38.118 20.3929C35.4965 21.497 34.2592 24.5164 35.3545 27.1371C36.4497 29.7577 39.4627 30.9872 42.0842 29.8831Z" fill="#CF7B14"/>
<path d="M41.7293 29.1199C43.9509 28.1842 44.9994 25.6251 44.0711 23.4039C43.1428 21.1828 40.5893 20.1407 38.3676 21.0763C36.146 22.012 35.0975 24.5711 36.0258 26.7923C36.9541 29.0134 39.5076 30.0556 41.7293 29.1199Z" fill="#201E1E"/>
<path d="M43.0803 23.2229C43.7937 22.9225 44.1303 22.1007 43.8323 21.3875C43.5342 20.6743 42.7142 20.3396 42.0009 20.64C41.2875 20.9405 40.9509 21.7622 41.249 22.4755C41.5471 23.1887 42.367 23.5234 43.0803 23.2229Z" fill="#FEFEFE"/>
<path d="M31.9254 6.92307L31.9049 6.93785C31.8683 7.11311 31.1075 10.5307 27.6924 11.5384C27.6924 11.5384 31.394 11.2619 32.0516 9.77927C32.0576 9.76996 32.0644 9.76065 32.0721 9.75079C32.5779 8.59571 32.1344 7.36067 31.9868 7.01234C31.9553 6.95976 31.9365 6.93457 31.9254 6.92307Z" fill="#194145"/>
<path d="M29.151 34.6474C29.9087 33.6134 29.995 32.3853 29.3437 31.9043C28.6924 31.4233 27.5501 31.8716 26.7924 32.9056C26.0347 33.9396 25.9484 35.1677 26.5997 35.6487C27.251 36.1297 28.3933 35.6814 29.151 34.6474Z" fill="#B8475F"/>
<path d="M27.9036 34.6064C28.0078 34.0162 27.7683 33.48 27.3687 33.4089C26.9691 33.3378 26.5607 33.7587 26.4565 34.349C26.3523 34.9392 26.5918 35.4754 26.9914 35.5465C27.391 35.6176 27.7994 35.1967 27.9036 34.6064Z" fill="#CD677E"/>
<path fill-rule="evenodd" clip-rule="evenodd" d="M35.5365 31.9283C35.5365 31.9283 34.1609 29.2956 33.0657 28.945C33.0657 28.945 29.1672 27.5595 27.6156 31.531C27.6156 31.531 27.2011 32.8726 28.7667 35.5754C28.7667 35.5754 31.0345 38.7074 32.4631 39.8143C32.4631 39.8143 33.0592 40.5174 33.5807 39.7031C33.5807 39.7031 35.666 34.36 35.6613 33.3148C35.7029 32.8489 35.6609 32.3793 35.5374 31.9283H35.5365Z" fill="#E9934C"/>
<path fill-rule="evenodd" clip-rule="evenodd" d="M30.7018 28.7902C31.4917 28.6578 32.3016 28.7132 33.0664 28.952C34.8527 29.6999 35.3351 31.1752 35.54 31.9269C35.54 31.9325 35.54 31.997 35.54 31.997C35.54 31.997 35.1749 35.2944 33.031 37.0988C33.031 37.0988 30.3851 35.6722 29.0803 29.4886C29.5572 29.1312 30.1115 28.8919 30.698 28.7902H30.7018Z" fill="#FAB84A"/>
<path d="M34.3696 31.2719C34.5564 30.7808 33.9144 30.0786 32.9355 29.7034C31.9567 29.3282 31.0118 29.4221 30.825 29.9131C30.6382 30.4042 31.2803 31.1064 32.2591 31.4816C33.2379 31.8568 34.1828 31.7629 34.3696 31.2719Z" fill="#FAD28E"/>
<path d="M37.3827 62.5709L24.209 64.5805C23.6925 64.6592 23.1639 64.6043 22.6762 64.4213C22.1884 64.2383 21.7588 63.9338 21.4304 63.5381C21.102 63.1425 20.8864 62.6698 20.8053 62.1675C20.7243 61.6651 20.7805 61.1509 20.9684 60.6764L25.7667 48.5756L30.563 36.4719C30.7508 35.9971 31.0639 35.5787 31.4707 35.259C31.8775 34.9392 32.3637 34.7293 32.8804 34.6504C33.3971 34.5715 33.926 34.6264 34.414 34.8095C34.902 34.9926 35.3317 35.2975 35.6601 35.6935L44.0384 45.7886L52.4157 55.8836C52.7442 56.2792 52.9599 56.752 53.0409 57.2544C53.122 57.7567 53.0657 58.271 52.8776 58.7455C52.6896 59.22 52.3764 59.6379 51.9696 59.9574C51.5628 60.2768 51.0767 60.4864 50.5602 60.5651L37.3827 62.5709Z" fill="#163246"/>
<path d="M37.3077 60.6864L26.0154 62.2771C24.0744 62.5549 22.5408 60.8882 23.2555 59.291L27.415 49.9783L31.5723 40.6664C32.2871 39.0655 34.7138 38.722 35.9401 40.0507L43.076 47.7718L50.2078 55.493C51.4341 56.8198 50.5409 58.8262 48.5999 59.0948L37.3077 60.6864Z" fill="#FFB843"/>
<path d="M36.3279 58.7288C36.2315 57.9088 36.8052 57.1498 37.5929 57.0203C38.3807 56.8908 39.1222 57.4414 39.2196 58.2551C39.316 59.0973 38.7857 59.8436 37.9979 59.9794C37.1851 60.1173 36.4243 59.5478 36.3279 58.7288ZM35.4476 50.4494C35.1728 49.2536 34.9549 48.0283 34.7331 46.7756C34.6744 46.4085 34.6351 46.038 34.6155 45.666C34.6155 44.7849 35.059 44.1438 35.733 43.9375C36.4407 43.6807 37.2285 43.9743 37.565 44.7091C38.5514 46.8219 38.7037 52.1969 38.6921 54.2781C38.6806 56.3592 36.8148 56.7698 36.2652 54.6718C35.9789 53.4538 35.678 51.6527 35.4428 50.4494H35.4476Z" fill="#163246"/>
<path fill-rule="evenodd" clip-rule="evenodd" d="M53.7244 43.9382C53.7244 43.9382 54.9137 42.7228 54.5393 41.183C54.5393 41.183 54.2897 39.2038 52.4168 39.8741C52.4168 39.8741 44.3264 43.8634 40.4725 49.7319C40.4725 49.7319 39.2804 51.4316 40.277 52.4291C40.277 52.4291 41.1422 53.4575 43.0979 53.207C43.0979 53.207 42.3845 54.5158 43.26 55.1908C43.26 55.1908 44.4707 56.2305 46.5997 55.6144C46.5997 55.6144 46.1797 56.294 47.0607 56.5988C47.0607 56.5988 48.7232 56.9728 50.7199 55.8079C50.7199 55.8079 53.5623 54.3962 54.8131 51.2203C54.8131 51.2203 55.5479 49.2111 54.0308 48.6614C54.0308 48.6614 55.2415 47.1207 54.9053 45.7632C54.9053 45.7632 54.6436 44.2748 53.7244 43.941V43.9382Z" fill="#225054"/>
<path fill-rule="evenodd" clip-rule="evenodd" d="M52.7691 39.7979C52.6563 39.8215 52.5452 39.8527 52.4366 39.8914L52.3351 39.9437C54.2443 39.2164 54.141 42.0005 54.141 42.0005C54.0152 43.4263 52.2383 45.7178 52.2383 45.7178C52.3044 45.7028 52.9088 45.514 52.9088 45.514C54.2416 45.0736 54.2397 45.9104 54.2397 45.9104C54.588 47.4548 52.8138 50.2194 52.8138 50.2194C53.2534 50.0698 54.1922 49.0825 54.1922 49.0825C54.6579 49.3228 54.7994 50.1941 54.7994 50.1941C54.9326 51.316 54.073 52.2379 54.073 52.2379C50.9577 55.6971 48.0855 56.2262 46.5674 56.2094C46.6335 56.359 46.7798 56.5067 47.0806 56.6105C47.0806 56.6105 48.743 56.9844 50.7398 55.8205C50.7398 55.8205 53.5822 54.4087 54.8376 51.2328C54.8376 51.2328 55.5733 49.2237 54.0553 48.674C54.0553 48.674 55.266 47.1332 54.9298 45.7757C54.9298 45.7757 54.6681 44.2883 53.7489 43.9545C53.7489 43.9545 54.9391 42.7391 54.5638 41.1993C54.5638 41.1993 54.3449 39.4594 52.7738 39.797L52.7691 39.7979ZM51.5435 47.1538C43.2174 54.2872 39.9354 51.4432 39.9354 51.4432L39.8982 51.4488C39.8932 51.6338 39.9259 51.818 39.9941 51.9899C40.0623 52.1619 40.1647 52.3182 40.2949 52.4492C40.2949 52.4492 41.1592 53.4776 43.115 53.227V53.2345C50.3738 50.6504 51.5444 47.1575 51.5444 47.1575L51.5435 47.1538ZM52.4124 50.598C47.2985 54.8397 44.2168 54.5621 42.8598 54.0488C42.8105 54.4424 42.8719 54.8949 43.2798 55.2109C43.2798 55.2109 44.4449 56.2057 46.4873 55.6699C49.4219 54.2349 52.4124 50.598 52.4124 50.598Z" fill="#173C3F"/>
<path d="M21.0272 62.9713C21.0272 62.9713 20.162 65.6826 22.2808 67.4271C22.2808 67.4271 23.5846 69.4942 26.577 69.2034C26.577 69.2034 30.5454 68.9837 31.0641 65.5573C31.0641 65.5573 31.4264 63.0984 29.1 63.0788C29.1 63.0788 27.8566 63.0078 28.625 61.396C28.625 61.396 31.5819 60.8042 31.4339 58.4622C31.4339 58.4622 31.3677 56.4643 29.4036 56.4989C29.4036 56.4989 28.0746 56.4409 27.2028 57.2468C27.0638 56.9373 26.8304 56.6802 26.5362 56.5126C26.2421 56.3451 25.9025 56.2758 25.5665 56.3147C25.5665 56.3147 23.7579 56.3353 23.4356 57.7937C23.4356 57.7937 20.8782 57.5048 20.0195 59.542C20.0195 59.542 19.2391 61.7419 21.0235 62.9722L21.0272 62.9713Z" fill="#FAB84A"/>
<path d="M20.5889 58.72C20.5889 58.72 24.1158 56.8035 24.6793 60.2645C24.6793 60.2645 24.9875 61.7407 23.7256 62.5195C23.7256 62.5195 25.1002 62.2736 25.1561 60.2122C25.1561 60.2122 25.3275 58.3881 23.3959 57.7636C23.3959 57.7636 21.6422 57.2419 20.5889 58.72Z" fill="#E9934C"/>
<path d="M26.8546 61.3583C29.0675 57.585 25.8171 56.3041 25.8171 56.3041C25.8171 56.3041 28.0523 56.4593 27.9713 59.151C27.9713 59.151 28.002 60.2878 26.8537 61.3583H26.8546Z" fill="#E9934C"/>
<path d="M29.0219 66.3448C29.8424 65.6082 30.1267 64.5836 29.6569 64.0564C29.1871 63.5291 28.1412 63.6988 27.3207 64.4355C26.5003 65.1721 26.216 66.1967 26.6858 66.724C27.1556 67.2512 28.2015 67.0815 29.0219 66.3448Z" fill="#E9934C"/>
<path d="M23.0797 60.95C23.7395 60.3576 23.968 59.5335 23.5902 59.1094C23.2123 58.6853 22.3711 58.8217 21.7113 59.4141C21.0515 60.0065 20.8229 60.8306 21.2008 61.2547C21.5787 61.6788 22.4199 61.5424 23.0797 60.95Z" fill="#E9934C"/>
<path d="M26.341 58.946C26.8935 58.45 27.0848 57.7599 26.7683 57.4047C26.4518 57.0495 25.7473 57.1636 25.1949 57.6597C24.6424 58.1557 24.4512 58.8458 24.7677 59.201C25.0842 59.5562 25.7886 59.4421 26.341 58.946Z" fill="#E9934C"/>
<path d="M30.3479 59.526C30.9943 58.9456 31.2181 58.1382 30.8477 57.7225C30.4774 57.3069 29.6532 57.4404 29.0068 58.0208C28.3604 58.6011 28.1366 59.4086 28.507 59.8242C28.8773 60.2399 29.7015 60.1063 30.3479 59.526Z" fill="#E9934C"/>
<path fill-rule="evenodd" clip-rule="evenodd" d="M16.2902 47.9885C16.2902 47.9885 14.8094 47.0872 14.7936 45.4726C14.7936 45.4726 14.5431 43.4541 16.5631 43.6421C16.5631 43.6421 25.5569 45.5353 30.8375 50.3575C30.8375 50.3575 32.4413 51.7356 31.7074 52.9753C31.7074 52.9753 31.1114 54.2103 29.1165 54.4581C29.1165 54.4581 30.1493 55.5678 29.4545 56.4588C29.4545 56.4588 28.5157 57.7929 26.261 57.7228C26.261 57.7228 26.8468 58.2838 26.0533 58.8111C26.0533 58.8111 24.5055 59.6039 22.2395 58.9569C22.2395 58.9569 19.073 58.281 17.0446 55.4603C17.0446 55.4603 15.8134 53.6615 17.175 52.735C17.175 52.735 15.5871 51.5196 15.5824 50.0892C15.5824 50.0892 15.4669 48.5532 16.2912 47.9913L16.2902 47.9885Z" fill="#225054"/>
<path fill-rule="evenodd" clip-rule="evenodd" d="M16.2065 43.6497C16.3242 43.645 16.4422 43.6484 16.5594 43.66L16.6721 43.6862C14.6046 43.4562 15.4093 46.1796 15.4093 46.1796C15.8908 47.5567 18.2219 49.3714 18.2219 49.3714C18.1529 49.3714 17.5085 49.3396 17.5085 49.3396C16.0817 49.2405 16.2931 50.067 16.2931 50.067C16.3369 51.6816 18.7835 53.9637 18.7835 53.9637C18.3122 53.9263 17.1359 53.1887 17.1359 53.1887C16.7411 53.543 16.8165 54.4415 16.8165 54.4415C16.9655 55.5802 18.0468 56.2767 18.0468 56.2767C21.9937 58.9076 24.9637 58.7009 26.4585 58.2999C26.4315 58.4644 26.3235 58.6477 26.0525 58.8262C26.0525 58.8262 24.5046 59.619 22.2387 58.9711C22.2387 58.9711 19.0722 58.2961 17.0437 55.4755C17.0437 55.4755 15.8125 53.6767 17.1732 52.7493C17.1732 52.7493 15.5899 51.5339 15.5806 50.1044C15.5806 50.1044 15.4661 48.5683 16.2903 48.0055C16.2903 48.0055 14.8095 47.1052 14.7937 45.4906C14.7937 45.4906 14.5729 43.7142 16.2093 43.6497H16.2065ZM19.265 50.6064C29.2776 55.5465 31.8062 51.906 31.8062 51.906H31.8444C31.896 52.0869 31.9104 52.2765 31.8869 52.4633C31.8633 52.65 31.8023 52.83 31.7075 52.9923C31.7075 52.9923 31.1114 54.2274 29.1165 54.4751L29.1221 54.4817C21.299 53.7655 19.2687 50.6083 19.2687 50.6083L19.265 50.6064ZM19.2715 54.2283C25.3884 57.1265 28.3649 56.0701 29.5738 55.2203C29.7219 55.5942 29.775 56.0617 29.4509 56.474C29.4509 56.474 28.5503 57.7511 26.398 57.7389C23.1393 57.0639 19.2715 54.2283 19.2715 54.2283Z" fill="#194145"/>
</svg>
