<svg preserveAspectRatio="none" width="100%" height="100%" overflow="visible" style="display: block;" viewBox="0 0 335.811 54.753" fill="none" xmlns="http://www.w3.org/2000/svg">
<g id="g5150 2 9 4 0 6 9 5 9 6 9 8 4 5">
<path id="path4237 8 4 2 1 2 7 9 8 0 7 9 7 9 7" d="M17.3827 16.1905C15.3078 16.1749 13.083 16.4141 11.1189 17.174C11.1189 17.174 1.09262 21.0561 0.176259 32.0014C0.176259 32.0014 -1.06355 41.0597 3.03321 46.9368C3.03321 46.9368 6.19571 52.2356 12.9042 53.7606C12.9042 53.7606 26.7023 57.7253 33.9444 45.22C33.9444 45.22 34.5664 44.105 33.7848 43.1884L29.5263 40.6003C29.5263 40.6003 28.3426 40.0881 27.4262 41.4091C27.4262 41.4091 25.4819 45.0288 22.2039 46.1345C22.2039 46.1345 17.5913 47.812 13.7797 46.1345C13.7797 46.1345 8.67317 44.457 7.92992 36.2027H33.677C33.677 36.2027 34.9548 36.2986 35.1454 34.8116C35.1454 34.8116 36.0229 21.11 24.7568 17.174C24.7568 17.174 21.3437 16.2203 17.3827 16.1905V16.1905ZM17.967 23.1136C20.9775 23.0809 22.9241 24.1294 22.9241 24.1294C27.2365 26.1783 27.1287 30.8692 27.1287 30.8692H8.42369C9.87914 25.4234 12.8978 24.1833 12.8978 24.1833C14.7726 23.4049 16.4967 23.1296 17.967 23.1136Z" fill="var(--fill-0, #0C5257)"/>
<path id="path4241 8 5 7 1 4 6 5 7 2 9 5 1 8 4" d="M67.2596 0C67.2596 0 66.2635 0.0539181 66.0478 1.34795V23.0683C66.0478 23.0683 64.2839 18.6078 59.9005 17.0446C59.9005 17.0446 54.2221 15.1009 49.1907 17.0834C49.1907 17.0834 42.9389 18.8378 40.042 28.8268C40.042 28.8268 38.4787 33.8286 39.8523 41.2322C39.8523 41.2322 41.0329 48.6897 48.1989 52.9217C48.1989 52.9217 53.3073 56.0099 60.7781 52.9217C60.7781 52.9217 64.031 51.6538 66.1017 48.2847V51.3969C66.1017 51.3969 66.0377 52.578 67.2574 52.7686H72.594C72.594 52.7686 73.8138 52.5788 73.7756 51.2826V1.40187C73.7756 1.40187 73.7818 0.296551 72.4345 0H67.2596ZM56.7223 23.2797C62.1406 23.2797 66.5329 28.7222 66.5329 35.4372C66.5329 42.1521 62.1406 47.5967 56.7223 47.5967C51.304 47.5967 46.9116 42.1521 46.9116 35.4372C46.9116 28.7222 51.304 23.2797 56.7223 23.2797Z" fill="var(--fill-0, #0C5257)"/>
<path id="path4245 2 5 9 3 8 7 3 5 5 2 0 8 8 0" d="M80.9414 17.3878H85.8584C85.8584 17.3878 87.1162 17.2353 87.2687 18.8366L87.3131 39.5221C87.3131 39.5221 87.421 45.3991 92.3802 46.6932C92.3802 46.6932 96.1535 47.6367 99.4417 46.6932C99.4417 46.6932 104.536 45.5609 104.563 39.4681V18.8714C104.563 18.8714 104.401 17.4426 105.856 17.3887H110.843C110.843 17.3887 112.325 17.2539 112.379 18.6557V37.1227C112.379 37.1227 112.406 48.2837 105.722 52.0041C105.722 52.0041 96.8812 57.1263 85.9925 52.0041C85.9925 52.0041 80.5481 49.7934 79.6317 38.7942V18.6827C79.6317 18.6827 79.6454 17.426 80.9414 17.3878V17.3878Z" fill="var(--fill-0, #0C5257)"/>
<path id="path4247 45 1 5 8 6 7 0 0 9 9 6 71 0 1" d="M144.371 24.3174V19.0334C144.371 19.0334 144.452 18.2786 143.266 17.7394C143.266 17.7394 135.073 13.8034 125.855 18.3325C125.855 18.3325 119.325 21.2007 117.304 29.169C117.304 29.169 115.627 36.1524 117.304 41.2207C117.304 41.2207 119.198 49.6319 126.799 52.6514C126.799 52.6514 133.641 56.3069 143.401 52.3818C143.401 52.3818 144.395 52.132 144.371 50.9799V45.83C144.371 45.83 144.024 44.2287 142.519 44.6099C142.519 44.6099 142.061 44.7434 141.528 45.1246C141.528 45.1246 139.736 46.4209 137.602 46.7259C137.602 46.7259 133.142 47.5456 129.997 45.6965C129.997 45.6965 125.559 44.0245 124.588 36.6916C124.588 36.6916 124.238 33.6452 124.588 32.3782C124.588 32.3782 125.576 25.242 132.056 23.7551C132.056 23.7551 135.334 22.8782 139.336 23.8695C139.336 23.8695 141.353 24.6948 142.027 25.261C142.027 25.261 143.644 26.2585 144.371 24.3174V24.3174Z" fill="var(--fill-0, #0C5257)"/>
<path id="path4241 1 5 7 4 7 5 1 9 7 8 2 5 54 9 2" d="M161.759 16.3004C160.134 16.2924 158.327 16.5097 156.597 17.1912C156.597 17.1912 150.348 18.9456 147.451 28.9345C147.451 28.9345 145.885 33.9363 147.259 41.34C147.259 41.34 148.442 48.7975 155.608 53.0294C155.608 53.0294 160.714 56.1176 168.185 53.0294C168.185 53.0294 171.438 51.7615 173.508 48.3925V51.5046C173.508 51.5046 173.444 52.6879 174.664 52.8785H180.001C180.001 52.8785 181.22 52.6866 181.182 51.3903V18.7656C181.182 18.7656 181.191 17.6603 179.843 17.3637H174.668C174.668 17.3637 173.67 17.4176 173.454 18.7117V23.1783C173.454 23.1783 171.693 18.7177 167.309 17.1545C167.309 17.1545 164.863 16.3158 161.759 16.3004V16.3004ZM164.129 23.3874C169.547 23.3874 173.94 28.8321 173.94 35.547C173.94 42.262 169.547 47.7045 164.129 47.7045C158.711 47.7045 154.318 42.262 154.318 35.547C154.318 28.8321 158.711 23.3874 164.129 23.3874Z" fill="var(--fill-0, #0C5257)"/>
<path id="path4247 4 1 1 3 4 0 9 9 4 4 3 6 84 7 7" d="M213.97 24.2959V19.012C213.97 19.012 214.051 18.2571 212.865 17.7179C212.865 17.7179 204.671 13.7819 195.454 18.311C195.454 18.311 188.923 21.1792 186.903 29.1475C186.903 29.1475 185.225 36.1309 186.903 41.1992C186.903 41.1992 188.796 49.6105 196.397 52.6299C196.397 52.6299 203.239 56.2854 213 52.3603C213 52.3603 213.994 52.1106 213.97 50.9584V45.8085C213.97 45.8085 213.623 44.2072 212.117 44.5884C212.117 44.5884 211.66 44.7219 211.126 45.1031C211.126 45.1031 209.334 46.3994 207.2 46.7044C207.2 46.7044 202.74 47.5241 199.596 45.675C199.596 45.675 195.157 44.003 194.187 36.6701C194.187 36.6701 193.837 33.6238 194.187 32.3567C194.187 32.3567 195.174 25.2205 201.654 23.7336C201.654 23.7336 204.932 22.8567 208.934 23.848C208.934 23.848 210.951 24.6734 211.625 25.2395C211.625 25.2395 213.242 26.237 213.97 24.2959V24.2959Z" fill="var(--fill-0, #DF2B3C)"/>
<path id="path4288 7 1 1 2 9 1 5 5 6 1 1 5 9 2" fill-rule="evenodd" clip-rule="evenodd" d="M260.006 16.1368C249.635 16.1368 241.226 24.7408 241.226 35.3532C241.226 45.9656 249.635 54.5674 260.006 54.5674C270.378 54.5674 278.787 45.9656 278.787 35.3532C278.787 24.7408 270.378 16.1368 260.006 16.1368ZM260.006 23.3359C265.882 23.3359 270.647 28.7163 270.647 35.3532C270.647 41.9901 265.882 47.3704 260.006 47.3704C254.13 47.3704 249.365 41.9901 249.365 35.3532C249.365 28.7163 254.13 23.3359 260.006 23.3359Z" fill="var(--fill-0, #DF2B3C)"/>
<path id="path4312 1 5 2 7 0 6 1 8 0 7 4 7 2 5" d="M219.245 20.2467V52.5975C219.245 52.5975 219.137 54.1881 220.862 54.269H225.822C225.822 54.269 227.034 54.269 227.169 52.8401V36.4511C227.169 36.4511 227.042 27.644 231.158 25.2421C231.158 25.2421 233.598 23.9077 237.524 25.1277C237.524 25.1277 238.82 25.6996 239.582 24.8608L241.412 20.5145C241.412 20.5145 241.831 18.8751 240.649 18.5701C240.649 18.5701 235.008 15.9013 230.51 19.3707C230.51 19.3707 228.262 20.972 227.232 24.3271V20.2187C227.232 20.2187 227.278 18.7719 225.86 18.7607H220.6C220.6 18.7607 219.529 18.7588 219.245 20.2467V20.2467Z" fill="var(--fill-0, #DF2B3C)"/>
<path id="path4314 1 2 3 7 0 27 1 2 8 8 9 93 4 7" d="M299.051 24.5871C299.051 24.5871 299.752 25.5307 301.181 24.8028L304.307 22.4304C304.307 22.4304 305.143 21.6755 304.496 20.6511C304.496 20.6511 302.093 16.6638 296.452 16.2063C296.452 16.2063 292.412 15.8632 290.125 16.5494C290.125 16.5494 282.844 17.8838 281.51 24.594C281.51 24.594 281.053 26.5384 281.625 29.1309C281.625 29.1309 282.349 33.3248 288.066 35.8792C288.066 35.8792 295.413 39.2258 295.79 39.3876C295.79 39.3876 299.941 41.0591 299.132 44.4559C299.132 44.4559 298.863 47.3675 295.575 48.0145C295.575 48.0145 289.591 49.5242 286.788 44.7255C286.788 44.7255 286.084 43.1994 284.712 43.5425L280.71 45.7919C280.71 45.7919 279.566 46.5163 280.291 47.7935C280.291 47.7935 281.93 50.9389 285.131 52.6165C285.131 52.6165 289.972 55.819 298.51 53.6459C298.51 53.6459 304.418 51.7014 305.905 47.8126C305.905 47.8126 307.544 44.61 306.515 39.9968C306.515 39.9968 305.524 36.0317 300.797 33.7061C300.797 33.7061 294.279 30.8085 293.403 30.5416C293.403 30.5416 289.057 28.7116 289.134 26.424C289.134 26.424 288.409 23.9077 291.421 22.6877C291.421 22.6877 293.746 21.5439 296.757 22.6877C296.757 22.6877 298.22 23.2839 299.051 24.5871V24.5871Z" fill="var(--fill-0, #DF2B3C)"/>
<path id="path4314 9 5 7 3 9 6 2 1 8 2 8 9 0 1 7" d="M328.008 24.9382C328.008 24.9382 328.709 25.8817 330.138 25.1538L333.264 22.7814C333.264 22.7814 334.1 22.0266 333.453 21.0021C333.453 21.0021 331.05 17.0148 325.409 16.5573C325.409 16.5573 321.369 16.2142 319.082 16.9004C319.082 16.9004 311.801 18.2349 310.467 24.945C310.467 24.945 310.01 26.8894 310.582 29.482C310.582 29.482 311.306 33.6758 317.023 36.2302C317.023 36.2302 324.37 39.5769 324.747 39.7387C324.747 39.7387 328.898 41.4101 328.089 44.807C328.089 44.807 327.82 47.7185 324.532 48.3656C324.532 48.3656 318.548 49.8753 315.745 45.0766C315.745 45.0766 315.041 43.5504 313.669 43.8936L309.667 46.143C309.667 46.143 308.523 46.8674 309.248 48.1446C309.248 48.1446 310.887 51.29 314.088 52.9675C314.088 52.9675 318.929 56.1701 327.467 53.9969C327.467 53.9969 333.375 52.0525 334.862 48.1637C334.862 48.1637 336.501 44.9611 335.472 40.3478C335.472 40.3478 334.481 36.3828 329.754 34.0571C329.754 34.0571 323.236 31.1595 322.36 30.8927C322.36 30.8927 318.014 29.0626 318.091 26.775C318.091 26.775 317.366 24.2587 320.377 23.0387C320.377 23.0387 322.703 21.8949 325.714 23.0387C325.714 23.0387 327.177 23.635 328.008 24.9382V24.9382Z" fill="var(--fill-0, #DF2B3C)"/>
</g>
</svg>
