<svg preserveAspectRatio="none" width="100%" height="100%" overflow="visible" style="display: block;" viewBox="0 0 156.655 40.5444" fill="none" xmlns="http://www.w3.org/2000/svg">
<g id="Group 26">
<path id="path4247 4 1 1 3 4 0 9 9 4 4 3 6 84 7 7" d="M29.1138 8.66205V3.13088C29.1138 3.13088 29.1984 2.34072 27.9571 1.77631C27.9571 1.77631 19.3802 -2.34384 9.73125 2.39716C9.73125 2.39716 2.89529 5.39949 0.780586 13.7406C0.780586 13.7406 -0.975733 21.0507 0.780586 26.3561C0.780586 26.3561 2.76266 35.1608 10.7188 38.3215C10.7188 38.3215 17.8809 42.1481 28.0982 38.0393C28.0982 38.0393 29.1385 37.7779 29.1138 36.5719V31.181C29.1138 31.181 28.7503 29.5048 27.1742 29.9039C27.1742 29.9039 26.6954 30.0436 26.1368 30.4427C26.1368 30.4427 24.2615 31.7996 22.0272 32.1188C22.0272 32.1188 17.3589 32.9769 14.0671 31.0413C14.0671 31.0413 9.42094 29.291 8.40529 21.6151C8.40529 21.6151 8.03853 18.4263 8.40529 17.0999C8.40529 17.0999 9.43882 9.62988 16.2218 8.07341C16.2218 8.07341 19.6531 7.15552 23.8425 8.19317C23.8425 8.19317 25.9539 9.05713 26.6592 9.64976C26.6592 9.64976 28.352 10.6939 29.1138 8.66205V8.66205Z" fill="var(--fill-0, #DF2B3C)"/>
<path id="path4288 7 1 1 2 9 1 5 5 6 1 1 5 9 2" fill-rule="evenodd" clip-rule="evenodd" d="M77.3037 0.121464C66.4469 0.121464 57.6446 9.128 57.6446 20.2368C57.6446 31.3457 66.4469 40.35 77.3037 40.35C88.1605 40.35 96.9627 31.3457 96.9627 20.2368C96.9627 9.128 88.1605 0.121464 77.3037 0.121464ZM77.3037 7.6574C83.4548 7.6574 88.4422 13.2894 88.4422 20.2368C88.4422 27.1843 83.4548 32.8163 77.3037 32.8163C71.1525 32.8163 66.1651 27.1843 66.1651 20.2368C66.1651 13.2894 71.1525 7.6574 77.3037 7.6574Z" fill="var(--fill-0, #DF2B3C)"/>
<path id="path4312 1 5 2 7 0 6 1 8 0 7 4 7 2 5" d="M34.6184 2.89012V38.081C34.6184 38.081 34.5018 39.8112 36.3677 39.8992H41.7321C41.7321 39.8992 43.044 39.8992 43.1897 38.3449V20.5171C43.1897 20.5171 43.0519 10.9369 47.5048 8.32411C47.5048 8.32411 50.1436 6.87252 54.3903 8.19966C54.3903 8.19966 55.7921 8.82177 56.6167 7.90937L58.5957 3.18144C58.5957 3.18144 59.0493 1.39814 57.7712 1.06636C57.7712 1.06636 51.6691 -1.83677 46.8039 1.93726C46.8039 1.93726 44.3713 3.67915 43.258 7.32876V2.85973C43.258 2.85973 43.3072 1.28587 41.7738 1.27373H36.0839C36.0839 1.27373 34.9258 1.27167 34.6184 2.89012V2.89012Z" fill="var(--fill-0, #DF2B3C)"/>
<path id="path4314 1 2 3 7 0 27 1 2 8 8 9 93 4 7" d="M118.176 8.96688C118.176 8.96688 118.909 9.95459 120.404 9.19264L123.677 6.70926C123.677 6.70926 124.552 5.91909 123.875 4.84673C123.875 4.84673 121.36 0.672935 115.454 0.194024C115.454 0.194024 111.225 -0.165174 108.831 0.553197C108.831 0.553197 101.21 1.95002 99.8139 8.97408C99.8139 8.97408 99.3351 11.0094 99.9336 13.7233C99.9336 13.7233 100.692 18.1133 106.677 20.7873C106.677 20.7873 114.367 24.2905 114.762 24.4598C114.762 24.4598 119.107 26.2094 118.26 29.7652C118.26 29.7652 117.978 32.813 114.536 33.4903C114.536 33.4903 108.273 35.0706 105.339 30.0474C105.339 30.0474 104.602 28.4499 103.165 28.809L98.976 31.1637C98.976 31.1637 97.779 31.922 98.5371 33.259C98.5371 33.259 100.253 36.5515 103.604 38.3075C103.604 38.3075 108.672 41.6599 117.609 39.3851C117.609 39.3851 123.793 37.3497 125.35 33.2789C125.35 33.2789 127.065 29.9265 125.988 25.0975C125.988 25.0975 124.951 20.9469 120.003 18.5124C120.003 18.5124 113.18 15.4793 112.263 15.2C112.263 15.2 107.714 13.2843 107.794 10.8897C107.794 10.8897 107.036 8.25572 110.188 6.97862C110.188 6.97862 112.622 5.78134 115.774 6.97862C115.774 6.97862 117.306 7.60276 118.176 8.96688V8.96688Z" fill="var(--fill-0, #DF2B3C)"/>
<path id="path4314 9 5 7 3 9 6 2 1 8 2 8 9 0 1 7" d="M148.488 9.33476C148.488 9.33476 149.221 10.3225 150.716 9.56052L153.989 7.07714C153.989 7.07714 154.864 6.28697 154.187 5.21461C154.187 5.21461 151.672 1.04078 145.766 0.561867C145.766 0.561867 141.537 0.20267 139.143 0.921041C139.143 0.921041 131.522 2.3179 130.126 9.34196C130.126 9.34196 129.647 11.3773 130.245 14.0912C130.245 14.0912 131.004 18.4812 136.989 21.1551C136.989 21.1551 144.679 24.6584 145.074 24.8277C145.074 24.8277 149.419 26.5773 148.572 30.1331C148.572 30.1331 148.29 33.1809 144.848 33.8581C144.848 33.8581 138.585 35.4385 135.65 30.4153C135.65 30.4153 134.914 28.8178 133.477 29.1769L129.288 31.5316C129.288 31.5316 128.091 32.2899 128.849 33.6268C128.849 33.6268 130.565 36.9194 133.916 38.6754C133.916 38.6754 138.983 42.0278 147.921 39.7529C147.921 39.7529 154.105 37.7176 155.662 33.6468C155.662 33.6468 157.377 30.2944 156.3 25.4653C156.3 25.4653 155.263 21.3148 150.315 18.8803C150.315 18.8803 143.492 15.8472 142.574 15.5678C142.574 15.5678 138.026 13.6522 138.106 11.2576C138.106 11.2576 137.348 8.62357 140.5 7.34647C140.5 7.34647 142.934 6.14919 146.086 7.34647C146.086 7.34647 147.618 7.97064 148.488 9.33476V9.33476Z" fill="var(--fill-0, #DF2B3C)"/>
</g>
</svg>
