<svg preserveAspectRatio="none" width="100%" height="100%" overflow="visible" style="display: block;" viewBox="0 0 92.8253 94.0003" fill="none" xmlns="http://www.w3.org/2000/svg">
<g id="g16087 4 1 4">
<path id="path8901 1 8 3 7 7 2 7 7" d="M32.6238 87.6249C32.6238 87.6249 35.2643 91.7629 46.2668 90.9705C46.2668 90.9705 52.4283 91.939 58.5016 88.4173C58.5016 88.4173 62.0224 86.4804 62.2865 76.3556C62.2865 76.3556 65.7193 54.257 58.3257 48.6223C58.3257 48.6223 50.0518 32.6866 38.609 43.8679C38.609 43.8679 30.8632 54.1689 31.0393 61.4764C31.0393 61.4764 28.0467 79.5251 32.6238 87.6249V87.6249Z" fill="var(--fill-0, #F2EEE3)"/>
<path id="path15939 5 5 11 3" d="M61.0331 84.1543C61.0331 86.3132 59.455 88.3836 56.6461 89.9102C53.8372 91.4368 50.0275 92.2944 46.0551 92.2944C44.0881 92.2944 42.1405 92.0838 40.3233 91.6747C38.5061 91.2656 36.8549 90.6661 35.464 89.9102C34.0732 89.1543 32.97 88.257 32.2173 87.2694C31.4645 86.2818 31.077 85.2233 31.077 84.1543C31.077 83.0853 31.4645 82.0268 32.2173 81.0392C32.97 80.0516 34.0732 79.1543 35.464 78.3984C36.8549 77.6425 38.5061 77.043 40.3233 76.6339C42.1405 76.2248 44.0881 76.0143 46.0551 76.0143C50.0275 76.0143 53.8372 76.8719 56.6461 78.3984C59.455 79.925 61.0331 81.9954 61.0331 84.1543V84.1543Z" fill="var(--fill-0, #D5D3C7)"/>
<path id="path15939 2 3 4" d="M61.3332 77.4126C61.3332 78.4816 60.9456 79.5401 60.1929 80.5277C59.4402 81.5153 58.337 82.4126 56.9461 83.1685C55.5553 83.9244 53.9041 84.524 52.0869 84.933C50.2696 85.3421 48.3221 85.5527 46.3551 85.5527C42.3827 85.5527 38.573 84.6951 35.7641 83.1685C32.9552 81.642 31.3771 79.5715 31.3771 77.4126C31.3771 76.3437 31.7646 75.2852 32.5173 74.2976C33.27 73.31 34.3733 72.4126 35.7641 71.6567C37.1549 70.9009 38.806 70.3013 40.6232 69.8922C42.4404 69.4831 44.3882 69.2726 46.3551 69.2726C48.3221 69.2726 50.2696 69.4831 52.0869 69.8922C53.9041 70.3013 55.5553 70.9009 56.9461 71.6567C58.337 72.4126 59.4402 73.31 60.1929 74.2976C60.9456 75.2852 61.3332 76.3437 61.3332 77.4126V77.4126Z" fill="var(--fill-0, #F2EEE3)"/>
<path id="path15937 6 0 7" fill-rule="evenodd" clip-rule="evenodd" d="M37.3988 63.9478C37.3988 63.9478 41.141 56.5323 42.5531 56.1792C42.5531 56.1792 43.3196 59.517 46.1256 60.8977C46.1256 60.8977 49.2539 59.3511 49.2004 56.0662C49.2004 56.0662 50.6498 56.938 53.4457 62.4313C53.4457 62.4313 58.8378 60.8333 58.8378 58.5361C58.8378 56.2389 59.2373 54.6908 58.5882 52.6433C57.9392 50.5958 57.0403 48.4983 55.892 47.1C54.7437 45.7017 53.8451 44.4033 51.6983 43.7042C49.5514 43.005 46.3061 42.206 45.3076 42.5556C44.3091 42.9052 41.7629 43.7541 40.5147 45.1524C39.2666 46.5507 37.5191 47.4496 36.7702 49.2474C36.0213 51.0452 34.7732 52.2937 34.6733 53.4423C34.5735 54.5909 32.6264 52.2937 34.5735 56.0391C36.5207 59.7845 37.3988 63.9478 37.3988 63.9478Z" fill="var(--fill-0, #D5D3C7)"/>
<path id="path4510 1 16 5 7 4 9 0 2" d="M67.3594 56.5502C70.596 62.6513 70.2226 70.7445 70.2226 70.7445C67.6086 84.565 57.6563 89.3287 57.6563 89.3287C61.3906 75.01 53.5423 62.6513 53.5423 62.6513C50.8038 57.4218 56.1562 53.9356 56.1562 53.9356C49.1854 50.3248 46.0733 38.4964 46.0733 38.4964C43.4593 50.5738 35.4928 53.9356 35.4928 53.9356C40.5965 57.5464 38.3557 61.7797 38.3557 61.7797L34.4969 71.4916C31.5094 77.219 33.9814 88.9825 33.9814 88.9825C12.6955 76.0334 25.0365 54.6826 25.0365 54.6826C25.0365 54.6826 25.5298 52.9572 23.6373 53.6175C23.4174 53.7496 21.261 54.8061 20.2927 57.7995C20.1607 57.5355 19.0604 55.0262 19.6766 52.2969C19.5005 52.3409 20.2487 51.1083 17.9602 51.3725C17.9602 51.3725 13.559 52.429 12.2387 53.5735C12.2387 53.5735 14.0873 51.2844 13.9991 49.4796C13.9991 49.4796 14.1753 48.6432 12.1067 48.5991C12.1067 48.5991 8.13836 48.5817 6.42668 47.5856C6.42668 47.5856 8.76065 45.1888 8.76065 43.9748C8.76065 43.9748 9.50773 41.3601 6.48904 41.4846C6.48904 41.4846 3.37708 42.1694 2.5057 43.1654C2.5057 43.1654 2.56786 40.5196 3.62606 39.5235C3.62606 39.5235 5.19719 37.77 5.85733 37.2418C5.85733 37.2418 6.69363 36.7575 5.46135 36.0532C5.46135 36.0532 1.19236 35.569 0.312088 30.7267C0.312088 30.7267 2.20445 33.1478 4.31705 31.0788C4.31705 31.0788 4.49303 28.1293 0.532183 26.9849C0.532183 26.9849 1.67644 25.9284 3.34882 25.6643C3.34882 25.6643 5.50541 25.7082 5.81331 24.4317C5.81331 24.4317 6.03348 23.0669 3.12892 21.5702C3.12892 21.5702 6.51759 22.0545 7.17771 21.2621C7.17771 21.2621 2.95271 20.3817 3.34882 13.9986C3.34882 13.9986 5.41744 17.1241 7.30976 16.1557C7.30976 16.1557 8.58587 15.5834 7.74976 13.3823C7.74976 13.3823 6.91362 12.0177 5.94537 11.7095C5.94537 11.7095 7.26563 9.06831 12.5029 9.28842C12.5029 9.28842 15.1874 8.84819 12.8548 6.5591C12.8548 6.5591 15.6275 6.11889 17.6961 7.52761C17.6961 7.52761 16.6399 3.91791 18.2682 0.0439816C18.2682 0.0439816 25.9701 7.74238 38.1069 8.42718C38.1069 8.42718 38.0446 5.56337 41.1565 3.94478C41.1565 3.94478 40.7208 6.31049 42.3391 7.11976C42.3391 7.11976 42.9615 7.49331 43.4594 6.49726C43.4594 6.49726 44.3929 3.26001 43.895 1.081C43.895 1.081 46.2602 2.63735 46.7582 6.31047C46.7582 6.31047 47.0694 7.68011 47.754 6.74623C47.754 6.74623 48.8743 3.75802 50.0567 3.01093C50.0567 3.01093 49.1855 6.3105 50.6172 7.80459C50.6172 7.80459 51.4261 8.55164 51.7995 8.55164C51.7995 8.55164 65.9311 8.01183 74.2052 0C74.2052 0 76.4938 3.16951 74.9973 8.27593C74.9973 8.27593 82.3593 7.18206 84.8489 10.6683C84.8489 10.6683 82.4838 11.3532 82.297 12.9717C82.297 12.9717 82.3594 14.4036 83.9776 14.5904C83.9776 14.5904 86.4047 15.0262 87.8362 13.781C87.8362 13.781 88.4589 18.6993 84.1021 20.6292C84.1021 20.6292 83.3813 20.7999 83.8432 21.13C83.8432 21.13 85.5819 21.3062 87.1881 20.5799C87.1881 20.5799 86.1979 21.7024 85.7579 22.3626C85.7579 22.3626 84.5475 23.3972 85.6478 24.3877C85.6478 24.3877 91.6018 25.7341 92.5978 28.3176C92.5978 28.3176 88.7077 27.1348 87.1207 30.7766C87.1207 30.7766 87.6496 33.2046 90.5438 32.5821C90.5438 32.5821 90.5329 35.3048 85.6478 37.0657C85.6478 37.0657 84.9437 37.5499 85.3399 38.6504C85.3399 38.6504 87.9364 41.2036 87.6283 44.4612C87.6283 44.4612 86.572 43.0965 84.6796 42.7884C84.6796 42.7884 82.7431 42.3042 82.6111 44.3731C82.6111 44.3731 82.8311 46.9263 84.6356 47.8068C84.6356 47.8068 83.1391 49.1274 78.0339 48.0709C78.0339 48.0709 77.2858 47.6747 77.55 48.7312C77.55 48.7312 78.2539 51.5485 77.1977 54.2778C77.1977 54.2778 76.6698 52.2969 75.3935 51.6806C75.3935 51.6806 74.161 50.6681 73.3688 52.2529C73.3688 52.2529 72.8846 55.8186 70.0682 57.0071C70.0682 57.0071 70.2442 55.9947 69.6282 55.5544C69.6282 55.5544 68.6118 54.7288 67.3594 56.5502V56.5502Z" fill="var(--fill-0, #0A9C9A)"/>
<path id="path4512 7 2 9 3 0 0 1 88 1" d="M46.2694 33.4907C43.5759 34.4576 40.8171 39.7515 40.8171 39.7515C41.199 44.8239 46.1917 49.3605 46.2667 49.4285V49.4465C46.2667 49.4465 46.2756 49.4372 46.276 49.437C46.2761 49.437 46.2801 49.4409 46.2801 49.4409V49.4338C46.3545 49.3628 51.144 44.7795 51.5259 39.7084C51.5259 39.7084 48.9617 34.4622 46.2689 33.4934V33.4907H46.2694Z" fill="var(--fill-0, #0A5B59)"/>
<path id="path4512 7 2 9 3 0 09 8 9" d="M40.9694 40.7996C40.9694 40.7996 43.6469 36.0275 46.261 35.1559L46.2716 49.5336C46.2716 49.5336 41.3434 45.4064 40.97 40.7996H40.9694Z" fill="var(--fill-0, #FAB84A)"/>
<path id="path4512 8 4 04 8 3 9 3 8 9" d="M51.3634 40.7606C51.3634 40.7606 48.8737 36.0293 46.2596 35.1577V49.5386C46.2596 49.5386 50.99 45.3675 51.3634 40.7606V40.7606Z" fill="var(--fill-0, #E9934C)"/>
<path id="path15852 5 5 0" d="M41.6652 30.5549C41.6652 32.6881 41.2453 34.8003 40.4292 36.7711C39.6131 38.7418 38.4168 40.5325 36.9089 42.0409C35.4009 43.5492 33.6106 44.7457 31.6403 45.5621C29.67 46.3784 27.5583 46.7985 25.4257 46.7985C23.2931 46.7985 21.1814 46.3784 19.2111 45.5621C17.2408 44.7457 15.4505 43.5492 13.9425 42.0409C12.4345 40.5325 11.2383 38.7418 10.4221 36.7711C9.60603 34.8003 9.18613 32.6881 9.18613 30.5549C9.18614 26.2468 10.897 22.1152 13.9425 19.069C16.988 16.0227 21.1187 14.3113 25.4257 14.3113C29.7327 14.3113 33.8633 16.0227 36.9089 19.069C39.9544 22.1152 41.6652 26.2468 41.6652 30.5549V30.5549Z" fill="var(--fill-0, #0A5B59)"/>
<path id="path4532 0 8 4 5 4 92 03 1" d="M41.1174 31.3121C41.1174 35.4228 39.5669 39.3652 36.8068 42.2719C34.0468 45.1786 30.3032 46.8116 26.3998 46.8116C24.4671 46.8116 22.5533 46.4107 20.7677 45.6318C18.9821 44.8529 17.3595 43.7112 15.9928 42.2719C14.6261 40.8326 13.5422 39.124 12.8026 37.2435C12.0629 35.363 11.6822 33.3476 11.6822 31.3121C11.6822 29.2767 12.0629 27.2612 12.8026 25.3807C13.5422 23.5003 14.6261 21.7916 15.9928 20.3524C17.3595 18.9131 18.9821 17.7714 20.7677 16.9925C22.5533 16.2136 24.4671 15.8127 26.3998 15.8127C30.3032 15.8127 34.0468 17.4457 36.8068 20.3524C39.5669 23.2591 41.1174 27.2014 41.1174 31.3121V31.3121Z" fill="var(--fill-0, #F2EEE3)"/>
<path id="path15852 7 8 8 4" d="M83.4333 30.5424C83.4333 32.6756 83.0134 34.7879 82.1973 36.7586C81.3811 38.7294 80.1849 40.52 78.6769 42.0284C77.1689 43.5368 75.3786 44.7333 73.4083 45.5496C71.438 46.3659 69.3263 46.786 67.1937 46.786C62.8867 46.786 58.7561 45.0747 55.7105 42.0284C52.665 38.9821 50.9542 34.8505 50.9542 30.5424C50.9542 26.2344 52.665 22.1028 55.7105 19.0565C58.7561 16.0102 62.8867 14.2989 67.1937 14.2989C71.5007 14.2988 75.6314 16.0102 78.6769 19.0565C81.7224 22.1028 83.4333 26.2344 83.4333 30.5424V30.5424Z" fill="var(--fill-0, #0A5B59)"/>
<path id="path4532 2 9 5 0 9 8 9 19 9" d="M80.8954 31.3371C80.8954 33.3725 80.5146 35.388 79.775 37.2685C79.0354 39.1489 77.9515 40.8576 76.5848 42.2969C75.2181 43.7361 73.5955 44.8778 71.8099 45.6567C70.0243 46.4357 68.1105 46.8366 66.1778 46.8366C64.245 46.8366 62.3313 46.4357 60.5456 45.6567C58.76 44.8778 57.1374 43.7361 55.7707 42.2969C54.4041 40.8576 53.32 39.1489 52.5803 37.2685C51.8407 35.388 51.4602 33.3725 51.4602 31.3371C51.4602 29.3017 51.8407 27.2862 52.5803 25.4057C53.32 23.5252 54.4041 21.8166 55.7707 20.3773C57.1374 18.938 58.76 17.7963 60.5456 17.0174C62.3313 16.2385 64.245 15.8376 66.1778 15.8376C68.1105 15.8376 70.0243 16.2385 71.8099 17.0174C73.5955 17.7963 75.2181 18.938 76.5848 20.3773C77.9515 21.8166 79.0354 23.5252 79.775 25.4057C80.5146 27.2862 80.8954 29.3017 80.8954 31.3371V31.3371Z" fill="var(--fill-0, #F2EEE3)"/>
<path id="path4532 4 4 9 7 9 82 2 4 0" d="M38.2965 32.4308C38.2965 33.5587 38.0736 34.6756 37.6403 35.7176C37.207 36.7597 36.5719 37.7065 35.7712 38.504C34.9705 39.3016 34.02 39.9342 32.9739 40.3658C31.9278 40.7975 30.8065 41.0196 29.6742 41.0196C27.3874 41.0196 25.1942 40.1147 23.5772 38.504C21.9602 36.8933 21.0519 34.7087 21.0519 32.4308C21.0519 30.1529 21.9602 27.9682 23.5772 26.3575C25.1942 24.7468 27.3874 23.8419 29.6742 23.8419C30.8065 23.8419 31.9278 24.0641 32.9739 24.4957C34.02 24.9273 34.9705 25.56 35.7712 26.3575C36.5719 27.1551 37.207 28.1019 37.6403 29.1439C38.0736 30.186 38.2965 31.3029 38.2965 32.4308V32.4308Z" fill="var(--fill-0, #FAB84A)"/>
<path id="path4532 4 5 8 4 6 8 4 1 8 5" d="M36.1639 32.3542C36.1639 34.0519 35.487 35.68 34.2819 36.8805C33.0768 38.0809 31.4422 38.7554 29.7379 38.7554C28.0336 38.7554 26.399 38.0809 25.1939 36.8805C23.9888 35.68 23.3119 34.0519 23.3119 32.3542C23.3119 30.6566 23.9888 29.0284 25.1939 27.828C26.399 26.6276 28.0336 25.9532 29.7379 25.9532C31.4422 25.9532 33.0768 26.6276 34.2819 27.828C35.487 29.0284 36.1639 30.6566 36.1639 32.3542V32.3542Z" fill="var(--fill-0, #201E1E)"/>
<path id="path4532 4 5 5 8 4 3 1 5 5 3 4" d="M28.2547 28.2345C28.2547 28.5044 28.2012 28.7716 28.0975 29.0209C27.9938 29.2702 27.8419 29.4968 27.6504 29.6876C27.4588 29.8784 27.2313 30.0298 26.981 30.1331C26.7307 30.2364 26.4625 30.2895 26.1916 30.2895C25.9206 30.2895 25.6524 30.2364 25.4021 30.1331C25.1518 30.0298 24.9243 29.8784 24.7328 29.6876C24.5412 29.4968 24.3893 29.2702 24.2856 29.0209C24.1819 28.7716 24.1285 28.5044 24.1285 28.2345C24.1285 27.9646 24.1819 27.6974 24.2856 27.448C24.3893 27.1987 24.5412 26.9722 24.7328 26.7814C24.9243 26.5905 25.1518 26.4392 25.4021 26.3359C25.6524 26.2326 25.9206 26.1794 26.1916 26.1794C26.4625 26.1794 26.7307 26.2326 26.981 26.3359C27.2313 26.4392 27.4588 26.5905 27.6504 26.7814C27.8419 26.9722 27.9938 27.1987 28.0975 27.448C28.2012 27.6974 28.2547 27.9646 28.2547 28.2345V28.2345Z" fill="var(--fill-0, #FEFEFE)"/>
<path id="path4532 4 1 2 4 6 8 5 2 1 3" d="M71.9366 32.4575C71.9366 34.7354 71.0283 36.92 69.4113 38.5307C67.7942 40.1415 65.601 41.0464 63.3142 41.0464C62.1819 41.0464 61.0607 40.8242 60.0145 40.3926C58.9684 39.961 58.0179 39.3283 57.2172 38.5308C56.4165 37.7332 55.7814 36.7864 55.3481 35.7443C54.9148 34.7023 54.6919 33.5854 54.6919 32.4575C54.6919 31.3296 54.9148 30.2127 55.3481 29.1707C55.7814 28.1286 56.4165 27.1818 57.2172 26.3842C58.0179 25.5867 58.9684 24.9541 60.0145 24.5224C61.0607 24.0908 62.1819 23.8686 63.3142 23.8686C65.601 23.8686 67.7942 24.7735 69.4113 26.3842C71.0283 27.995 71.9366 30.1796 71.9366 32.4575V32.4575Z" fill="var(--fill-0, #FAB84A)"/>
<path id="path4532 4 5 7 4 9 1 2 1 4 9 1" d="M69.8039 32.3804C69.8039 34.078 69.127 35.7062 67.9219 36.9066C66.7168 38.107 65.0822 38.7815 63.3779 38.7815C61.6736 38.7815 60.039 38.1071 58.8339 36.9067C57.6288 35.7062 56.9519 34.078 56.9519 32.3804C56.9519 31.5398 57.118 30.7074 57.4409 29.9308C57.7639 29.1542 58.2372 28.4485 58.8339 27.8541C59.4306 27.2597 60.1392 26.7882 60.9188 26.4665C61.6985 26.1448 62.534 25.9793 63.3779 25.9793C65.0822 25.9793 66.7168 26.6537 67.9219 27.8541C69.127 29.0546 69.8039 30.6827 69.8039 32.3804V32.3804Z" fill="var(--fill-0, #201E1E)"/>
<path id="path4532 4 5 5 1 5 9 5 6 7 7 3 4" d="M61.8947 28.2612C61.8947 28.531 61.8412 28.7983 61.7375 29.0476C61.6339 29.2969 61.482 29.5235 61.2904 29.7143C61.0988 29.9051 60.8713 30.0565 60.621 30.1598C60.3707 30.263 60.1025 30.3162 59.8316 30.3162C59.5607 30.3162 59.2925 30.263 59.0422 30.1598C58.7918 30.0565 58.5644 29.9051 58.3728 29.7143C58.1812 29.5235 58.0293 29.2969 57.9256 29.0476C57.822 28.7983 57.7685 28.531 57.7685 28.2612C57.7685 27.9913 57.822 27.7241 57.9256 27.4748C58.0293 27.2254 58.1812 26.9989 58.3728 26.808C58.5644 26.6172 58.7918 26.4658 59.0422 26.3626C59.2925 26.2593 59.5607 26.2061 59.8316 26.2061C60.1025 26.2061 60.3707 26.2593 60.621 26.3626C60.8713 26.4658 61.0988 26.6172 61.2904 26.808C61.482 26.9989 61.6339 27.2254 61.7375 27.4748C61.8412 27.7241 61.8947 27.9913 61.8947 28.2612Z" fill="var(--fill-0, #FEFEFE)"/>
<path id="path5398 51 4 4 6 1 0 4 4" d="M36.7413 90.3706C36.7413 90.8309 36.7049 91.2867 36.6344 91.7119C36.5638 92.1371 36.4604 92.5235 36.3301 92.849C36.1998 93.1745 36.0451 93.4327 35.8749 93.6088C35.7046 93.7849 35.5221 93.8756 35.3377 93.8756C34.9655 93.8756 34.6086 93.5063 34.3454 92.849C34.0822 92.1917 33.9342 91.3002 33.9342 90.3706C33.9342 89.4411 34.0822 88.5496 34.3454 87.8922C34.6086 87.2349 34.9655 86.8657 35.3377 86.8657C35.71 86.8657 36.0669 87.2349 36.3301 87.8922C36.5933 88.5496 36.7413 89.441 36.7413 90.3706V90.3706Z" fill="var(--fill-0, #E9934C)"/>
<path id="path5398 1 7 5 2 0 1 4 6 0" d="M39.9462 90.3546C39.9462 90.8149 39.9098 91.2706 39.8393 91.6958C39.7687 92.1211 39.6653 92.5075 39.535 92.8329C39.4047 93.1584 39.25 93.4166 39.0797 93.5927C38.9095 93.7689 38.7269 93.8595 38.5426 93.8595C38.3583 93.8595 38.1758 93.7689 38.0055 93.5927C37.8352 93.4166 37.6806 93.1584 37.5503 92.8329C37.4199 92.5075 37.3165 92.1211 37.246 91.6958C37.1755 91.2706 37.139 90.8149 37.139 90.3546C37.139 89.425 37.2871 88.5335 37.5503 87.8762C37.8135 87.2189 38.1704 86.8496 38.5426 86.8496C38.9149 86.8496 39.2718 87.2189 39.535 87.8762C39.7982 88.5335 39.9462 89.425 39.9462 90.3546V90.3546Z" fill="var(--fill-0, #E9934C)"/>
<path id="path5398 5 11 3 0 3 5 4 6 1" d="M43.2152 90.3861C43.2152 91.3156 43.0672 92.2071 42.804 92.8644C42.5408 93.5217 42.1839 93.891 41.8116 93.891C41.6273 93.891 41.4448 93.8004 41.2745 93.6242C41.1042 93.4481 40.9496 93.1899 40.8193 92.8644C40.689 92.539 40.5855 92.1526 40.515 91.7274C40.4445 91.3021 40.4081 90.8463 40.4081 90.3861C40.4081 89.9258 40.4445 89.47 40.515 89.0448C40.5855 88.6195 40.689 88.2332 40.8193 87.9077C40.9496 87.5822 41.1042 87.324 41.2745 87.1479C41.4448 86.9717 41.6273 86.8811 41.8116 86.8811C42.1839 86.8811 42.5408 87.2504 42.804 87.9077C43.0672 88.565 43.2152 89.4565 43.2152 90.3861V90.3861Z" fill="var(--fill-0, #E9934C)"/>
<path id="path5398 7 5 2 9 8 2 6 88 7" d="M51.2596 90.4787C51.2596 90.939 51.2232 91.3947 51.1527 91.82C51.0821 92.2452 50.9787 92.6316 50.8484 92.9571C50.7181 93.2825 50.5634 93.5407 50.3932 93.7169C50.2229 93.893 50.0404 93.9837 49.856 93.9837C49.6717 93.9837 49.4892 93.893 49.3189 93.7169C49.1487 93.5407 48.994 93.2825 48.8637 92.9571C48.7334 92.6316 48.6299 92.2452 48.5594 91.82C48.4889 91.3947 48.4525 90.939 48.4525 90.4787C48.4525 89.5491 48.6005 88.6576 48.8637 88.0003C49.1269 87.343 49.4838 86.9737 49.856 86.9737C50.2283 86.9737 50.5852 87.343 50.8484 88.0003C51.1116 88.6576 51.2596 89.5491 51.2596 90.4787V90.4787Z" fill="var(--fill-0, #E9934C)"/>
<path id="path5398 1 6 2 17 7 0 76 8 2 5" d="M54.4645 90.4638C54.4645 90.9241 54.4281 91.3799 54.3575 91.8052C54.287 92.2304 54.1836 92.6167 54.0533 92.9422C53.9229 93.2677 53.7683 93.5259 53.598 93.702C53.4277 93.8782 53.2452 93.9688 53.0609 93.9688C52.8766 93.9688 52.6941 93.8782 52.5238 93.702C52.3535 93.5259 52.1989 93.2677 52.0685 92.9422C51.9382 92.6167 51.8348 92.2304 51.7643 91.8052C51.6937 91.3799 51.6573 90.9241 51.6573 90.4638C51.6573 90.0036 51.6937 89.5478 51.7643 89.1226C51.8348 88.6973 51.9382 88.3109 52.0685 87.9855C52.1989 87.66 52.3535 87.4018 52.5238 87.2257C52.6941 87.0495 52.8766 86.9589 53.0609 86.9589C53.2452 86.9589 53.4277 87.0495 53.598 87.2257C53.7683 87.4018 53.9229 87.66 54.0533 87.9855C54.1836 88.3109 54.287 88.6973 54.3575 89.1226C54.4281 89.5478 54.4645 90.0036 54.4645 90.4638V90.4638Z" fill="var(--fill-0, #E9934C)"/>
<path id="path5398 5 1 7 43 3 1 14 0 3 5" d="M57.732 90.4953C57.732 91.4249 57.584 92.3164 57.3208 92.9737C57.0576 93.631 56.7007 94.0003 56.3284 94.0003C55.9562 94.0003 55.5993 93.631 55.3361 92.9737C55.0729 92.3164 54.9249 91.4249 54.9249 90.4953C54.9249 90.0351 54.9613 89.5793 55.0318 89.1541C55.1023 88.7288 55.2058 88.3424 55.3361 88.017C55.4664 87.6915 55.621 87.4333 55.7913 87.2572C55.9616 87.081 56.1441 86.9904 56.3284 86.9904C56.5128 86.9904 56.6953 87.081 56.8656 87.2572C57.0358 87.4333 57.1905 87.6915 57.3208 88.017C57.4511 88.3424 57.5545 88.7288 57.6251 89.1541C57.6956 89.5793 57.732 90.0351 57.732 90.4953V90.4953Z" fill="var(--fill-0, #E9934C)"/>
<path id="path7408 4 4 2 1 2" d="M31.964 55.4065C31.964 55.4065 28.701 56.5762 24.9136 54.5368C24.9136 54.5368 22.0334 53.3069 20.4019 58.4055C20.2854 58.2856 18.3295 56.6962 19.1452 52.6472C19.1452 52.6472 19.6405 51.5376 17.4555 51.8674C17.4555 51.8674 12.328 53.5171 11.6579 54.4468C11.6579 54.4468 13.5223 51.5676 13.4932 49.7081C13.4932 49.7081 13.4933 49.0333 11.6288 49.0632C11.6288 49.0632 7.5645 49.0183 5.94759 47.9235C5.94759 47.8635 8.05976 45.8991 8.40937 44.2496C8.40937 44.2496 8.89016 41.7453 6.61772 41.8802C6.61772 41.8802 3.92292 41.8802 2.20404 43.5297C2.20404 43.5297 1.66534 40.1378 5.31163 37.4869C5.31163 37.4869 6.09444 37.0415 5.16741 36.5749C5.16741 36.5749 0.961413 35.3204 0 30.3118C0 30.3118 1.72322 32.4927 3.35471 31.5929C3.35471 31.5929 3.67535 31.473 3.87927 30.9931C3.87927 30.9931 3.80777 28.0919 0.058499 26.9255C0.058499 26.9255 1.19888 25.5946 3.99569 25.3546C3.99569 25.3546 5.91859 24.7848 4.98632 23.4952C4.98632 23.4952 3.64604 22.0256 2.80119 21.5457C2.80119 21.5457 5.80207 21.6656 6.76349 21.0658C6.67606 21.0358 2.64308 20.566 3.2549 13.6379C3.2549 13.6379 6.2973 17.9467 7.55004 14.9775C7.46265 14.7975 8.02054 13.0052 5.39851 11.5356C5.39851 11.5356 7.11297 8.88908 12.0657 8.8291C12.0657 8.8291 14.4255 8.22927 12.4153 6.15984C12.4153 6.15984 15.7366 5.58997 17.2225 7.02957C17.2516 6.96958 16.6146 4.0575 18.2169 0.0985841C18.2169 0.0985841 17.6885 7.23956 18.7956 10.0288C18.6499 9.93882 17.0185 7.62943 14.8918 6.75965C14.8918 6.75965 15.9696 10.4487 12.1823 10.5386C12.1823 10.5386 9.12311 9.90881 7.66646 11.0785C7.66646 11.0785 9.96816 15.2774 8.19102 17.0469C8.19102 17.0469 6.55955 18.5165 4.43279 16.447C4.43279 16.447 4.21233 19.8061 8.58236 20.7059C8.58236 20.7059 7.83349 22.4512 5.56107 22.5111C5.56107 22.5111 7.48731 24.3371 6.05976 25.7167C6.05976 25.7167 4.67904 26.9302 2.83035 26.9442C2.83035 26.9442 5.93198 28.7494 5.51995 31.5488C5.51995 31.5488 4.51908 33.8203 1.99495 33.0333C1.99495 33.0333 3.66313 34.5024 6.46481 35.4355C6.46481 35.4355 8.16685 36.5289 7.384 37.7165C7.384 37.7165 4.80244 38.6539 4.01963 41.326C4.01963 41.326 7.89345 39.4619 9.66508 40.8616C9.66508 40.8616 10.9074 44.3602 7.96918 47.1575C7.96918 47.1575 13.5271 48.0752 15.7932 47.7782C15.7932 47.7782 15.1057 50.8518 14.4877 51.7001C14.8173 51.5305 19.051 49.7884 21.6054 50.3823C21.6054 50.3823 19.7528 54.0287 19.9588 55.386C19.9588 55.386 23.2456 51.9041 26.0884 52.413C26.0884 52.413 25.1403 54.5364 31.964 55.4065V55.4065Z" fill="var(--fill-0, #0A5B59)"/>
<path id="path7468 3 5 8 5 2" d="M60.3076 56.0018C60.3076 56.0018 62.7178 58.0312 67.7725 56.783C67.7725 56.783 68.4622 56.5169 68.9794 56.1621C68.9794 56.1621 69.9641 55.3273 69.9887 56.9726C69.9887 56.9726 73.4045 56.2508 73.9792 52.5553C73.9792 52.5553 74.2474 51.0643 75.799 52.1878C75.799 52.1878 76.6594 52.9079 77.0617 54.8592C77.0617 54.8592 78.9215 51.7866 78.0595 48.8006C78.0595 48.8006 78.0308 48.1502 78.6342 48.298C78.6342 48.298 83.0594 49.6284 85.0708 47.8545C85.0708 47.8545 82.7145 46.5537 83.2317 43.479C83.2317 43.479 83.6762 42.5794 85.5153 43.1411C85.5153 43.1411 87.432 43.8153 87.6906 44.7614C87.6906 44.7614 88.3973 41.1989 85.7153 38.6067C85.7153 38.6067 84.9742 37.8258 86.2136 37.115C86.2136 37.115 90.2931 35.3868 90.8823 32.3765C90.8823 32.3765 88.3322 33.4272 87.427 30.796C87.427 30.796 88.7307 27.4947 92.8253 28.4702C92.8253 28.4702 91.6589 25.4917 86.051 24.3629C86.051 24.3629 84.9335 24.0075 86.051 22.4606L87.8917 20.1918C87.8917 20.1918 85.3867 21.4571 84.2082 20.9554C84.2082 20.9554 83.8974 20.809 84.4866 20.6C84.4866 20.6 88.4921 18.8606 88.1263 13.4044C88.1263 13.4044 84.5678 16.0427 82.861 13.555C82.861 13.555 82.2539 11.9838 85.6064 10.6041C85.6064 10.6041 84.0363 7.26284 75.5309 8.17933C75.5309 8.17933 76.9598 3.47758 74.2285 0.0160348C74.2285 0.0160348 76.4811 7.45069 73.6365 10.0847C73.6365 10.0847 78.96 7.78515 84.2428 10.3774C84.2428 10.3774 81.0325 10.3774 82.1297 14.433C82.1297 14.433 83.3487 16.3981 87.1685 15.5201C87.1685 15.5201 85.1369 19.5338 82.6986 21.039C82.6986 21.039 84.4865 22.1261 85.7056 22.0006C85.6454 22.2223 84.2086 24.5283 83.7202 24.7353C83.7202 24.7353 87.453 25.22 89.9319 27.1851C89.9319 27.1851 87.575 27.7286 86.4372 31.0316C86.4372 31.0316 87.7376 33.4566 89.1192 33.7911C89.1525 33.6636 86.3152 36.4251 84.1208 37.1777C84.2833 37.3867 86.7623 41.5259 87.2092 42.9893C87.2092 42.9893 85.1775 41.1915 82.6986 42.613C82.6986 42.613 81.7709 45.5099 82.9203 47.6681C82.9203 47.6681 79.7434 48.0583 77.3413 47.0267C77.3413 47.0267 77.5317 51.2931 77.2731 52.3869C77.2731 52.3869 75.2891 50.5449 73.3618 50.7797C73.3618 50.7797 72.9736 54.5656 71.623 55.1273C71.623 55.1273 70.8184 54.063 69.669 53.6787C69.669 53.6787 65.9795 57.3359 60.3076 56.0018Z" fill="var(--fill-0, #0A5B59)"/>
<path id="path15956 8 02 3" fill-rule="evenodd" clip-rule="evenodd" d="M21.4803 68.4501C21.4803 68.4501 21.7438 59.1945 25.2741 54.0389C25.2741 54.0389 32.9993 56.9845 35.4583 53.9273C35.4583 53.9273 38.457 55.5434 38.8806 59.004C38.8806 59.004 39.2156 60.6084 37.3932 64.254C37.3932 64.254 37.6197 57.1606 31.6244 58.0295C31.6244 58.0295 23.6271 58.0232 21.4803 68.4501V68.4501Z" fill="var(--fill-0, #188683)"/>
<path id="path15958 7 4 4" fill-rule="evenodd" clip-rule="evenodd" d="M33.053 81.1591C33.053 81.1591 23.8192 77.8129 21.4891 69.5499C21.4891 69.5499 20.4996 80.7297 33.9855 88.9927C33.9855 88.9927 33.1501 83.8076 33.053 81.1591Z" fill="var(--fill-0, #188683)"/>
<path id="path15956 3 0 0 2" fill-rule="evenodd" clip-rule="evenodd" d="M70.2015 68.9053C70.2015 68.9053 70.3794 60.6208 66.8491 55.4653C66.8491 55.4653 61.3304 57.9076 56.1531 53.897C56.1531 53.897 53.1543 55.2572 52.7748 59.371C52.7748 59.371 52.4363 61.4771 54.4209 64.2237C54.4209 64.2237 54.0622 57.6158 60.0574 58.4847C60.0574 58.4847 68.0548 58.4784 70.2015 68.9053V68.9053Z" fill="var(--fill-0, #188683)"/>
<path id="path15958 6 0 5 3" fill-rule="evenodd" clip-rule="evenodd" d="M58.6548 82.0581C58.6548 82.0581 67.8989 78.2643 70.2289 70.0012C70.2289 70.0012 71.1395 81.098 57.6536 89.361C57.6536 89.361 58.5577 84.7065 58.6548 82.0581Z" fill="var(--fill-0, #188683)"/>
<path id="path5398 51 4 4 6 1 7 9 1 0" d="M36.5548 89.8879C36.5548 90.6712 36.4301 91.4224 36.2083 91.9763C35.9865 92.5302 35.6858 92.8413 35.3721 92.8413C35.0584 92.8413 34.7577 92.5302 34.5359 91.9763C34.3141 91.4224 34.1894 90.6712 34.1894 89.8879C34.1894 89.5001 34.2201 89.116 34.2795 88.7577C34.339 88.3994 34.4261 88.0738 34.5359 87.7995C34.6457 87.5253 34.7761 87.3078 34.9196 87.1594C35.063 87.011 35.2168 86.9345 35.3721 86.9345C35.5274 86.9345 35.6812 87.011 35.8246 87.1594C35.9681 87.3078 36.0985 87.5253 36.2083 87.7995C36.3181 88.0738 36.4052 88.3994 36.4647 88.7577C36.5241 89.116 36.5548 89.5001 36.5548 89.8879V89.8879Z" fill="var(--fill-0, #FAB84A)"/>
<path id="path5398 51 4 4 6 1 7 4 9 66 8" d="M39.7373 89.86C39.7373 90.6433 39.6125 91.3945 39.3907 91.9483C39.1689 92.5022 38.8682 92.8134 38.5546 92.8134C38.3993 92.8134 38.2455 92.737 38.102 92.5886C37.9585 92.4401 37.8282 92.2226 37.7184 91.9484C37.6086 91.6741 37.5214 91.3485 37.462 90.9902C37.4026 90.6319 37.3718 90.2479 37.3718 89.86C37.3718 89.4722 37.4026 89.0881 37.462 88.7298C37.5214 88.3715 37.6086 88.0459 37.7184 87.7716C37.8282 87.4974 37.9585 87.2798 38.102 87.1314C38.2455 86.983 38.3993 86.9066 38.5546 86.9066C38.8682 86.9066 39.1689 87.2178 39.3907 87.7717C39.6125 88.3256 39.7373 89.0767 39.7373 89.86V89.86Z" fill="var(--fill-0, #FAB84A)"/>
<path id="path5398 51 4 4 6 1 7 4 6 5 8 0" d="M42.9825 89.9348C42.9825 90.3227 42.9518 90.7067 42.8924 91.065C42.8329 91.4234 42.7458 91.749 42.636 92.0232C42.5262 92.2975 42.3959 92.515 42.2524 92.6635C42.1089 92.8119 41.9551 92.8882 41.7998 92.8882C41.6445 92.8882 41.4908 92.8119 41.3473 92.6635C41.2038 92.515 41.0735 92.2975 40.9636 92.0232C40.8538 91.749 40.7667 91.4234 40.7073 91.065C40.6478 90.7067 40.6171 90.3227 40.6171 89.9348C40.6171 89.547 40.6478 89.163 40.7073 88.8046C40.7667 88.4463 40.8538 88.1207 40.9636 87.8465C41.0735 87.5722 41.2038 87.3547 41.3473 87.2062C41.4908 87.0578 41.6445 86.9815 41.7998 86.9815C41.9551 86.9815 42.1089 87.0578 42.2524 87.2062C42.3959 87.3547 42.5262 87.5722 42.636 87.8465C42.7458 88.1207 42.8329 88.4463 42.8924 88.8046C42.9518 89.163 42.9825 89.547 42.9825 89.9348V89.9348Z" fill="var(--fill-0, #FAB84A)"/>
<path id="path5398 51 4 4 6 1 7 4 6 7 7 9 3" d="M51.0581 90.0222C51.0581 90.41 51.0274 90.794 50.968 91.1524C50.9085 91.5107 50.8214 91.8363 50.7116 92.1105C50.6017 92.3848 50.4714 92.6023 50.3279 92.7508C50.1845 92.8992 50.0307 92.9755 49.8754 92.9755C49.7201 92.9755 49.5663 92.8992 49.4228 92.7508C49.2794 92.6023 49.149 92.3848 49.0392 92.1105C48.9294 91.8363 48.8423 91.5107 48.7828 91.1524C48.7234 90.794 48.6927 90.41 48.6927 90.0222C48.6927 89.6343 48.7234 89.2503 48.7828 88.892C48.8423 88.5336 48.9294 88.208 49.0392 87.9338C49.149 87.6595 49.2794 87.442 49.4228 87.2935C49.5663 87.1451 49.7201 87.0688 49.8754 87.0688C50.0307 87.0688 50.1845 87.1451 50.3279 87.2935C50.4714 87.442 50.6017 87.6595 50.7116 87.9338C50.8214 88.208 50.9085 88.5336 50.968 88.892C51.0274 89.2503 51.0581 89.6343 51.0581 90.0222V90.0222Z" fill="var(--fill-0, #FAB84A)"/>
<path id="path5398 51 4 4 6 1 7 4 6 7 8 2 2 6" d="M54.2526 90.0097C54.2526 90.3975 54.2219 90.7816 54.1624 91.1399C54.103 91.4982 54.0159 91.8238 53.906 92.0981C53.7962 92.3723 53.6659 92.5899 53.5224 92.7383C53.3789 92.8867 53.2252 92.9631 53.0699 92.9631C52.9146 92.9631 52.7608 92.8867 52.6173 92.7383C52.4738 92.5899 52.3435 92.3723 52.2337 92.0981C52.1239 91.8238 52.0367 91.4982 51.9773 91.1399C51.9179 90.7816 51.8872 90.3975 51.8872 90.0097C51.8872 89.6218 51.9179 89.2378 51.9773 88.8795C52.0367 88.5212 52.1239 88.1955 52.2337 87.9213C52.3435 87.647 52.4738 87.4295 52.6173 87.2811C52.7608 87.1327 52.9146 87.0563 53.0699 87.0563C53.2252 87.0563 53.3789 87.1327 53.5224 87.2811C53.6659 87.4295 53.7962 87.647 53.906 87.9213C54.0159 88.1955 54.103 88.5212 54.1624 88.8795C54.2219 89.2378 54.2526 89.6218 54.2526 90.0097V90.0097Z" fill="var(--fill-0, #FAB84A)"/>
<path id="path5398 51 4 4 6 1 7 4 6 7 8 3 5 2 6" d="M57.5231 90.0477C57.5231 90.4355 57.4924 90.8196 57.4329 91.1779C57.3735 91.5362 57.2864 91.8618 57.1765 92.1361C57.0667 92.4103 56.9364 92.6278 56.7929 92.7762C56.6494 92.9246 56.4957 93.0011 56.3404 93.0011C56.1851 93.0011 56.0313 92.9246 55.8878 92.7762C55.7443 92.6278 55.614 92.4103 55.5042 92.1361C55.3944 91.8618 55.3072 91.5362 55.2478 91.1779C55.1884 90.8196 55.1577 90.4355 55.1577 90.0477C55.1577 89.2644 55.2824 88.5132 55.5042 87.9593C55.726 87.4054 56.0267 87.0943 56.3404 87.0943C56.654 87.0943 56.9548 87.4054 57.1765 87.9593C57.3983 88.5132 57.5231 89.2644 57.5231 90.0477V90.0477Z" fill="var(--fill-0, #FAB84A)"/>
</g>
</svg>
