<svg preserveAspectRatio="none" width="100%" height="100%" overflow="visible" style="display: block;" viewBox="0 0 335.663 54.7285" fill="none" xmlns="http://www.w3.org/2000/svg">
<g id="g5150 2 9 4 0 6 9 5 9 6 9 8">
<path id="path4237 8 4 2 1 2 7 9 8 0 7 9 7" d="M17.375 16.1834C15.3011 16.1679 13.0773 16.4069 11.114 17.1665C11.114 17.1665 1.09214 21.0468 0.176181 31.9873C0.176181 31.9873 -1.06308 41.0416 3.03187 46.9161C3.03187 46.9161 6.19297 52.2126 12.8985 53.7369C12.8985 53.7369 26.6905 57.6998 33.9294 45.2001C33.9294 45.2001 34.5511 44.0855 33.7699 43.1693L29.5133 40.5824C29.5133 40.5824 28.3301 40.0704 27.4141 41.3908C27.4141 41.3908 25.4707 45.009 22.1941 46.1141C22.1941 46.1141 17.5836 47.7909 13.7736 46.1141C13.7736 46.1141 8.66934 44.4374 7.92642 36.1868H33.6621C33.6621 36.1868 34.9394 36.2826 35.1299 34.7963C35.1299 34.7963 36.007 21.1007 24.7459 17.1665C24.7459 17.1665 21.3343 16.2132 17.375 16.1834V16.1834ZM17.9591 23.1034C20.9682 23.0707 22.914 24.1188 22.914 24.1188C27.2244 26.1668 27.1167 30.8556 27.1167 30.8556H8.41997C9.87478 25.4122 12.8921 24.1727 12.8921 24.1727C14.7661 23.3946 16.4894 23.1194 17.9591 23.1034Z" fill="var(--fill-0, #0C5257)"/>
<path id="path4241 8 5 7 1 4 6 5 7 2 9 5 1" d="M67.2297 0C67.2297 0 66.234 0.0538943 66.0184 1.34736V23.0581C66.0184 23.0581 64.2553 18.5996 59.8738 17.0371C59.8738 17.0371 54.1979 15.0942 49.1688 17.0759C49.1688 17.0759 42.9197 18.8295 40.0241 28.814C40.0241 28.814 38.4615 33.8136 39.8344 41.214C39.8344 41.214 41.0146 48.6682 48.1774 52.8983C48.1774 52.8983 53.2835 55.9851 60.751 52.8983C60.751 52.8983 64.0025 51.631 66.0722 48.2634V51.3742C66.0722 51.3742 66.0083 52.5547 67.2274 52.7453H72.5617C72.5617 52.7453 73.7809 52.5556 73.7428 51.2599V1.40125C73.7428 1.40125 73.749 0.29642 72.4022 0H67.2297ZM56.697 23.2694C62.1129 23.2694 66.5033 28.7095 66.5033 35.4215C66.5033 42.1335 62.1129 47.5757 56.697 47.5757C51.2811 47.5757 46.8907 42.1335 46.8907 35.4215C46.8907 28.7095 51.2811 23.2694 56.697 23.2694Z" fill="var(--fill-0, #0C5257)"/>
<path id="path4245 2 5 9 3 8 7 3 5 5 2 0 8" d="M80.9055 17.3805H85.8203C85.8203 17.3805 87.0776 17.2281 87.23 18.8287L87.2744 39.505C87.2744 39.505 87.3822 45.3794 92.3393 46.6729C92.3393 46.6729 96.1109 47.616 99.3977 46.6729C99.3977 46.6729 104.489 45.5411 104.516 39.4511V18.8635C104.516 18.8635 104.355 17.4353 105.809 17.3814H110.794C110.794 17.3814 112.275 17.2466 112.329 18.6479V37.1067C112.329 37.1067 112.356 48.2628 105.675 51.9815C105.675 51.9815 96.8383 57.1014 85.9544 51.9815C85.9544 51.9815 80.5124 49.7718 79.5964 38.7774V18.6748C79.5964 18.6748 79.6101 17.4186 80.9055 17.3805V17.3805Z" fill="var(--fill-0, #0C5257)"/>
<path id="path4247 45 1 5 8 6 7 0 0 9 9 6 71" d="M144.307 24.3067V19.0251C144.307 19.0251 144.388 18.2706 143.203 17.7316C143.203 17.7316 135.013 13.7973 125.799 18.3244C125.799 18.3244 119.272 21.1914 117.252 29.1561C117.252 29.1561 115.575 36.1365 117.252 41.2025C117.252 41.2025 119.145 49.61 126.742 52.6281C126.742 52.6281 133.581 56.2821 143.338 52.3586C143.338 52.3586 144.331 52.109 144.307 50.9574V45.8097C144.307 45.8097 143.96 44.2092 142.455 44.5903C142.455 44.5903 141.998 44.7236 141.465 45.1047C141.465 45.1047 139.674 46.4004 137.541 46.7053C137.541 46.7053 133.083 47.5246 129.94 45.6764C129.94 45.6764 125.503 44.005 124.533 36.6754C124.533 36.6754 124.183 33.6304 124.533 32.3639C124.533 32.3639 125.52 25.2309 131.997 23.7447C131.997 23.7447 135.274 22.8681 139.274 23.859C139.274 23.859 141.29 24.684 141.964 25.2499C141.964 25.2499 143.58 26.2469 144.307 24.3067V24.3067Z" fill="var(--fill-0, #0C5257)"/>
<path id="path4241 1 5 7 4 7 5 1 9 7 8 2 5 54" d="M161.688 16.2939C160.063 16.2859 158.257 16.5031 156.528 17.1843C156.528 17.1843 150.281 18.9378 147.385 28.9224C147.385 28.9224 145.821 33.922 147.194 41.3224C147.194 41.3224 148.376 48.7766 155.539 53.0067C155.539 53.0067 160.643 56.0935 168.11 53.0067C168.11 53.0067 171.362 51.7393 173.431 48.3718V51.4825C173.431 51.4825 173.368 52.6652 174.587 52.8558H179.921C179.921 52.8558 181.14 52.664 181.102 51.3683V18.758C181.102 18.758 181.111 17.6531 179.764 17.3567H174.591C174.591 17.3567 173.593 17.4106 173.378 18.7041V23.1687C173.378 23.1687 171.617 18.7101 167.235 17.1476C167.235 17.1476 164.79 16.3093 161.688 16.2939V16.2939ZM164.056 23.3778C169.472 23.3778 173.863 28.82 173.863 35.532C173.863 42.244 169.472 47.6841 164.056 47.6841C158.64 47.6841 154.25 42.244 154.25 35.532C154.25 28.82 158.64 23.3778 164.056 23.3778Z" fill="var(--fill-0, #0C5257)"/>
<path id="path4247 4 1 1 3 4 0 9 9 4 4 3 6 84" d="M213.875 24.2851V19.0034C213.875 19.0034 213.956 18.2489 212.771 17.7099C212.771 17.7099 204.581 13.7757 195.367 18.3028C195.367 18.3028 188.839 21.1697 186.82 29.1345C186.82 29.1345 185.143 36.1149 186.82 41.1809C186.82 41.1809 188.713 49.5884 196.31 52.6065C196.31 52.6065 203.149 56.2605 212.905 52.337C212.905 52.337 213.899 52.0874 213.875 50.9358V45.7881C213.875 45.7881 213.528 44.1875 212.023 44.5686C212.023 44.5686 211.566 44.702 211.032 45.0831C211.032 45.0831 209.242 46.3788 207.108 46.6837C207.108 46.6837 202.65 47.503 199.507 45.6547C199.507 45.6547 195.071 43.9834 194.101 36.6538C194.101 36.6538 193.751 33.6088 194.101 32.3423C194.101 32.3423 195.088 25.2092 201.565 23.723C201.565 23.723 204.841 22.8465 208.842 23.8373C208.842 23.8373 210.858 24.6623 211.531 25.2282C211.531 25.2282 213.148 26.2252 213.875 24.2851V24.2851Z" fill="var(--fill-0, #DF2B3C)"/>
<path id="path4288 7 1 1 2 9 1 5 5 6 1 1 5" fill-rule="evenodd" clip-rule="evenodd" d="M259.891 16.1299C249.524 16.1299 241.119 24.7301 241.119 35.3378C241.119 45.9454 249.524 54.5435 259.891 54.5435C270.258 54.5435 278.663 45.9454 278.663 35.3378C278.663 24.7301 270.258 16.1299 259.891 16.1299ZM259.891 23.3258C265.765 23.3258 270.527 28.7038 270.527 35.3378C270.527 41.9717 265.765 47.3497 259.891 47.3497C254.017 47.3497 249.255 41.9717 249.255 35.3378C249.255 28.7038 254.017 23.3258 259.891 23.3258Z" fill="var(--fill-0, #DF2B3C)"/>
<path id="path4312 1 5 2 7 0 6 1 8 0 7 4 7" d="M219.148 20.2375V52.574C219.148 52.574 219.041 54.1638 220.765 54.2447H225.722C225.722 54.2447 226.934 54.2447 227.069 52.8165V36.4347C227.069 36.4347 226.941 27.6315 231.056 25.2307C231.056 25.2307 233.495 23.8968 237.419 25.1163C237.419 25.1163 238.714 25.688 239.476 24.8496L241.305 20.5051C241.305 20.5051 241.724 18.8665 240.543 18.5616C240.543 18.5616 234.904 15.894 230.409 19.3619C230.409 19.3619 228.161 20.9625 227.132 24.3161V20.2095C227.132 20.2095 227.177 18.7633 225.76 18.7522H220.503C220.503 18.7522 219.432 18.7503 219.148 20.2375V20.2375Z" fill="var(--fill-0, #DF2B3C)"/>
<path id="path4314 1 2 3 7 0 27 1 2 8 8 9 93" d="M298.919 24.5762C298.919 24.5762 299.62 25.5194 301.048 24.7918L304.173 22.4205C304.173 22.4205 305.008 21.666 304.361 20.642C304.361 20.642 301.96 16.6565 296.321 16.1992C296.321 16.1992 292.282 15.8562 289.996 16.5421C289.996 16.5421 282.719 17.876 281.386 24.5831C281.386 24.5831 280.929 26.5267 281.5 29.1181C281.5 29.1181 282.224 33.3101 287.939 35.8634C287.939 35.8634 295.282 39.2085 295.659 39.3702C295.659 39.3702 299.808 41.0409 299 44.4363C299 44.4363 298.731 47.3465 295.444 47.9933C295.444 47.9933 289.463 49.5023 286.661 44.7057C286.661 44.7057 285.958 43.1803 284.586 43.5233L280.586 45.7717C280.586 45.7717 279.443 46.4958 280.167 47.7724C280.167 47.7724 281.805 50.9164 285.005 52.5932C285.005 52.5932 289.844 55.7944 298.378 53.6222C298.378 53.6222 304.284 51.6786 305.77 47.7915C305.77 47.7915 307.408 44.5903 306.379 39.9791C306.379 39.9791 305.389 36.0158 300.664 33.6912C300.664 33.6912 294.149 30.7949 293.273 30.5281C293.273 30.5281 288.93 28.6989 289.006 26.4124C289.006 26.4124 288.282 23.8972 291.292 22.6777C291.292 22.6777 293.616 21.5344 296.626 22.6777C296.626 22.6777 298.089 23.2737 298.919 24.5762V24.5762Z" fill="var(--fill-0, #DF2B3C)"/>
<path id="path4314 9 5 7 3 9 6 2 1 8 2 8 9 0" d="M327.863 24.9269C327.863 24.9269 328.564 25.8701 329.992 25.1425L333.117 22.7712C333.117 22.7712 333.952 22.0166 333.305 20.9927C333.305 20.9927 330.904 17.0071 325.265 16.5498C325.265 16.5498 321.226 16.2068 318.94 16.8928C318.94 16.8928 311.663 18.2266 310.33 24.9338C310.33 24.9338 309.873 26.8773 310.444 29.4688C310.444 29.4688 311.168 33.6607 316.883 36.214C316.883 36.214 324.226 39.5592 324.603 39.7209C324.603 39.7209 328.752 41.3916 327.944 44.7869C327.944 44.7869 327.675 47.6972 324.388 48.344C324.388 48.344 318.407 49.853 315.605 45.0564C315.605 45.0564 314.902 43.531 313.53 43.8739L309.53 46.1224C309.53 46.1224 308.387 46.8464 309.111 48.1231C309.111 48.1231 310.749 51.2671 313.949 52.9439C313.949 52.9439 318.788 56.145 327.322 53.9728C327.322 53.9728 333.228 52.0293 334.714 48.1422C334.714 48.1422 336.352 44.941 335.323 40.3298C335.323 40.3298 334.333 36.3665 329.608 34.0418C329.608 34.0418 323.093 31.1456 322.217 30.8788C322.217 30.8788 317.874 29.0495 317.95 26.763C317.95 26.763 317.226 24.2478 320.236 23.0283C320.236 23.0283 322.56 21.8851 325.57 23.0283C325.57 23.0283 327.033 23.6243 327.863 24.9269V24.9269Z" fill="var(--fill-0, #DF2B3C)"/>
</g>
</svg>
