<svg preserveAspectRatio="none" width="100%" height="100%" overflow="visible" style="display: block;" viewBox="0 0 122.452 124" fill="none" xmlns="http://www.w3.org/2000/svg">
<g id="g16087 4 1 4 6">
<path id="path8901 1 8 3 7 7 2 7 7 7" d="M43.0356 115.59C43.0356 115.59 46.5189 121.049 61.0329 120.004C61.0329 120.004 69.1608 121.281 77.1724 116.636C77.1724 116.636 81.817 114.081 82.1653 100.724C82.1653 100.724 86.6937 71.5729 76.9404 64.1399C76.9404 64.1399 66.0258 43.1183 50.9311 57.8681C50.9311 57.8681 40.7131 71.4567 40.9454 81.0965C40.9454 81.0965 36.9977 104.905 43.0356 115.59V115.59Z" fill="var(--fill-0, #F2EEE3)"/>
<path id="path15939 5 5 11 3 3" d="M60.755 121.751C71.6672 121.751 80.5134 116.943 80.5134 111.013C80.5134 105.082 71.6672 100.275 60.755 100.275C49.8428 100.275 40.9966 105.082 40.9966 111.013C40.9966 116.943 49.8428 121.751 60.755 121.751Z" fill="var(--fill-0, #D5D3C7)"/>
<path id="path15939 2 3 4 8" d="M61.15 112.857C72.0622 112.857 80.9084 108.049 80.9084 102.119C80.9084 96.1886 72.0622 91.3811 61.15 91.3811C50.2378 91.3811 41.3916 96.1886 41.3916 102.119C41.3916 108.049 50.2378 112.857 61.15 112.857Z" fill="var(--fill-0, #F2EEE3)"/>
<path id="path15937 6 0 7 8" fill-rule="evenodd" clip-rule="evenodd" d="M49.3339 84.3564C49.3339 84.3564 54.2703 74.5742 56.1331 74.1083C56.1331 74.1083 57.1442 78.5115 60.8458 80.3328C60.8458 80.3328 64.9725 78.2926 64.9019 73.9593C64.9019 73.9593 66.8139 75.1094 70.5022 82.3558C70.5022 82.3558 77.6152 80.2478 77.6152 77.2175C77.6152 74.1871 78.1421 72.1449 77.2859 69.4439C76.4297 66.743 75.244 63.9761 73.7293 62.1315C72.2144 60.287 71.029 58.5742 68.197 57.6519C65.365 56.7296 61.0839 55.6756 59.7667 56.1367C58.4495 56.5979 55.0907 57.7178 53.4442 59.5624C51.7977 61.4069 49.4925 62.5927 48.5046 64.9643C47.5167 67.3359 45.8702 68.9828 45.7385 70.4979C45.6068 72.0131 43.0382 68.9828 45.6068 73.9236C48.1754 78.8644 49.3339 84.3564 49.3339 84.3564Z" fill="var(--fill-0, #D5D3C7)"/>
<path id="path4510 1 16 5 7 4 9 0 2 9" d="M88.8584 74.5986C93.1279 82.6468 92.6353 93.323 92.6353 93.323C89.187 111.554 76.0585 117.839 76.0585 117.839C80.9846 98.9499 70.6314 82.6469 70.6314 82.6469C67.0189 75.7483 74.0796 71.1495 74.0796 71.1495C64.884 66.3863 60.7787 50.7827 60.7787 50.7827C57.3304 66.7147 46.8213 71.1495 46.8213 71.1495C53.5539 75.9127 50.598 81.4971 50.598 81.4971L45.5076 94.3085C41.5665 101.864 44.8276 117.382 44.8276 117.382C16.7481 100.3 33.0278 72.1349 33.0278 72.1349C33.0278 72.1349 33.6785 69.8588 31.1821 70.7299C30.892 70.9041 28.0473 72.2978 26.77 76.2466C26.5959 75.8982 25.1444 72.5882 25.9573 68.9878C25.725 69.0458 26.712 67.4198 23.6931 67.7684C23.6931 67.7684 17.8872 69.1621 16.1456 70.6718C16.1456 70.6718 18.5842 67.6522 18.4678 65.2713C18.4678 65.2713 18.7002 64.168 15.9714 64.1098C15.9714 64.1098 10.7365 64.0868 8.47857 62.7728C8.47857 62.7728 11.5574 59.6111 11.5574 58.0097C11.5574 58.0097 12.543 54.5604 8.56084 54.7246C8.56084 54.7246 4.45568 55.628 3.3062 56.9419C3.3062 56.9419 3.38819 53.4517 4.78413 52.1376C4.78413 52.1376 6.85669 49.8245 7.72751 49.1277C7.72751 49.1277 8.83072 48.4888 7.20515 47.5598C7.20515 47.5598 1.5737 46.921 0.412476 40.5333C0.412476 40.5333 2.9088 43.7271 5.69564 40.9977C5.69564 40.9977 5.92779 37.107 0.702815 35.5972C0.702815 35.5972 2.21227 34.2035 4.4184 33.8551C4.4184 33.8551 7.26328 33.9132 7.66944 32.2292C7.66944 32.2292 7.95989 30.4289 4.12832 28.4545C4.12832 28.4545 8.5985 29.0934 9.46929 28.0481C9.46929 28.0481 3.89587 26.8867 4.4184 18.4663C4.4184 18.4663 7.14723 22.5894 9.6435 21.3119C9.6435 21.3119 11.3269 20.557 10.2239 17.6534C10.2239 17.6534 9.12092 15.8533 7.84365 15.4467C7.84365 15.4467 9.58528 11.9625 16.494 12.2529C16.494 12.2529 20.0354 11.6721 16.9583 8.65247C16.9583 8.65247 20.6159 8.07177 23.3447 9.93009C23.3447 9.93009 21.9514 5.16833 24.0994 0.0580186C24.0994 0.0580186 34.2594 10.2134 50.2697 11.1168C50.2697 11.1168 50.1876 7.33895 54.2927 5.20378C54.2927 5.20378 53.7178 8.32452 55.8526 9.39207C55.8526 9.39207 56.6737 9.88485 57.3305 8.57089C57.3305 8.57089 58.5619 4.30046 57.9051 1.42601C57.9051 1.42601 61.0252 3.47908 61.6821 8.32449C61.6821 8.32449 62.0927 10.1313 62.9957 8.89932C62.9957 8.89932 64.4735 4.95742 66.0333 3.97188C66.0333 3.97188 64.8841 8.32453 66.7727 10.2955C66.7727 10.2955 67.8399 11.281 68.3324 11.281C68.3324 11.281 86.9742 10.5688 97.889 0C97.889 0 100.908 4.18108 98.9339 10.9172C98.9339 10.9172 108.646 9.47426 111.93 14.0731C111.93 14.0731 108.81 14.9766 108.563 17.1117C108.563 17.1117 108.646 19.0006 110.78 19.247C110.78 19.247 113.982 19.8218 115.87 18.1793C115.87 18.1793 116.692 24.6673 110.945 27.2131C110.945 27.2131 109.994 27.4384 110.603 27.8738C110.603 27.8738 112.897 28.1061 115.015 27.148C115.015 27.148 113.709 28.6288 113.129 29.4998C113.129 29.4998 111.532 30.8645 112.984 32.1711C112.984 32.1711 120.838 33.9472 122.152 37.3554C122.152 37.3554 117.02 35.795 114.927 40.5992C114.927 40.5992 115.624 43.802 119.442 42.9809C119.442 42.9809 119.428 46.5725 112.984 48.8954C112.984 48.8954 112.055 49.5342 112.577 50.9859C112.577 50.9859 116.003 54.3539 115.596 58.6512C115.596 58.6512 114.203 56.851 111.706 56.4446C111.706 56.4446 109.152 55.8058 108.978 58.535C108.978 58.535 109.268 61.9031 111.648 63.0646C111.648 63.0646 109.674 64.8068 102.94 63.413C102.94 63.413 101.953 62.8904 102.301 64.2841C102.301 64.2841 103.23 68.0005 101.837 71.6009C101.837 71.6009 101.14 68.9878 99.4566 68.1748C99.4566 68.1748 97.8307 66.8392 96.7857 68.9298C96.7857 68.9298 96.147 73.6334 92.4316 75.2012C92.4316 75.2012 92.6638 73.8658 91.8512 73.2849C91.8512 73.2849 90.5104 72.1958 88.8584 74.5986V74.5986Z" fill="var(--fill-0, #225054)"/>
<path id="path4512 7 2 9 3 0 0 1 88 1 7" d="M61.0374 44.1798C57.4841 45.4553 53.8449 52.4388 53.8449 52.4388C54.3487 59.1301 60.9348 65.1146 61.0338 65.2043V65.228C61.0338 65.228 61.0455 65.2157 61.046 65.2155C61.0461 65.2155 61.0514 65.2207 61.0514 65.2207V65.2113C61.1496 65.1176 67.4677 59.0715 67.9714 52.3819C67.9714 52.3819 64.5889 45.4614 61.0366 44.1835V44.1798H61.0374Z" fill="var(--fill-0, #163C3F)"/>
<path id="path4512 7 2 9 3 0 09 8 9 3" d="M54.0464 53.8211C54.0464 53.8211 57.5783 47.526 61.0267 46.3763L61.0408 65.3426C61.0408 65.3426 54.5398 59.8983 54.0471 53.8211H54.0464Z" fill="var(--fill-0, #FAB84A)"/>
<path id="path4512 8 4 04 8 3 9 3 8 9 4" d="M67.7567 53.7695C67.7567 53.7695 64.4723 47.5281 61.0239 46.3784V65.349C61.0239 65.349 67.2641 59.8467 67.7567 53.7695V53.7695Z" fill="var(--fill-0, #E9934C)"/>
<path id="path15852 5 5 0 9" d="M33.5397 61.734C45.371 61.734 54.9622 52.1404 54.9622 40.3062C54.9622 28.4719 45.371 18.8783 33.5397 18.8783C21.7083 18.8783 12.1172 28.4719 12.1172 40.3062C12.1172 52.1404 21.7083 61.734 33.5397 61.734Z" fill="var(--fill-0, #173C3F)"/>
<path id="path4532 0 8 4 5 4 92 03 1 3" d="M34.8254 61.7509C45.548 61.7509 54.2402 52.5968 54.2402 41.3046C54.2402 30.0125 45.548 20.8584 34.8254 20.8584C24.1029 20.8584 15.4106 30.0125 15.4106 41.3046C15.4106 52.5968 24.1029 61.7509 34.8254 61.7509Z" fill="var(--fill-0, #F2EEE3)"/>
<path id="path15852 7 8 8 4 4" d="M88.6392 61.7177C100.471 61.7177 110.062 52.1241 110.062 40.2899C110.062 28.4556 100.471 18.862 88.6392 18.862C76.8079 18.862 67.2167 28.4556 67.2167 40.2899C67.2167 52.1241 76.8079 61.7177 88.6392 61.7177Z" fill="var(--fill-0, #173C3F)"/>
<path id="path4532 2 9 5 0 9 8 9 19 9 2" d="M87.2985 61.7847C98.021 61.7847 106.713 52.6306 106.713 41.3384C106.713 30.0463 98.021 20.8922 87.2985 20.8922C76.576 20.8922 67.8837 30.0463 67.8837 41.3384C67.8837 52.6306 76.576 61.7847 87.2985 61.7847Z" fill="var(--fill-0, #F2EEE3)"/>
<path id="path4532 4 4 9 7 9 82 2 4 0 0" d="M39.1444 54.1114C45.4262 54.1114 50.5186 49.0387 50.5186 42.7813C50.5186 36.5239 45.4262 31.4513 39.1444 31.4513C32.8626 31.4513 27.7702 36.5239 27.7702 42.7813C27.7702 49.0387 32.8626 54.1114 39.1444 54.1114Z" fill="var(--fill-0, #FAB84A)"/>
<path id="path4532 4 5 8 4 6 8 4 1 8 5 1" d="M39.2286 51.1236C43.9103 51.1236 47.7055 47.3431 47.7055 42.6795C47.7055 38.016 43.9103 34.2355 39.2286 34.2355C34.5469 34.2355 30.7517 38.016 30.7517 42.6795C30.7517 47.3431 34.5469 51.1236 39.2286 51.1236Z" fill="var(--fill-0, #201E1E)"/>
<path id="path4532 4 5 5 8 4 3 1 5 5 3 4 1" d="M34.5506 39.9571C36.0538 39.9571 37.2725 38.7433 37.2725 37.2459C37.2725 35.7486 36.0538 34.5347 34.5506 34.5347C33.0474 34.5347 31.8287 35.7486 31.8287 37.2459C31.8287 38.7433 33.0474 39.9571 34.5506 39.9571Z" fill="var(--fill-0, #FEFEFE)"/>
<path id="path4532 4 1 2 4 6 8 5 2 1 3 8" d="M83.5217 54.1466C89.8035 54.1466 94.8959 49.074 94.8959 42.8166C94.8959 36.5591 89.8035 31.4865 83.5217 31.4865C77.2399 31.4865 72.1475 36.5591 72.1475 42.8166C72.1475 49.074 77.2399 54.1466 83.5217 54.1466Z" fill="var(--fill-0, #FAB84A)"/>
<path id="path4532 4 5 7 4 9 1 2 1 4 9 1 7" d="M83.6056 51.159C88.2874 51.159 92.0825 47.3785 92.0825 42.715C92.0825 38.0514 88.2874 34.271 83.6056 34.271C78.9239 34.271 75.1287 38.0514 75.1287 42.715C75.1287 47.3785 78.9239 51.159 83.6056 51.159Z" fill="var(--fill-0, #201E1E)"/>
<path id="path4532 4 5 5 1 5 9 5 6 7 7 3 4 2" d="M78.9277 39.9923C80.4309 39.9923 81.6496 38.7785 81.6496 37.2811C81.6496 35.7837 80.4309 34.5699 78.9277 34.5699C77.4245 34.5699 76.2058 35.7837 76.2058 37.2811C76.2058 38.7785 77.4245 39.9923 78.9277 39.9923Z" fill="var(--fill-0, #FEFEFE)"/>
<path id="path5398 51 4 4 6 1 0 4 4 7" d="M46.6158 123.836C47.6383 123.836 48.4673 121.766 48.4673 119.213C48.4673 116.659 47.6383 114.589 46.6158 114.589C45.5933 114.589 44.7642 116.659 44.7642 119.213C44.7642 121.766 45.5933 123.836 46.6158 123.836Z" fill="var(--fill-0, #E9934C)"/>
<path id="path5398 1 7 5 2 0 1 4 6 0 9" d="M50.8444 123.816C51.8669 123.816 52.6959 121.746 52.6959 119.192C52.6959 116.639 51.8669 114.569 50.8444 114.569C49.8219 114.569 48.9928 116.639 48.9928 119.192C48.9928 121.746 49.8219 123.816 50.8444 123.816Z" fill="var(--fill-0, #E9934C)"/>
<path id="path5398 5 11 3 0 3 5 4 6 1 6" d="M55.1548 123.857C56.1773 123.857 57.0064 121.787 57.0064 119.233C57.0064 116.68 56.1773 114.61 55.1548 114.61C54.1323 114.61 53.3032 116.68 53.3032 119.233C53.3032 121.787 54.1323 123.857 55.1548 123.857Z" fill="var(--fill-0, #E9934C)"/>
<path id="path5398 7 5 2 9 8 2 6 88 7 3" d="M65.7673 123.98C66.7898 123.98 67.6189 121.91 67.6189 119.356C67.6189 116.803 66.7898 114.733 65.7673 114.733C64.7448 114.733 63.9157 116.803 63.9157 119.356C63.9157 121.91 64.7448 123.98 65.7673 123.98Z" fill="var(--fill-0, #E9934C)"/>
<path id="path5398 1 6 2 17 7 0 76 8 2 5 6" d="M69.9959 123.959C71.0184 123.959 71.8474 121.889 71.8474 119.336C71.8474 116.782 71.0184 114.712 69.9959 114.712C68.9733 114.712 68.1443 116.782 68.1443 119.336C68.1443 121.889 68.9733 123.959 69.9959 123.959Z" fill="var(--fill-0, #E9934C)"/>
<path id="path5398 5 1 7 43 3 1 14 0 3 5 0" d="M74.3065 124C75.3291 124 76.1581 121.93 76.1581 119.376C76.1581 116.823 75.3291 114.753 74.3065 114.753C73.284 114.753 72.455 116.823 72.455 119.376C72.455 121.93 73.284 124 74.3065 124Z" fill="var(--fill-0, #E9934C)"/>
<path id="path7408 4 4 2 1 2 5" d="M42.1655 73.0898C42.1655 73.0898 37.8611 74.6328 32.8649 71.9425C32.8649 71.9425 29.0654 70.3202 26.9132 77.046C26.7595 76.8878 24.1794 74.7911 25.2555 69.4499C25.2555 69.4499 25.9089 67.9861 23.0265 68.4212C23.0265 68.4212 16.2625 70.5973 15.3786 71.8238C15.3786 71.8238 17.838 68.0256 17.7996 65.5727C17.7996 65.5727 17.7998 64.6825 15.3401 64.7221C15.3401 64.7221 9.97875 64.6627 7.8458 63.2186C7.8458 63.1395 10.6321 60.5481 11.0933 58.3721C11.0933 58.3721 11.7275 55.0685 8.7298 55.2465C8.7298 55.2465 5.17494 55.2465 2.90747 57.4225C2.90747 57.4225 2.19684 52.948 7.00687 49.451C7.00687 49.451 8.03952 48.8635 6.81662 48.248C6.81662 48.248 1.26825 46.5932 0 39.986C0 39.986 2.27319 42.8629 4.42539 41.676C4.42539 41.676 4.84835 41.5178 5.11737 40.8848C5.11737 40.8848 5.02304 37.0576 0.0771693 35.519C0.0771693 35.519 1.58151 33.7632 5.27094 33.4467C5.27094 33.4467 7.80754 32.6951 6.57772 30.9938C6.57772 30.9938 4.8097 29.0552 3.69521 28.4221C3.69521 28.4221 7.65384 28.5804 8.92209 27.7891C8.80677 27.7496 3.48663 27.1298 4.29372 17.9905C4.29372 17.9905 8.30711 23.6745 9.95967 19.7576C9.8444 19.5202 10.5803 17.156 7.12147 15.2173C7.12147 15.2173 9.38311 11.7261 15.9165 11.647C15.9165 11.647 19.0295 10.8557 16.3777 8.12582C16.3777 8.12582 20.759 7.37407 22.7191 9.27313C22.7575 9.19399 21.9172 5.35251 24.031 0.130081C24.031 0.130081 23.3338 9.55014 24.7943 13.2296C24.6021 13.1109 22.45 10.0644 19.6445 8.91706C19.6445 8.91706 21.0664 13.7834 16.0703 13.9021C16.0703 13.9021 12.0348 13.0713 10.1132 14.6143C10.1132 14.6143 13.1495 20.1532 10.8052 22.4875C10.8052 22.4875 8.65306 24.4261 5.84754 21.6962C5.84754 21.6962 5.55672 26.1274 11.3215 27.3144C11.3215 27.3144 10.3336 29.6166 7.33592 29.6957C7.33592 29.6957 9.87693 32.1044 7.99377 33.9243C7.99377 33.9243 6.17237 35.5252 3.73367 35.5436C3.73367 35.5436 7.8252 37.9249 7.28167 41.6177C7.28167 41.6177 5.96137 44.6143 2.63165 43.576C2.63165 43.576 4.83224 45.514 8.52809 46.7449C8.52809 46.7449 10.7733 48.1873 9.74064 49.7539C9.74064 49.7539 6.33517 50.9905 5.30252 54.5154C5.30252 54.5154 10.4127 52.0564 12.7497 53.9028C12.7497 53.9028 14.3885 58.518 10.5126 62.208C10.5126 62.208 17.8444 63.4186 20.8337 63.0269C20.8337 63.0269 19.9267 67.0815 19.1115 68.2005C19.5463 67.9767 25.1312 65.6787 28.5009 66.462C28.5009 66.462 26.0569 71.2723 26.3287 73.0627C26.3287 73.0627 30.6645 68.4696 34.4147 69.141C34.4147 69.141 33.164 71.942 42.1655 73.0898V73.0898Z" fill="var(--fill-0, #163C3F)"/>
<path id="path7468 3 5 8 5 2 7" d="M79.5558 73.8752C79.5558 73.8752 82.7351 76.5523 89.4031 74.9057C89.4031 74.9057 90.3129 74.5547 90.9951 74.0867C90.9951 74.0867 92.2942 72.9854 92.3266 75.1559C92.3266 75.1559 96.8326 74.2037 97.5907 69.3287C97.5907 69.3287 97.9444 67.3619 99.9913 68.8439C99.9913 68.8439 101.126 69.7939 101.657 72.368C101.657 72.368 104.11 68.3147 102.973 64.3757C102.973 64.3757 102.935 63.5177 103.731 63.7127C103.731 63.7127 109.569 65.4677 112.222 63.1277C112.222 63.1277 109.114 61.4117 109.796 57.3557C109.796 57.3557 110.383 56.1689 112.809 56.9099C112.809 56.9099 115.337 57.7994 115.678 59.0473C115.678 59.0473 116.61 54.3479 113.072 50.9283C113.072 50.9283 112.095 49.8982 113.73 48.9606C113.73 48.9606 119.111 46.6808 119.889 42.7097C119.889 42.7097 116.524 44.0958 115.33 40.6248C115.33 40.6248 117.05 36.2699 122.452 37.5568C122.452 37.5568 120.913 33.6277 113.515 32.1385C113.515 32.1385 112.041 31.6698 113.515 29.6291L115.943 26.6362C115.943 26.6362 112.639 28.3053 111.084 27.6435C111.084 27.6435 110.674 27.4505 111.452 27.1747C111.452 27.1747 116.735 24.8802 116.253 17.6826C116.253 17.6826 111.559 21.1629 109.307 17.8813C109.307 17.8813 108.506 15.8086 112.929 13.9885C112.929 13.9885 110.858 9.58095 99.6376 10.7899C99.6376 10.7899 101.523 4.5876 97.9195 0.021286C97.9195 0.021286 100.891 9.82875 97.1386 13.3035C97.1386 13.3035 104.161 10.27 111.13 13.6895C111.13 13.6895 106.895 13.6895 108.342 19.0395C108.342 19.0395 109.95 21.6317 114.989 20.4735C114.989 20.4735 112.309 25.7683 109.093 27.7538C109.093 27.7538 111.451 29.1879 113.06 29.0224C112.98 29.3149 111.085 32.3568 110.441 32.6298C110.441 32.6298 115.365 33.2692 118.635 35.8615C118.635 35.8615 115.526 36.5785 114.025 40.9356C114.025 40.9356 115.74 44.1346 117.563 44.5758C117.607 44.4076 113.864 48.0505 110.969 49.0433C111.183 49.3191 114.454 54.7793 115.043 56.7097C115.043 56.7097 112.363 54.3381 109.093 56.2133C109.093 56.2133 107.869 60.0348 109.385 62.8818C109.385 62.8818 105.195 63.3965 102.026 62.0357C102.026 62.0357 102.277 67.6636 101.936 69.1066C101.936 69.1066 99.3186 66.6767 96.7762 66.9865C96.7762 66.9865 96.2641 71.9807 94.4825 72.7217C94.4825 72.7217 93.421 71.3177 91.9049 70.8107C91.9049 70.8107 87.0378 75.6351 79.5558 73.8752Z" fill="var(--fill-0, #163C3F)"/>
<path id="path15956 8 02 3 3" fill-rule="evenodd" clip-rule="evenodd" d="M28.3362 90.2963C28.3362 90.2963 28.6837 78.0868 33.3407 71.2858C33.3407 71.2858 43.5315 75.1714 46.7753 71.1386C46.7753 71.1386 50.731 73.2705 51.2898 77.8356C51.2898 77.8356 51.7317 79.952 49.3277 84.7611C49.3277 84.7611 49.6264 75.4038 41.7178 76.55C41.7178 76.55 31.168 76.5417 28.3362 90.2963V90.2963Z" fill="var(--fill-0, #163C3F)"/>
<path id="path15958 7 4 4 9" fill-rule="evenodd" clip-rule="evenodd" d="M43.601 107.062C43.601 107.062 31.4201 102.648 28.3464 91.7474C28.3464 91.7474 27.0411 106.495 44.8311 117.396C44.8311 117.396 43.7291 110.556 43.601 107.062Z" fill="var(--fill-0, #163C3F)"/>
<path id="path15956 3 0 0 2 4" fill-rule="evenodd" clip-rule="evenodd" d="M92.6071 90.8971C92.6071 90.8971 92.8418 79.9686 88.1847 73.1676C88.1847 73.1676 80.9047 76.3894 74.075 71.0988C74.075 71.0988 70.1192 72.8931 69.6185 78.3199C69.6185 78.3199 69.172 81.0981 71.79 84.7213C71.79 84.7213 71.3168 76.0046 79.2255 77.1508C79.2255 77.1508 89.7752 77.1424 92.6071 90.8971V90.8971Z" fill="var(--fill-0, #163C3F)"/>
<path id="path15958 6 0 5 3 6" fill-rule="evenodd" clip-rule="evenodd" d="M77.3755 108.247C77.3755 108.247 89.5698 103.242 92.6435 92.3423C92.6435 92.3423 93.8447 106.981 76.0547 117.881C76.0547 117.881 77.2474 111.741 77.3755 108.247Z" fill="var(--fill-0, #163C3F)"/>
<path id="path5398 51 4 4 6 1 7 9 1 0 5" d="M46.6626 122.472C47.5243 122.472 48.223 120.728 48.223 118.576C48.223 116.424 47.5243 114.68 46.6626 114.68C45.8009 114.68 45.1022 116.424 45.1022 118.576C45.1022 120.728 45.8009 122.472 46.6626 122.472Z" fill="var(--fill-0, #FAB84A)"/>
<path id="path5398 51 4 4 6 1 7 4 9 66 8 4" d="M50.8593 122.436C51.721 122.436 52.4197 120.692 52.4197 118.54C52.4197 116.388 51.721 114.644 50.8593 114.644C49.9975 114.644 49.2989 116.388 49.2989 118.54C49.2989 120.692 49.9975 122.436 50.8593 122.436Z" fill="var(--fill-0, #FAB84A)"/>
<path id="path5398 51 4 4 6 1 7 4 6 5 8 0 4" d="M55.1403 122.535C56.0021 122.535 56.7007 120.791 56.7007 118.639C56.7007 116.487 56.0021 114.742 55.1403 114.742C54.2786 114.742 53.58 116.487 53.58 118.639C53.58 120.791 54.2786 122.535 55.1403 122.535Z" fill="var(--fill-0, #FAB84A)"/>
<path id="path5398 51 4 4 6 1 7 4 6 7 7 9 3 6" d="M65.7935 122.65C66.6552 122.65 67.3539 120.906 67.3539 118.754C67.3539 116.602 66.6552 114.857 65.7935 114.857C64.9318 114.857 64.2331 116.602 64.2331 118.754C64.2331 120.906 64.9318 122.65 65.7935 122.65Z" fill="var(--fill-0, #FAB84A)"/>
<path id="path5398 51 4 4 6 1 7 4 6 7 8 2 2 6 4" d="M70.0086 122.634C70.8703 122.634 71.569 120.889 71.569 118.737C71.569 116.585 70.8703 114.841 70.0086 114.841C69.1469 114.841 68.4482 116.585 68.4482 118.737C68.4482 120.889 69.1469 122.634 70.0086 122.634Z" fill="var(--fill-0, #FAB84A)"/>
<path id="path5398 51 4 4 6 1 7 4 6 7 8 3 5 2 6 7" d="M74.3226 122.683C75.1843 122.683 75.883 120.938 75.883 118.786C75.883 116.634 75.1843 114.89 74.3226 114.89C73.4609 114.89 72.7622 116.634 72.7622 118.786C72.7622 120.938 73.4609 122.683 74.3226 122.683Z" fill="var(--fill-0, #FAB84A)"/>
</g>
</svg>
