<svg preserveAspectRatio="none" width="100%" height="100%" overflow="visible" style="display: block;" viewBox="0 0 199.443 59.8846" fill="none" xmlns="http://www.w3.org/2000/svg">
<g id="Group 23">
<path id="path4237 8 4 2 1 2 7 9 8 0 7 9 7 9 7" d="M19.1345 17.8226C16.8506 17.8054 14.4016 18.0687 12.2395 18.9052C12.2395 18.9052 1.20274 23.1785 0.194023 35.227C0.194023 35.227 -1.17074 45.1981 3.3389 51.6675C3.3389 51.6675 6.82012 57.5004 14.2047 59.1791C14.2047 59.1791 29.3934 63.5433 37.3653 49.7777C37.3653 49.7777 38.05 48.5503 37.1897 47.5413L32.502 44.6924C32.502 44.6924 31.199 44.1286 30.1903 45.5827C30.1903 45.5827 28.05 49.5673 24.4417 50.7843C24.4417 50.7843 19.3642 52.6309 15.1684 50.7843C15.1684 50.7843 9.54727 48.9378 8.72911 39.8517H37.071C37.071 39.8517 38.4776 39.9571 38.6874 38.3204C38.6874 38.3204 39.6534 23.2379 27.2519 18.9052C27.2519 18.9052 23.4948 17.8554 19.1345 17.8226V17.8226ZM19.7777 25.4434C23.0916 25.4074 25.2344 26.5616 25.2344 26.5616C29.9814 28.8169 29.8627 33.9806 29.8627 33.9806H9.27264C10.8748 27.986 14.1976 26.6209 14.1976 26.6209C16.2614 25.764 18.1593 25.461 19.7777 25.4434Z" fill="var(--fill-0, #0C5257)"/>
<path id="path4241 8 5 7 1 4 6 5 7 2 9 5 1 8 4" d="M74.0383 0C74.0383 0 72.9418 0.059352 72.7044 1.4838V25.3932C72.7044 25.3932 70.7628 20.4831 65.9376 18.7624C65.9376 18.7624 59.6869 16.6228 54.1484 18.8051C54.1484 18.8051 47.2665 20.7363 44.0777 31.732C44.0777 31.732 42.3569 37.2378 43.8688 45.3877C43.8688 45.3877 45.1685 53.5967 53.0566 58.2552C53.0566 58.2552 58.6798 61.6546 66.9036 58.2552C66.9036 58.2552 70.4843 56.8595 72.7637 53.1509V56.5768C72.7637 56.5768 72.6933 57.8768 74.0359 58.0867H79.9104C79.9104 58.0867 81.2531 57.8778 81.2111 56.4509V1.54315C81.2111 1.54315 81.2179 0.326438 79.7347 0H74.0383ZM62.4391 25.6258C68.4034 25.6258 73.2384 31.6168 73.2384 39.0086C73.2384 46.4003 68.4034 52.3936 62.4391 52.3936C56.4747 52.3936 51.6397 46.4003 51.6397 39.0086C51.6397 31.6168 56.4747 25.6258 62.4391 25.6258Z" fill="var(--fill-0, #0C5257)"/>
<path id="path4245 2 5 9 3 8 7 3 5 5 2 0 8 8 0" d="M89.0988 19.1404H94.5113C94.5113 19.1404 95.896 18.9725 96.0638 20.7352L96.1127 43.5054C96.1127 43.5054 96.2315 49.9747 101.69 51.3992C101.69 51.3992 105.844 52.4378 109.464 51.3992C109.464 51.3992 115.071 50.1528 115.101 43.446V20.7735C115.101 20.7735 114.923 19.2007 116.525 19.1413H122.014C122.014 19.1413 123.645 18.993 123.705 20.5361V40.8642C123.705 40.8642 123.734 53.1501 116.376 57.2454C116.376 57.2454 106.645 62.8838 94.659 57.2454C94.659 57.2454 88.6659 54.8119 87.6572 42.7041V20.5658C87.6572 20.5658 87.6723 19.1824 89.0988 19.1404V19.1404Z" fill="var(--fill-0, #0C5257)"/>
<path id="path4247 45 1 5 8 6 7 0 0 9 9 6 71 0 1" d="M158.922 26.7679V20.9515C158.922 20.9515 159.011 20.1205 157.705 19.527C157.705 19.527 148.686 15.1943 138.539 20.1799C138.539 20.1799 131.351 23.3371 129.127 32.1085C129.127 32.1085 127.28 39.7957 129.127 45.3748C129.127 45.3748 131.211 54.6337 139.578 57.9574C139.578 57.9574 147.109 61.9814 157.854 57.6607C157.854 57.6607 158.948 57.3858 158.922 56.1175V50.4486C158.922 50.4486 158.539 48.6859 156.882 49.1056C156.882 49.1056 156.378 49.2525 155.791 49.6721C155.791 49.6721 153.819 51.0991 151.469 51.4348C151.469 51.4348 146.56 52.3371 143.099 50.3017C143.099 50.3017 138.213 48.4611 137.145 40.3892C137.145 40.3892 136.759 37.0358 137.145 35.6411C137.145 35.6411 138.232 27.7857 145.365 26.149C145.365 26.149 148.973 25.1837 153.378 26.2749C153.378 26.2749 155.599 27.1834 156.34 27.8066C156.34 27.8066 158.121 28.9046 158.922 26.7679V26.7679Z" fill="var(--fill-0, #0C5257)"/>
<path id="path4241 1 5 7 4 7 5 1 9 7 8 2 5 54 9 2" d="M178.061 17.9432C176.272 17.9343 174.283 18.1735 172.379 18.9237C172.379 18.9237 165.5 20.8548 162.311 31.8505C162.311 31.8505 160.588 37.3564 162.1 45.5062C162.1 45.5062 163.402 53.7153 171.29 58.3738C171.29 58.3738 176.911 61.7732 185.134 58.3738C185.134 58.3738 188.715 56.9781 190.995 53.2695V56.6953C190.995 56.6953 190.924 57.9977 192.267 58.2076H198.141C198.141 58.2076 199.484 57.9964 199.442 56.5695V20.6567C199.442 20.6567 199.451 19.4401 197.968 19.1136H192.271C192.271 19.1136 191.172 19.1729 190.935 20.5974V25.5141C190.935 25.5141 188.996 20.604 184.171 18.8833C184.171 18.8833 181.478 17.9601 178.061 17.9432V17.9432ZM180.67 25.7444C186.634 25.7444 191.469 31.7377 191.469 39.1295C191.469 46.5212 186.634 52.5122 180.67 52.5122C174.705 52.5122 169.87 46.5212 169.87 39.1295C169.87 31.7377 174.705 25.7444 180.67 25.7444Z" fill="var(--fill-0, #0C5257)"/>
</g>
</svg>
