<svg preserveAspectRatio="none" width="100%" height="100%" overflow="visible" style="display: block;" viewBox="0 0 345.392 56.3153" fill="none" xmlns="http://www.w3.org/2000/svg">
<g id="g5150 2 9 4 0 6 9 5 9 6 9 8 4">
<path id="path4237 8 4 2 1 2 7 9 8 0 7 9 7 9" d="M17.8786 16.6525C15.7446 16.6365 13.4563 16.8825 11.4362 17.6641C11.4362 17.6641 1.1238 21.6569 0.181288 32.9146C0.181288 32.9146 -1.0939 42.2313 3.11976 48.276C3.11976 48.276 6.37249 53.7261 13.2724 55.2946C13.2724 55.2946 27.4642 59.3724 34.9129 46.5103C34.9129 46.5103 35.5526 45.3634 34.7488 44.4207L30.3688 41.7588C30.3688 41.7588 29.1513 41.2319 28.2088 42.5906C28.2088 42.5906 26.209 46.3136 22.8375 47.4508C22.8375 47.4508 18.0933 49.1762 14.1728 47.4508C14.1728 47.4508 8.92064 45.7255 8.15619 37.2357H34.6379C34.6379 37.2357 35.9522 37.3343 36.1482 35.8049C36.1482 35.8049 37.0508 21.7124 25.4632 17.6641C25.4632 17.6641 21.9527 16.6831 17.8786 16.6525V16.6525ZM18.4796 23.7731C21.576 23.7395 23.5782 24.8179 23.5782 24.8179C28.0136 26.9253 27.9027 31.75 27.9027 31.75H8.66404C10.161 26.1489 13.2658 24.8734 13.2658 24.8734C15.1941 24.0727 16.9674 23.7895 18.4796 23.7731Z" fill="var(--fill-0, #0A9C9A)"/>
<path id="path4241 8 5 7 1 4 6 5 7 2 9 5 1 8" d="M69.1785 0C69.1785 0 68.154 0.0554565 67.9322 1.38641V23.7265C67.9322 23.7265 66.1179 19.1387 61.6095 17.5309C61.6095 17.5309 55.769 15.5317 50.5941 17.5708C50.5941 17.5708 44.1639 19.3753 41.1844 29.6492C41.1844 29.6492 39.5765 34.7937 40.9892 42.4087C40.9892 42.4087 42.2036 50.0789 49.574 54.4316C49.574 54.4316 54.8281 57.6079 62.5121 54.4316C62.5121 54.4316 65.8578 53.1275 67.9876 49.6624V52.8634C67.9876 52.8634 67.9218 54.0781 69.1763 54.2742H74.6652C74.6652 54.2742 75.9197 54.079 75.8805 52.7458V1.44187C75.8805 1.44187 75.8868 0.305012 74.5011 0H69.1785ZM58.3406 23.9439C63.9135 23.9439 68.4311 29.5417 68.4311 36.4482C68.4311 43.3548 63.9135 48.9547 58.3406 48.9547C52.7677 48.9547 48.25 43.3548 48.25 36.4482C48.25 29.5417 52.7677 23.9439 58.3406 23.9439Z" fill="var(--fill-0, #0A9C9A)"/>
<path id="path4245 2 5 9 3 8 7 3 5 5 2 0 8 8" d="M83.2499 17.8846H88.3072C88.3072 17.8846 89.601 17.7277 89.7578 19.3747L89.8035 40.6503C89.8035 40.6503 89.9144 46.6951 95.0152 48.026C95.0152 48.026 98.8961 48.9965 102.278 48.026C102.278 48.026 107.517 46.8614 107.545 40.5949V19.4105C107.545 19.4105 107.379 17.9409 108.876 17.8854H114.004C114.004 17.8854 115.529 17.7468 115.584 19.1886V38.1825C115.584 38.1825 115.612 49.662 108.737 53.4885C108.737 53.4885 99.6446 58.7568 88.4452 53.4885C88.4452 53.4885 82.8454 51.2148 81.9029 39.9016V19.2164C81.9029 19.2164 81.917 17.9238 83.2499 17.8846V17.8846Z" fill="var(--fill-0, #0A9C9A)"/>
<path id="path4247 45 1 5 8 6 7 0 0 9 9 6 71 0" d="M148.492 25.0113V19.5766C148.492 19.5766 148.575 18.8002 147.355 18.2457C147.355 18.2457 138.928 14.1973 129.447 18.8557C129.447 18.8557 122.73 21.8057 120.652 30.0014C120.652 30.0014 118.927 37.184 120.652 42.397C120.652 42.397 122.6 51.0482 130.417 54.1537C130.417 54.1537 137.455 57.9136 147.494 53.8765C147.494 53.8765 148.516 53.6196 148.492 52.4346V47.1377C148.492 47.1377 148.134 45.4907 146.586 45.8829C146.586 45.8829 146.115 46.0201 145.567 46.4123C145.567 46.4123 143.724 47.7455 141.529 48.0592C141.529 48.0592 136.942 48.9023 133.707 47.0005C133.707 47.0005 129.142 45.2807 128.144 37.7386C128.144 37.7386 127.784 34.6053 128.144 33.3021C128.144 33.3021 129.16 25.9623 135.824 24.433C135.824 24.433 139.196 23.5311 143.312 24.5506C143.312 24.5506 145.387 25.3995 146.08 25.9818C146.08 25.9818 147.743 27.0078 148.492 25.0113V25.0113Z" fill="var(--fill-0, #0A9C9A)"/>
<path id="path4241 1 5 7 4 7 5 1 9 7 8 2 5 54 9" d="M166.375 16.766C164.703 16.7578 162.845 16.9813 161.066 17.6822C161.066 17.6822 154.638 19.4866 151.658 29.7606C151.658 29.7606 150.048 34.9051 151.461 42.52C151.461 42.52 152.677 50.1903 160.048 54.543C160.048 54.543 165.3 57.7193 172.984 54.543C172.984 54.543 176.329 53.2389 178.459 49.7737V52.9747C178.459 52.9747 178.393 54.1917 179.648 54.3877H185.137C185.137 54.3877 186.391 54.1904 186.352 52.8571V19.3015C186.352 19.3015 186.361 18.1647 184.975 17.8597H179.652C179.652 17.8597 178.625 17.9151 178.404 19.2461V23.8401C178.404 23.8401 176.592 19.2522 172.083 17.6445C172.083 17.6445 169.567 16.7819 166.375 16.766V16.766ZM168.812 24.0552C174.385 24.0552 178.903 29.6552 178.903 36.5618C178.903 43.4683 174.385 49.0662 168.812 49.0662C163.239 49.0662 158.722 43.4683 158.722 36.5618C158.722 29.6552 163.239 24.0552 168.812 24.0552Z" fill="var(--fill-0, #0A9C9A)"/>
<path id="path4247 4 1 1 3 4 0 9 9 4 4 3 6 84 7" d="M220.075 24.9888V19.554C220.075 19.554 220.158 18.7777 218.939 18.2231C218.939 18.2231 210.511 14.1748 201.031 18.8331C201.031 18.8331 194.314 21.7831 192.236 29.9788C192.236 29.9788 190.51 37.1615 192.236 42.3744C192.236 42.3744 194.184 51.0256 202.001 54.1312C202.001 54.1312 209.038 57.891 219.077 53.8538C219.077 53.8538 220.1 53.597 220.075 52.412V47.1151C220.075 47.1151 219.718 45.4681 218.17 45.8603C218.17 45.8603 217.699 45.9975 217.15 46.3897C217.15 46.3897 215.308 47.7229 213.112 48.0366C213.112 48.0366 208.525 48.8797 205.291 46.9779C205.291 46.9779 200.726 45.2581 199.728 37.716C199.728 37.716 199.367 34.5828 199.728 33.2795C199.728 33.2795 200.743 25.9397 207.408 24.4104C207.408 24.4104 210.779 23.5085 214.896 24.5281C214.896 24.5281 216.97 25.377 217.663 25.9593C217.663 25.9593 219.327 26.9852 220.075 24.9888V24.9888Z" fill="var(--fill-0, #DF2B3C)"/>
<path id="path4288 7 1 1 2 9 1 5 5 6 1 1 5 9" fill-rule="evenodd" clip-rule="evenodd" d="M267.424 16.5972C256.756 16.5972 248.108 25.4467 248.108 36.3619C248.108 47.277 256.756 56.1243 267.424 56.1243C278.091 56.1243 286.74 47.277 286.74 36.3619C286.74 25.4467 278.091 16.5972 267.424 16.5972ZM267.424 24.0017C273.468 24.0017 278.368 29.5356 278.368 36.3619C278.368 43.1881 273.468 48.722 267.424 48.722C261.38 48.722 256.479 43.1881 256.479 36.3619C256.479 29.5356 261.38 24.0017 267.424 24.0017Z" fill="var(--fill-0, #DF2B3C)"/>
<path id="path4312 1 5 2 7 0 6 1 8 0 7 4 7 2" d="M225.5 20.8246V54.0985C225.5 54.0985 225.389 55.7345 227.163 55.8177H232.264C232.264 55.8177 233.511 55.8177 233.65 54.3481V37.4914C233.65 37.4914 233.519 28.4331 237.753 25.9626C237.753 25.9626 240.262 24.5901 244.3 25.845C244.3 25.845 245.633 26.4332 246.417 25.5705L248.299 21.1001C248.299 21.1001 248.73 19.4139 247.515 19.1002C247.515 19.1002 241.713 16.3552 237.087 19.9237C237.087 19.9237 234.774 21.5707 233.715 25.0215V20.7959C233.715 20.7959 233.762 19.3078 232.304 19.2963H226.894C226.894 19.2963 225.792 19.2944 225.5 20.8246V20.8246Z" fill="var(--fill-0, #DF2B3C)"/>
<path id="path4314 1 2 3 7 0 27 1 2 8 8 9 93 4" d="M307.584 25.2887C307.584 25.2887 308.305 26.2592 309.774 25.5105L312.99 23.0704C312.99 23.0704 313.849 22.294 313.184 21.2404C313.184 21.2404 310.713 17.1393 304.91 16.6688C304.91 16.6688 300.755 16.3158 298.403 17.0217C298.403 17.0217 290.915 18.3942 289.543 25.2958C289.543 25.2958 289.072 27.2956 289.66 29.9622C289.66 29.9622 290.405 34.2757 296.286 36.903C296.286 36.903 303.842 40.3451 304.23 40.5115C304.23 40.5115 308.499 42.2306 307.667 45.7244C307.667 45.7244 307.39 48.719 304.008 49.3845C304.008 49.3845 297.854 50.9373 294.971 46.0017C294.971 46.0017 294.247 44.432 292.836 44.7849L288.719 47.0985C288.719 47.0985 287.543 47.8436 288.288 49.1573C288.288 49.1573 289.974 52.3924 293.267 54.1178C293.267 54.1178 298.246 57.4118 307.028 55.1766C307.028 55.1766 313.104 53.1767 314.633 49.1769C314.633 49.1769 316.319 45.8829 315.26 41.1381C315.26 41.1381 314.241 37.0599 309.38 34.6678C309.38 34.6678 302.676 31.6876 301.774 31.4131C301.774 31.4131 297.305 29.5308 297.383 27.178C297.383 27.178 296.638 24.5899 299.736 23.3351C299.736 23.3351 302.127 22.1587 305.224 23.3351C305.224 23.3351 306.729 23.9483 307.584 25.2887V25.2887Z" fill="var(--fill-0, #DF2B3C)"/>
<path id="path4314 9 5 7 3 9 6 2 1 8 2 8 9 0 1" d="M337.367 25.6498C337.367 25.6498 338.088 26.6203 339.557 25.8716L342.773 23.4315C342.773 23.4315 343.632 22.6552 342.967 21.6015C342.967 21.6015 340.496 17.5004 334.693 17.0299C334.693 17.0299 330.538 16.6769 328.185 17.3828C328.185 17.3828 320.697 18.7553 319.325 25.6569C319.325 25.6569 318.855 27.6568 319.443 30.3233C319.443 30.3233 320.188 34.6368 326.068 37.2641C326.068 37.2641 333.625 40.7063 334.013 40.8726C334.013 40.8726 338.282 42.5918 337.45 46.0855C337.45 46.0855 337.173 49.0802 333.791 49.7457C333.791 49.7457 327.637 51.2984 324.754 46.3628C324.754 46.3628 324.03 44.7931 322.618 45.1461L318.502 47.4597C318.502 47.4597 317.326 48.2047 318.071 49.5184C318.071 49.5184 319.757 52.7535 323.05 54.4789C323.05 54.4789 328.029 57.7729 336.81 55.5377C336.81 55.5377 342.887 53.5378 344.416 49.538C344.416 49.538 346.102 46.244 345.043 41.4992C345.043 41.4992 344.024 37.421 339.163 35.0289C339.163 35.0289 332.459 32.0487 331.557 31.7742C331.557 31.7742 327.088 29.8919 327.166 27.5391C327.166 27.5391 326.421 24.951 329.518 23.6962C329.518 23.6962 331.91 22.5198 335.007 23.6962C335.007 23.6962 336.512 24.3095 337.367 25.6498V25.6498Z" fill="var(--fill-0, #DF2B3C)"/>
</g>
</svg>
