<svg preserveAspectRatio="none" width="100%" height="100%" overflow="visible" style="display: block;" viewBox="0 0 100.826 63.9686" fill="none" xmlns="http://www.w3.org/2000/svg">
<g id="Vector">
<path d="M100.823 31.0668C99.7838 28.183 93.2873 26.7411 93.2873 26.7411C92.118 25.6924 93.4172 24.5126 93.4172 24.5126C93.937 23.7261 94.9764 22.5464 94.9764 22.5464C93.2873 23.3329 91.3384 23.2018 91.3384 23.2018C90.8186 22.8086 91.5982 22.6775 91.5982 22.6775C96.2757 20.5801 95.626 15.2057 95.626 15.2057C94.0669 16.5166 91.4683 16.1233 91.4683 16.1233C89.6493 15.8612 89.6493 14.2882 89.6493 14.2882C89.9091 12.453 92.3778 11.7976 92.3778 11.7976C89.6493 7.99615 81.5936 9.1759 81.5936 9.1759C83.2827 3.53932 80.6841 0.131159 80.6841 0.131159C71.719 8.91374 56.2574 9.56915 56.2574 9.56915C55.8676 9.56915 54.9581 8.78265 54.9581 8.78265C53.3989 7.07857 54.3084 3.53932 54.3084 3.53932C53.0091 4.32582 51.8398 7.60291 51.8398 7.60291C51.0602 8.65157 50.8003 7.07857 50.8003 7.07857C50.2806 3.01499 47.682 1.31091 47.682 1.31091C48.3317 3.53932 47.2922 7.07857 47.2922 7.07857C46.7725 8.12724 46.1229 7.73399 46.1229 7.73399C44.3039 6.81641 44.8236 4.19474 44.8236 4.19474C41.4454 6.02991 41.4454 9.1759 41.4454 9.1759C28.1926 8.38941 19.8771 7.58767e-05 19.8771 7.58767e-05C18.0581 4.19474 19.2274 8.25832 19.2274 8.25832C17.0186 6.68532 14.0303 7.07857 14.0303 7.07857C16.6289 9.56916 13.6405 10.0935 13.6405 10.0935C7.92358 9.83132 6.49435 12.7152 6.49435 12.7152C7.53379 13.1084 8.4433 14.5503 8.4433 14.5503C9.3528 16.9098 7.92358 17.5652 7.92358 17.5652C5.8447 18.6139 3.6359 15.2057 3.6359 15.2057C3.24611 22.2842 7.79365 23.3329 7.79365 23.3329C7.01407 24.2505 3.37604 23.7261 3.37604 23.7261C6.62428 25.2991 6.36442 26.7411 6.36442 26.7411C5.97463 28.183 3.6359 28.0519 3.6359 28.0519C1.81689 28.3141 0.517592 29.4938 0.517592 29.4938C4.80527 30.8046 4.67534 33.9506 4.67534 33.9506C2.33661 36.1791 0.257733 33.5574 0.257733 33.5574C1.16724 38.9318 5.84471 39.4561 5.84471 39.4561C7.144 40.2426 6.23449 40.767 6.23449 40.767C5.71478 41.4224 3.89576 43.2576 3.89576 43.2576C2.7264 44.3062 2.72639 47.1901 2.72639 47.1901C3.6359 46.1414 7.01407 45.3549 7.01407 45.3549C10.2623 45.2238 9.48273 48.1076 9.48273 48.1076C9.48273 49.4185 6.88414 52.0401 6.88414 52.0401C8.70316 53.0888 13.1208 53.0888 13.1208 53.0888C15.3296 53.0888 15.1996 54.0064 15.1996 54.0064C15.3296 55.9726 13.2507 58.4632 13.2507 58.4632C14.6799 57.1524 19.4873 56.1037 19.4873 56.1037C21.956 55.8416 21.1764 57.1524 21.3063 57.1524C20.7866 60.2984 21.956 63.0511 22.0859 63.4444C23.1253 60.1673 25.4641 58.9876 25.7239 58.8565C27.5429 58.2011 27.2831 59.7741 27.2831 60.0362C27.8028 60.4295 30.2715 62.0025 34.0394 60.9538C36.1183 60.4295 38.587 59.5119 40.7958 57.8078C41.9651 57.0213 43.3943 55.7105 44.8236 53.7442C45.4732 52.8266 46.2528 51.778 46.9024 50.4671H47.0324C48.3317 48.2387 49.3711 45.486 50.1507 42.0778C50.1507 42.0778 50.9303 46.1414 52.8792 50.4671H53.3989C53.3989 50.4671 56.5172 56.497 60.9348 59.1186C65.8722 62.1336 67.951 63.0511 72.2387 62.5268C72.8884 62.3957 73.2782 62.3957 73.4081 62.2646C73.2782 62.1335 73.2782 62.0025 73.1482 61.8714C74.4475 59.9051 75.6169 60.8227 75.6169 60.8227C76.2665 61.347 76.1366 62.3957 76.1366 62.3957C79.2549 61.0849 79.7746 57.1524 79.7746 57.1524C80.6841 55.4483 81.9834 56.497 81.9834 56.497C83.4127 57.1524 83.9324 59.3808 83.9324 59.3808C85.1017 56.3659 84.3222 53.351 84.3222 53.351C84.0623 52.1712 84.8419 52.5645 84.8419 52.5645C90.4289 53.7442 91.988 52.3023 91.988 52.3023C90.0391 51.3847 89.7792 48.5009 89.7792 48.5009C89.9091 46.2725 91.988 46.7968 91.988 46.7968C94.0669 47.1901 95.2363 48.632 95.2363 48.632C95.626 45.0927 92.7676 42.2089 92.7676 42.2089C92.3778 41.0291 93.1574 40.5048 93.1574 40.5048C98.4845 38.5386 98.4845 35.5236 98.4845 35.5236C95.3662 36.1791 94.7165 33.5574 94.7165 33.5574C96.5356 29.756 100.823 31.0668 100.823 31.0668Z" fill="#225054"/>
<path d="M50.4112 36.6992C47.4228 37.7478 44.4345 43.5155 44.4345 43.5155C44.8242 49.021 50.2813 54.0021 50.4112 54.1332C50.5411 54.0021 55.7383 49.021 56.1281 43.5155C56.1281 43.5155 53.2697 37.7478 50.4112 36.6992Z" fill="#0A5B59"/>
<path d="M44.567 44.6976C44.567 44.6976 47.4255 39.4543 50.2839 38.5367V54.2667C50.4138 54.2667 44.9568 49.8099 44.567 44.6976Z" fill="#FAB84A"/>
<path d="M55.8671 44.6976C55.8671 44.6976 53.1385 39.4543 50.2801 38.5367V54.2667C50.2801 54.2667 55.4773 49.6788 55.8671 44.6976Z" fill="#E9934C"/>
<path d="M27.6766 51.2531C37.4357 51.2531 45.347 43.2715 45.347 33.4258C45.347 23.58 37.4357 15.5985 27.6766 15.5985C17.9175 15.5985 10.0062 23.58 10.0062 33.4258C10.0062 43.2715 17.9175 51.2531 27.6766 51.2531Z" fill="#0A5B59"/>
<path d="M28.7121 51.3805C37.5384 51.3805 44.6935 43.7511 44.6935 34.3397C44.6935 24.9283 37.5384 17.2989 28.7121 17.2989C19.8859 17.2989 12.7308 24.9283 12.7308 34.3397C12.7308 43.7511 19.8859 51.3805 28.7121 51.3805Z" fill="#F2EEE3"/>
<path d="M73.1518 51.2531C82.9109 51.2531 90.8222 43.2715 90.8222 33.4258C90.8222 23.58 82.9109 15.5985 73.1518 15.5985C63.3927 15.5985 55.4814 23.58 55.4814 33.4258C55.4814 43.2715 63.3927 51.2531 73.1518 51.2531Z" fill="#0A5B59"/>
<path d="M71.9807 51.3805C80.8069 51.3805 87.962 43.7511 87.962 34.3397C87.962 24.9283 80.8069 17.2989 71.9807 17.2989C63.1544 17.2989 55.9993 24.9283 55.9993 34.3397C55.9993 43.7511 63.1544 51.3805 71.9807 51.3805Z" fill="#F2EEE3"/>
<path d="M32.3509 44.9614C37.5175 44.9614 41.7058 40.7359 41.7058 35.5234C41.7058 30.311 37.5175 26.0854 32.3509 26.0854C27.1843 26.0854 22.9959 30.311 22.9959 35.5234C22.9959 40.7359 27.1843 44.9614 32.3509 44.9614Z" fill="#FAB84A"/>
<path d="M32.3514 42.4706C36.2263 42.4706 39.3676 39.3015 39.3676 35.3921C39.3676 31.4828 36.2263 28.3136 32.3514 28.3136C28.4764 28.3136 25.3352 31.4828 25.3352 35.3921C25.3352 39.3015 28.4764 42.4706 32.3514 42.4706Z" fill="#201E1E"/>
<path d="M28.4522 33.1613C29.6721 33.1613 30.661 32.1636 30.661 30.9329C30.661 29.7022 29.6721 28.7045 28.4522 28.7045C27.2323 28.7045 26.2434 29.7022 26.2434 30.9329C26.2434 32.1636 27.2323 33.1613 28.4522 33.1613Z" fill="#FEFEFE"/>
<path d="M68.8606 44.9614C74.0272 44.9614 78.2156 40.7359 78.2156 35.5234C78.2156 30.311 74.0272 26.0854 68.8606 26.0854C63.6941 26.0854 59.5057 30.311 59.5057 35.5234C59.5057 40.7359 63.6941 44.9614 68.8606 44.9614Z" fill="#FAB84A"/>
<path d="M68.9925 42.5973C72.8674 42.5973 76.0087 39.4282 76.0087 35.5188C76.0087 31.6095 72.8674 28.4403 68.9925 28.4403C65.1175 28.4403 61.9763 31.6095 61.9763 35.5188C61.9763 39.4282 65.1175 42.5973 68.9925 42.5973Z" fill="#201E1E"/>
<path d="M65.0933 33.1613C66.3132 33.1613 67.3021 32.1636 67.3021 30.9329C67.3021 29.7022 66.3132 28.7045 65.0933 28.7045C63.8734 28.7045 62.8845 29.7022 62.8845 30.9329C62.8845 32.1636 63.8734 33.1613 65.0933 33.1613Z" fill="#FEFEFE"/>
<path d="M34.8211 60.6916C34.8211 60.6916 31.313 62.0024 27.1553 59.774C27.1553 59.774 24.037 58.4632 22.218 63.9686C22.088 63.9686 20.0092 62.1335 20.7887 57.6766C20.7887 57.6766 21.3085 56.4969 18.9697 56.7591C18.9697 56.7591 13.3827 58.5942 12.6032 59.6429C12.6032 59.6429 14.682 56.4969 14.5521 54.3996C14.5521 54.3996 14.5521 53.6131 12.4732 53.7441C12.4732 53.7441 8.05563 53.7441 6.23662 52.4333C6.49648 52.4333 8.83521 50.336 9.09507 48.5008C9.09507 48.5008 9.61479 45.7481 7.14613 45.8792C7.14613 45.8792 4.15775 45.8792 2.33873 47.7143C2.33873 47.7143 1.68909 44.044 5.7169 41.0291C5.7169 41.0291 6.62641 40.5047 5.58697 39.9804C5.58697 39.9804 1.03944 38.5385 0 33.1641C0 33.1641 1.81901 35.5236 3.63803 34.606C3.63803 34.606 4.02782 34.4749 4.15775 33.9506C4.15775 33.9506 4.02782 30.8046 0 29.4937C0 29.4937 1.2993 28.0518 4.28768 27.7897C4.28768 27.7897 6.36655 27.1342 5.32711 25.6923C5.32711 25.6923 3.89789 24.1193 2.98838 23.595C2.98838 23.595 6.23662 23.7261 7.27606 23.0707C7.14613 23.0707 2.72852 22.5463 3.5081 14.9435C3.5081 14.9435 6.75634 19.6625 8.18556 16.3854C8.05563 16.1232 8.70528 14.157 5.84683 12.584C5.84683 12.584 7.66585 9.70016 13.1229 9.56908C13.1229 9.56908 15.7215 8.91366 13.5127 6.68525C13.5127 6.68525 17.1507 6.02983 18.7099 7.60283C18.7099 7.47175 18.0602 4.32575 19.7493 0C19.7493 0 19.2296 7.865 20.3989 10.8799C20.269 10.7488 18.45 8.25825 16.1113 7.34066C16.1113 7.34066 17.2806 11.4042 13.1229 11.5353C13.1229 11.5353 9.74472 10.8799 8.18556 12.1907C8.18556 12.1907 10.6542 16.7787 8.70528 18.7449C8.70528 18.7449 6.88627 20.3179 4.67746 18.0895C4.67746 18.0895 4.41761 21.7598 9.225 22.8085C9.225 22.8085 8.44542 24.7747 5.97676 24.7747C5.97676 24.7747 8.05563 26.741 6.49648 28.314C6.49648 28.314 4.93732 29.6248 2.98838 29.6248C2.98838 29.6248 6.36655 31.5911 5.97676 34.7371C5.97676 34.7371 4.93732 37.2277 2.07887 36.3101C2.07887 36.3101 3.89789 37.8831 6.88627 38.9317C6.88627 38.9317 8.70528 40.1115 7.9257 41.4223C7.9257 41.4223 5.06725 42.471 4.28768 45.3548C4.28768 45.3548 8.44542 43.2575 10.3944 44.8305C10.3944 44.8305 11.6937 48.6319 8.57535 51.7779C8.57535 51.7779 14.682 52.8266 17.1507 52.4333C17.1507 52.4333 16.3711 55.8415 15.7215 56.7591C16.1113 56.628 20.6588 54.6617 23.5173 55.3171C23.5173 55.3171 21.4384 59.3807 21.6982 60.8226C21.6982 60.8226 25.3363 57.0212 28.3246 57.5456C28.4546 57.4145 27.4151 59.774 34.8211 60.6916Z" fill="#163C3F"/>
<path d="M65.6152 61.3471C65.6152 61.3471 68.2138 63.5755 73.8008 62.2646C73.8008 62.2646 74.5804 62.0025 75.1001 61.6092C75.1001 61.6092 76.1395 60.6916 76.1395 62.5268C76.1395 62.5268 79.9075 61.7403 80.4272 57.6767C80.4272 57.6767 80.6871 56.1037 82.3761 57.2835C82.3761 57.2835 83.2856 58.07 83.8054 60.1673C83.8054 60.1673 85.8842 56.7591 84.8448 53.4821C84.8448 53.4821 84.8448 52.8266 85.4944 52.9577C85.4944 52.9577 90.3018 54.3996 92.5106 52.4334C92.5106 52.4334 89.912 50.9915 90.5617 47.5833C90.5617 47.5833 91.0814 46.5346 93.0304 47.1901C93.0304 47.1901 95.1092 47.9766 95.3691 49.0252C95.3691 49.0252 96.1487 45.0927 93.1603 42.2089C93.1603 42.2089 92.3807 41.2913 93.68 40.6359C93.68 40.6359 98.0976 38.8007 98.7473 35.3926C98.7473 35.3926 96.0187 36.5723 94.9793 33.6885C94.9793 33.6885 96.4085 30.0181 100.826 31.1979C100.826 31.1979 99.5268 27.9208 93.4202 26.7411C93.4202 26.7411 92.2508 26.3478 93.4202 24.6437L95.3691 22.1531C95.3691 22.1531 92.6406 23.5951 91.3413 22.9396C91.3413 22.9396 90.9515 22.8086 91.6011 22.5464C91.6011 22.5464 96.0187 20.5801 95.499 14.6814C95.499 14.6814 91.6011 17.5652 89.7821 14.8125C89.7821 14.8125 89.1325 13.1084 92.7705 11.5354C92.7705 11.5354 91.0814 7.86507 81.8564 8.91374C81.8564 8.91374 83.4156 3.80149 80.4272 7.58767e-05C80.4272 7.58767e-05 82.8959 8.12724 79.7775 11.0111C79.7775 11.0111 85.6244 8.52049 91.3413 11.2732C91.3413 11.2732 87.8332 11.2732 89.0025 15.7301C89.0025 15.7301 90.3018 17.8274 94.4596 16.9098C94.4596 16.9098 92.2508 21.3666 89.6522 22.9396C89.6522 22.9396 91.6011 24.1194 92.9004 23.9883C92.7705 24.2505 91.2113 26.7411 90.6916 27.0032C90.6916 27.0032 94.7194 27.5276 97.448 29.756C97.448 29.756 94.8494 30.4114 93.68 33.9506C93.68 33.9506 95.1092 36.5723 96.5385 36.9656C96.5385 36.8345 93.5501 39.8494 91.0814 40.6359C91.2113 40.8981 93.9399 45.3549 94.4596 47.059C94.4596 47.059 92.2508 45.0927 89.5223 46.6657C89.5223 46.6657 88.4828 49.8117 89.7821 52.1712C89.7821 52.1712 86.274 52.5645 83.6754 51.5158C83.6754 51.5158 83.9353 56.2348 83.5455 57.4146C83.5455 57.4146 81.3367 55.4483 79.2578 55.7105C79.2578 55.7105 78.868 59.9051 77.3089 60.4295C77.3089 60.4295 76.3994 59.2497 75.23 58.8565C75.8797 58.8565 71.8518 62.9201 65.6152 61.3471Z" fill="#163C3F"/>
</g>
</svg>
