<svg preserveAspectRatio="none" width="100%" height="100%" overflow="visible" style="display: block;" viewBox="0 0 199.629 51.6664" fill="none" xmlns="http://www.w3.org/2000/svg">
<g id="Group 24">
<path id="path4247 4 1 1 3 4 0 9 9 4 4 3 6 84 7 7" d="M37.1003 11.0383V3.98986C37.1003 3.98986 37.2082 2.98293 35.6263 2.2637C35.6263 2.2637 24.6966 -2.9867 12.4007 3.05485C12.4007 3.05485 3.68953 6.88079 0.994717 17.51C0.994717 17.51 -1.2434 26.8255 0.994717 33.5863C0.994717 33.5863 3.52051 44.8063 13.6592 48.834C13.6592 48.834 22.786 53.7103 35.8061 48.4744C35.8061 48.4744 37.1319 48.1413 37.1003 46.6044V39.7347C37.1003 39.7347 36.6371 37.5987 34.6287 38.1072C34.6287 38.1072 34.0186 38.2853 33.3067 38.7938C33.3067 38.7938 30.917 40.523 28.0697 40.9298C28.0697 40.9298 22.1208 42.0233 17.926 39.5567C17.926 39.5567 12.0053 37.3263 10.711 27.5447C10.711 27.5447 10.2437 23.4811 10.711 21.7909C10.711 21.7909 12.0281 12.2717 20.6718 10.2882C20.6718 10.2882 25.0443 9.11854 30.383 10.4408C30.383 10.4408 33.0735 11.5418 33.9724 12.297C33.9724 12.297 36.1295 13.6276 37.1003 11.0383V11.0383Z" fill="var(--fill-0, #DF2B3C)"/>
<path id="path4288 7 1 1 2 9 1 5 5 6 1 1 5 9 2" fill-rule="evenodd" clip-rule="evenodd" d="M98.5097 0.154678C84.6747 0.154678 73.4578 11.6319 73.4578 25.7881C73.4578 39.9444 84.6747 51.4187 98.5097 51.4187C112.345 51.4187 123.562 39.9444 123.562 25.7881C123.562 11.6319 112.345 0.154678 98.5097 0.154678ZM98.5097 9.75787C106.348 9.75787 112.704 16.9349 112.704 25.7881C112.704 34.6414 106.348 41.8184 98.5097 41.8184C90.6712 41.8184 84.3155 34.6414 84.3155 25.7881C84.3155 16.9349 90.6712 9.75787 98.5097 9.75787Z" fill="var(--fill-0, #DF2B3C)"/>
<path id="path4312 1 5 2 7 0 6 1 8 0 7 4 7 2 5" d="M44.115 3.68294V48.5274C44.115 48.5274 43.9664 50.7323 46.3441 50.8444H53.18C53.18 50.8444 54.8518 50.8444 55.0375 48.8638V26.1454C55.0375 26.1454 54.8619 13.9371 60.5363 10.6076C60.5363 10.6076 63.8989 8.7578 69.3106 10.449C69.3106 10.449 71.097 11.2418 72.1478 10.0791L74.6697 4.05417C74.6697 4.05417 75.2477 1.78169 73.619 1.35888C73.619 1.35888 65.8429 -2.34064 59.6432 2.46869C59.6432 2.46869 56.5432 4.68842 55.1246 9.33919V3.64422C55.1246 3.64422 55.1873 1.63861 53.2332 1.62314H45.9825C45.9825 1.62314 44.5066 1.62052 44.115 3.68294V3.68294Z" fill="var(--fill-0, #DF2B3C)"/>
<path id="path4314 1 2 3 7 0 27 1 2 8 8 9 93 4 7" d="M150.594 11.4268C150.594 11.4268 151.528 12.6854 153.434 11.7145L157.604 8.54986C157.604 8.54986 158.719 7.54293 157.856 6.17639C157.856 6.17639 154.651 0.857643 147.126 0.247356C147.126 0.247356 141.737 -0.210376 138.686 0.705058C138.686 0.705058 128.974 2.48506 127.195 11.436C127.195 11.436 126.585 14.0297 127.347 17.488C127.347 17.488 128.313 23.0823 135.94 26.4898C135.94 26.4898 145.74 30.954 146.243 31.1697C146.243 31.1697 151.78 33.3993 150.702 37.9305C150.702 37.9305 150.342 41.8144 145.956 42.6774C145.956 42.6774 137.974 44.6913 134.235 38.2901C134.235 38.2901 133.296 36.2544 131.466 36.7121L126.127 39.7127C126.127 39.7127 124.602 40.679 125.568 42.3827C125.568 42.3827 127.754 46.5784 132.025 48.8162C132.025 48.8162 138.482 53.0882 149.872 50.1893C149.872 50.1893 157.753 47.5956 159.736 42.4081C159.736 42.4081 161.922 38.1361 160.549 31.9824C160.549 31.9824 159.227 26.6932 152.922 23.5909C152.922 23.5909 144.228 19.7257 143.059 19.3697C143.059 19.3697 137.262 16.9286 137.364 13.8771C137.364 13.8771 136.398 10.5205 140.415 8.89311C140.415 8.89311 143.516 7.36739 147.533 8.89311C147.533 8.89311 149.485 9.68846 150.594 11.4268V11.4268Z" fill="var(--fill-0, #DF2B3C)"/>
<path id="path4314 9 5 7 3 9 6 2 1 8 2 8 9 0 1 7" d="M189.221 11.8954C189.221 11.8954 190.155 13.154 192.061 12.1831L196.232 9.01844C196.232 9.01844 197.346 8.01151 196.483 6.64497C196.483 6.64497 193.278 1.32617 185.753 0.715885C185.753 0.715885 180.364 0.258152 177.313 1.17359C177.313 1.17359 167.601 2.95364 165.822 11.9045C165.822 11.9045 165.212 14.4983 165.975 17.9566C165.975 17.9566 166.941 23.5509 174.567 26.9583C174.567 26.9583 184.367 31.4225 184.87 31.6383C184.87 31.6383 190.407 33.8679 189.329 38.3991C189.329 38.3991 188.969 42.2829 184.583 43.146C184.583 43.146 176.601 45.1599 172.862 38.7587C172.862 38.7587 171.923 36.723 170.093 37.1807L164.754 40.1813C164.754 40.1813 163.229 41.1476 164.195 42.8513C164.195 42.8513 166.381 47.047 170.652 49.2847C170.652 49.2847 177.109 53.5568 188.499 50.6579C188.499 50.6579 196.38 48.0642 198.363 42.8767C198.363 42.8767 200.549 38.6047 199.176 32.4509C199.176 32.4509 197.854 27.1617 191.55 24.0594C191.55 24.0594 182.855 20.1943 181.686 19.8383C181.686 19.8383 175.889 17.3971 175.991 14.3457C175.991 14.3457 175.025 10.9891 179.042 9.36165C179.042 9.36165 182.143 7.83592 186.16 9.36165C186.16 9.36165 188.112 10.157 189.221 11.8954V11.8954Z" fill="var(--fill-0, #DF2B3C)"/>
</g>
</svg>
