<svg preserveAspectRatio="none" width="100%" height="100%" overflow="visible" style="display: block;" viewBox="0 0 156.509 46.9933" fill="none" xmlns="http://www.w3.org/2000/svg">
<g id="Group 25">
<path id="path4237 8 4 2 1 2 7 9 8 0 7 9 7 9 7" d="M15.0155 13.9859C13.2232 13.9725 11.3014 14.179 9.60474 14.8355C9.60474 14.8355 0.943828 18.1889 0.152256 27.6437C0.152256 27.6437 -0.918715 35.4684 2.62014 40.5451C2.62014 40.5451 5.35197 45.1223 11.1469 46.4397C11.1469 46.4397 23.0659 49.8644 29.3218 39.0621C29.3218 39.0621 29.859 38.0989 29.1839 37.3071L25.5054 35.0715C25.5054 35.0715 24.4828 34.6291 23.6913 35.7701C23.6913 35.7701 22.0118 38.897 19.1801 39.852C19.1801 39.852 15.1957 41.3011 11.9031 39.852C11.9031 39.852 7.49204 38.403 6.85001 31.2728H29.0908C29.0908 31.2728 30.1946 31.3556 30.3592 30.0712C30.3592 30.0712 31.1173 18.2355 21.3854 14.8355C21.3854 14.8355 18.4371 14.0116 15.0155 13.9859V13.9859ZM15.5202 19.9662C18.1207 19.9379 19.8022 20.8437 19.8022 20.8437C23.5274 22.6135 23.4342 26.6656 23.4342 26.6656H7.27654C8.53378 21.9615 11.1413 20.8902 11.1413 20.8902C12.7608 20.2178 14.2502 19.98 15.5202 19.9662Z" fill="var(--fill-0, #0C5257)"/>
<path id="path4241 8 5 7 1 4 6 5 7 2 9 5 1 8 4" d="M58.1003 0C58.1003 0 57.2398 0.0465754 57.0535 1.16439V19.9268C57.0535 19.9268 55.5298 16.0737 51.7434 14.7235C51.7434 14.7235 46.8382 13.0444 42.492 14.757C42.492 14.757 37.0916 16.2724 34.5892 24.9011C34.5892 24.9011 33.2388 29.2217 34.4253 35.6172C34.4253 35.6172 35.4452 42.0591 41.6353 45.7147C41.6353 45.7147 46.048 48.3823 52.5014 45.7147C52.5014 45.7147 55.3113 44.6195 57.1 41.7092V44.3976C57.1 44.3976 57.0448 45.4178 58.0984 45.5825H62.7082C62.7082 45.5825 63.7619 45.4186 63.7289 44.2988V1.21096C63.7289 1.21096 63.7343 0.256166 62.5704 0H58.1003ZM48.998 20.1094C53.6784 20.1094 57.4725 24.8107 57.4725 30.6113C57.4725 36.4118 53.6784 41.1149 48.998 41.1149C44.3175 41.1149 40.5233 36.4118 40.5233 30.6113C40.5233 24.8107 44.3175 20.1094 48.998 20.1094Z" fill="var(--fill-0, #0C5257)"/>
<path id="path4245 2 5 9 3 8 7 3 5 5 2 0 8 8 0" d="M69.9187 15.0202H74.1661C74.1661 15.0202 75.2526 14.8884 75.3844 16.2717L75.4227 34.1401C75.4227 34.1401 75.5159 39.2168 79.7998 40.3347C79.7998 40.3347 83.0592 41.1497 85.8997 40.3347C85.8997 40.3347 90.2999 39.3566 90.3232 34.0935V16.3017C90.3232 16.3017 90.1835 15.0675 91.4407 15.0209H95.7479C95.7479 15.0209 97.0284 14.9045 97.075 16.1154V32.0675C97.075 32.0675 97.0983 41.7086 91.3244 44.9223C91.3244 44.9223 83.6878 49.347 74.282 44.9223C74.282 44.9223 69.579 43.0127 68.7874 33.5114V16.1387C68.7874 16.1387 68.7992 15.0531 69.9187 15.0202V15.0202Z" fill="var(--fill-0, #0C5257)"/>
<path id="path4247 45 1 5 8 6 7 0 0 9 9 6 71 0 1" d="M124.711 21.0057V16.4413C124.711 16.4413 124.781 15.7893 123.756 15.3235C123.756 15.3235 116.679 11.9235 108.716 15.8359C108.716 15.8359 103.075 18.3135 101.33 25.1966C101.33 25.1966 99.8805 31.229 101.33 35.6071C101.33 35.6071 102.966 42.8729 109.531 45.4811C109.531 45.4811 115.441 48.6389 123.873 45.2482C123.873 45.2482 124.731 45.0325 124.711 44.0373V39.5887C124.711 39.5887 124.411 38.2055 123.11 38.5348C123.11 38.5348 122.715 38.65 122.254 38.9794C122.254 38.9794 120.707 40.0991 118.863 40.3626C118.863 40.3626 115.011 41.0707 112.294 39.4734C112.294 39.4734 108.46 38.029 107.622 31.6948C107.622 31.6948 107.319 29.0633 107.622 27.9688C107.622 27.9688 108.475 21.8044 114.072 20.52C114.072 20.52 116.904 19.7625 120.361 20.6188C120.361 20.6188 122.103 21.3318 122.685 21.8208C122.685 21.8208 124.082 22.6825 124.711 21.0057V21.0057Z" fill="var(--fill-0, #0C5257)"/>
<path id="path4241 1 5 7 4 7 5 1 9 7 8 2 5 54 9 2" d="M139.73 14.0805C138.326 14.0736 136.765 14.2613 135.271 14.85C135.271 14.85 129.873 16.3654 127.37 24.9941C127.37 24.9941 126.018 29.3147 127.205 35.7102C127.205 35.7102 128.226 42.1521 134.417 45.8077C134.417 45.8077 138.827 48.4753 145.281 45.8077C145.281 45.8077 148.091 44.7125 149.879 41.8022V44.4906C149.879 44.4906 149.824 45.5126 150.878 45.6773H155.488C155.488 45.6773 156.541 45.5116 156.508 44.3918V16.21C156.508 16.21 156.516 15.2552 155.352 14.999H150.882C150.882 14.999 150.019 15.0456 149.833 16.1634V20.0217C149.833 20.0217 148.311 16.1686 144.525 14.8183C144.525 14.8183 142.411 14.0938 139.73 14.0805V14.0805ZM141.777 20.2024C146.458 20.2024 150.252 24.9056 150.252 30.7061C150.252 36.5066 146.458 41.2079 141.777 41.2079C137.097 41.2079 133.303 36.5066 133.303 30.7061C133.303 24.9056 137.097 20.2024 141.777 20.2024Z" fill="var(--fill-0, #0C5257)"/>
</g>
</svg>
